<svg width="432" height="150" viewBox="0 0 432 150" fill="none" xmlns="http://www.w3.org/2000/svg">
<g filter="url(#filter0_bd_1271_65397)">
<g clip-path="url(#clip0_1271_65397)">
<rect x="16" y="16" width="400" height="118" fill="white" fill-opacity="0.08"/>
<path d="M33.793 40H31.945L35.168 32.63H37.522L40.767 40H38.875L38.182 38.372H34.497L33.793 40ZM35.828 35.281L35.135 36.887H37.544L36.851 35.281L36.4 34.137H36.279L35.828 35.281ZM44.5619 41.87H42.9119V34.489H44.4409V35.996H44.5509C44.7489 34.94 45.4529 34.379 46.7509 34.379C48.4449 34.379 49.3909 35.501 49.3909 37.25C49.3909 38.999 48.4669 40.11 46.8059 40.11C45.5299 40.11 44.8259 39.483 44.6389 38.515H44.5619V41.87ZM44.5619 37.327C44.5619 38.273 45.1339 38.603 46.1679 38.603C47.2239 38.603 47.7189 38.251 47.7189 37.25C47.7189 36.238 47.2239 35.897 46.1789 35.897C45.1119 35.897 44.5619 36.26 44.5619 37.239V37.327ZM53.487 41.87H51.837V34.489H53.366V35.996H53.476C53.674 34.94 54.378 34.379 55.676 34.379C57.37 34.379 58.316 35.501 58.316 37.25C58.316 38.999 57.392 40.11 55.731 40.11C54.455 40.11 53.751 39.483 53.564 38.515H53.487V41.87ZM53.487 37.327C53.487 38.273 54.059 38.603 55.093 38.603C56.149 38.603 56.644 38.251 56.644 37.25C56.644 36.238 56.149 35.897 55.104 35.897C54.037 35.897 53.487 36.26 53.487 37.239V37.327ZM62.412 40H60.762V32.63H62.412V40ZM66.6857 33.928H65.0357V32.63H66.6857V33.928ZM66.6857 40H65.0357V34.489H66.6857V40ZM72.2463 40.11C70.3543 40.11 69.1443 38.988 69.1443 37.25C69.1443 35.49 70.3543 34.379 72.2463 34.379C74.0173 34.379 75.2273 35.325 75.2273 36.755V36.909H73.5883V36.821C73.5883 36.117 73.0713 35.864 72.2133 35.864C71.2343 35.864 70.7833 36.227 70.7833 37.25C70.7833 38.262 71.2343 38.625 72.2133 38.625C73.0713 38.625 73.5883 38.372 73.5883 37.668V37.58H75.2273V37.734C75.2273 39.153 74.0173 40.11 72.2463 40.11ZM79.3913 40.11C78.2033 40.11 77.4883 39.56 77.4883 38.636C77.4883 37.822 78.0933 37.316 79.2703 37.195L81.6353 36.953V36.744C81.6353 36.029 81.3163 35.831 80.4363 35.831C79.6003 35.831 79.2593 36.051 79.2593 36.678V36.722H77.5983V36.689C77.5983 35.325 78.7423 34.379 80.5573 34.379C82.3943 34.379 83.2633 35.325 83.2633 36.766V40H81.7233V38.735H81.6353C81.3823 39.593 80.6123 40.11 79.3913 40.11ZM79.1493 38.526C79.1493 38.823 79.3803 38.944 79.8643 38.944C80.9863 38.944 81.5913 38.68 81.6353 37.899L79.7213 38.119C79.3253 38.152 79.1493 38.262 79.1493 38.526ZM89.7426 40H88.3786C87.0916 40 86.3106 39.395 86.3106 38.009V35.853H85.4416V34.489H86.3106V33.422H87.9606V34.489H89.7426V35.853H87.9606V37.822C87.9606 38.372 88.1696 38.515 88.7526 38.515H89.7426V40ZM93.7706 33.928H92.1206V32.63H93.7706V33.928ZM93.7706 40H92.1206V34.489H93.7706V40ZM99.3313 40.11C97.4503 40.11 96.1853 38.988 96.1853 37.25C96.1853 35.49 97.4503 34.379 99.3313 34.379C101.212 34.379 102.477 35.49 102.477 37.25C102.477 38.988 101.212 40.11 99.3313 40.11ZM99.3313 38.647C100.442 38.647 100.838 38.218 100.838 37.25C100.838 36.282 100.442 35.831 99.3313 35.831C98.2093 35.831 97.8243 36.282 97.8243 37.25C97.8243 38.218 98.2093 38.647 99.3313 38.647ZM106.561 40H104.911V34.489H106.44V36.183H106.539C106.682 35.259 107.342 34.379 108.783 34.379C110.29 34.379 111.005 35.347 111.005 36.568V40H109.355V37.118C109.355 36.238 108.992 35.864 107.98 35.864C106.935 35.864 106.561 36.282 106.561 37.217V40ZM120.401 40.11C118.168 40.11 116.914 39.23 116.914 37.514V37.448H118.564V37.646C118.564 38.328 118.905 38.603 120.401 38.603C121.721 38.603 122.029 38.405 122.029 37.91C122.029 37.459 121.776 37.294 121.017 37.162L118.949 36.865C117.629 36.656 116.848 35.996 116.848 34.797C116.848 33.686 117.75 32.52 120.225 32.52C122.491 32.52 123.547 33.565 123.547 35.116V35.182H121.886V35.028C121.886 34.324 121.523 34.027 120.06 34.027C118.872 34.027 118.509 34.258 118.509 34.731C118.509 35.16 118.751 35.314 119.367 35.424L121.435 35.754C123.085 36.018 123.679 36.821 123.679 37.833C123.679 39.032 122.744 40.11 120.401 40.11ZM129.994 40H128.63C127.343 40 126.562 39.395 126.562 38.009V35.853H125.693V34.489H126.562V33.422H128.212V34.489H129.994V35.853H128.212V37.822C128.212 38.372 128.421 38.515 129.004 38.515H129.994V40ZM134.066 40.11C132.878 40.11 132.163 39.56 132.163 38.636C132.163 37.822 132.768 37.316 133.945 37.195L136.31 36.953V36.744C136.31 36.029 135.991 35.831 135.111 35.831C134.275 35.831 133.934 36.051 133.934 36.678V36.722H132.273V36.689C132.273 35.325 133.417 34.379 135.232 34.379C137.069 34.379 137.938 35.325 137.938 36.766V40H136.398V38.735H136.31C136.057 39.593 135.287 40.11 134.066 40.11ZM133.824 38.526C133.824 38.823 134.055 38.944 134.539 38.944C135.661 38.944 136.266 38.68 136.31 37.899L134.396 38.119C134 38.152 133.824 38.262 133.824 38.526ZM144.417 40H143.053C141.766 40 140.985 39.395 140.985 38.009V35.853H140.116V34.489H140.985V33.422H142.635V34.489H144.417V35.853H142.635V37.822C142.635 38.372 142.844 38.515 143.427 38.515H144.417V40ZM149.072 40.11C147.521 40.11 146.784 39.153 146.784 37.921V34.489H148.434V37.371C148.434 38.262 148.808 38.636 149.853 38.636C150.931 38.636 151.316 38.218 151.316 37.283V34.489H152.966V40H151.426V38.317H151.338C151.195 39.241 150.524 40.11 149.072 40.11ZM158.353 40.11C156.494 40.11 155.471 39.384 155.471 38.108V38.075H157.121V38.174C157.121 38.669 157.429 38.801 158.364 38.801C159.244 38.801 159.453 38.658 159.453 38.328C159.453 38.02 159.288 37.932 158.639 37.844L157.088 37.657C155.988 37.536 155.372 37.041 155.372 36.117C155.372 35.149 156.197 34.379 158.089 34.379C159.893 34.379 160.916 35.061 160.916 36.403V36.436H159.266V36.37C159.266 35.919 159.046 35.688 158.034 35.688C157.209 35.688 157 35.831 157 36.183C157 36.469 157.154 36.59 157.88 36.678L159.057 36.821C160.531 36.986 161.081 37.481 161.081 38.394C161.081 39.428 160.058 40.11 158.353 40.11Z" fill="#FCFCFC"/>
<rect x="32" y="59" width="368" height="51" rx="4" fill="#151515"/>
<path d="M80.585 81.5H79.613V75.47H82.745C84.113 75.47 84.959 76.118 84.959 77.243C84.959 78.242 84.302 78.854 83.168 78.917V78.98C83.636 79.106 83.852 79.376 84.068 79.754L85.076 81.5H83.96L82.997 79.835C82.727 79.358 82.448 79.16 81.692 79.16H80.585V81.5ZM80.585 76.343V78.413H82.736C83.546 78.413 83.951 78.134 83.951 77.378C83.951 76.64 83.546 76.343 82.736 76.343H80.585ZM91.9238 81.5H87.0998V75.47H91.9238V76.343H88.0718V78.035H91.7888V78.899H88.0718V80.627H91.9238V81.5ZM95.0929 81.5H94.1209V75.47H98.9179V76.343H95.0929V78.215H98.7829V79.079H95.0929V81.5ZM102.124 78.422H100.9V77.027H102.124V78.422ZM102.124 81.5H100.9V80.105H102.124V81.5ZM63.8831 90.268H61.0211V89.44H63.8831V90.268ZM68.7245 90.268H65.8625V89.44H68.7245V90.268ZM73.5658 90.268H70.7038V89.44H73.5658V90.268ZM78.4072 90.268H75.5452V89.44H78.4072V90.268ZM83.2486 90.268H80.3866V89.44H83.2486V90.268ZM88.09 90.268H85.228V89.44H88.09V90.268ZM92.9313 90.268H90.0693V89.44H92.9313V90.268ZM97.7727 90.268H94.9107V89.44H97.7727V90.268ZM102.614 90.268H99.7521V89.44H102.614V90.268ZM107.455 90.268H104.593V89.44H107.455V90.268ZM112.297 90.268H109.435V89.44H112.297V90.268ZM117.138 90.268H114.276V89.44H117.138V90.268ZM121.98 90.268H119.118V89.44H121.98V90.268Z" fill="#FCFCFC"/>
<path d="M151 71V98" stroke="#EFEFEF"/>
<rect x="167" y="71" width="217" height="27" rx="4" fill="#FFB72D"/>
<path d="M239.611 87H238.639V80.97H239.611V87ZM242.923 87H241.951V80.97H242.995L245.695 84.498L246.478 85.623H246.55L246.505 84.534V80.97H247.477V87H246.433L243.715 83.481L242.959 82.419H242.887L242.923 83.463V87ZM252.498 84.768H249.636V83.94H252.498V84.768ZM255.629 87H254.657V80.97H257.609C258.95 80.97 259.868 81.735 259.868 83.076C259.868 84.408 258.95 85.182 257.609 85.182H255.629V87ZM257.519 81.843H255.629V84.309H257.519C258.428 84.309 258.896 83.967 258.896 83.076C258.896 82.185 258.428 81.843 257.519 81.843ZM262.861 87H261.889V80.97H265.021C266.389 80.97 267.235 81.618 267.235 82.743C267.235 83.742 266.578 84.354 265.444 84.417V84.48C265.912 84.606 266.128 84.876 266.344 85.254L267.352 87H266.236L265.273 85.335C265.003 84.858 264.724 84.66 263.968 84.66H262.861V87ZM262.861 81.843V83.913H265.012C265.822 83.913 266.227 83.634 266.227 82.878C266.227 82.14 265.822 81.843 265.012 81.843H262.861ZM272.337 87.09C270.447 87.09 269.196 85.866 269.196 83.985C269.196 82.104 270.447 80.88 272.337 80.88C274.245 80.88 275.487 82.104 275.487 83.985C275.487 85.866 274.245 87.09 272.337 87.09ZM272.337 86.154C273.768 86.154 274.461 85.488 274.461 83.985C274.461 82.482 273.768 81.807 272.337 81.807C270.906 81.807 270.222 82.482 270.222 83.985C270.222 85.488 270.906 86.154 272.337 86.154ZM280.417 87.09C278.644 87.09 277.465 85.866 277.465 83.985C277.465 82.104 278.734 80.88 280.66 80.88C282.37 80.88 283.558 81.744 283.558 83.139V83.211H282.487V83.139C282.487 82.275 281.884 81.807 280.633 81.807C279.184 81.807 278.491 82.482 278.491 83.985C278.491 85.488 279.175 86.154 280.588 86.154C282.028 86.154 282.595 85.758 282.595 84.741V84.66H280.363V83.922H283.558V87H282.676V85.695H282.613C282.361 86.577 281.596 87.09 280.417 87.09ZM286.789 87H285.817V80.97H288.949C290.317 80.97 291.163 81.618 291.163 82.743C291.163 83.742 290.506 84.354 289.372 84.417V84.48C289.84 84.606 290.056 84.876 290.272 85.254L291.28 87H290.164L289.201 85.335C288.931 84.858 288.652 84.66 287.896 84.66H286.789V87ZM286.789 81.843V83.913H288.94C289.75 83.913 290.155 83.634 290.155 82.878C290.155 82.14 289.75 81.843 288.94 81.843H286.789ZM298.128 87H293.304V80.97H298.128V81.843H294.276V83.535H297.993V84.399H294.276V86.127H298.128V87ZM302.854 87.09C301.054 87.09 300.136 86.298 300.136 85.029V84.975H301.108V85.119C301.108 85.839 301.531 86.199 302.854 86.199C304.006 86.199 304.411 85.947 304.411 85.38C304.411 84.858 304.105 84.66 303.34 84.516L301.864 84.273C300.847 84.093 300.127 83.625 300.127 82.635C300.127 81.762 300.847 80.88 302.719 80.88C304.483 80.88 305.284 81.762 305.284 82.941V82.995H304.321V82.878C304.321 82.14 303.88 81.771 302.629 81.771C301.531 81.771 301.099 82.041 301.099 82.581C301.099 83.103 301.405 83.274 302.116 83.427L303.583 83.679C304.789 83.895 305.383 84.444 305.383 85.326C305.383 86.244 304.636 87.09 302.854 87.09ZM310.042 87.09C308.242 87.09 307.324 86.298 307.324 85.029V84.975H308.296V85.119C308.296 85.839 308.719 86.199 310.042 86.199C311.194 86.199 311.599 85.947 311.599 85.38C311.599 84.858 311.293 84.66 310.528 84.516L309.052 84.273C308.035 84.093 307.315 83.625 307.315 82.635C307.315 81.762 308.035 80.88 309.907 80.88C311.671 80.88 312.472 81.762 312.472 82.941V82.995H311.509V82.878C311.509 82.14 311.068 81.771 309.817 81.771C308.719 81.771 308.287 82.041 308.287 82.581C308.287 83.103 308.593 83.274 309.304 83.427L310.771 83.679C311.977 83.895 312.571 84.444 312.571 85.326C312.571 86.244 311.824 87.09 310.042 87.09Z" fill="#FCFCFC"/>
<rect x="33" y="60" width="366" height="49" rx="3" stroke="url(#paint0_linear_1271_65397)" stroke-opacity="0.24" stroke-width="2"/>
<rect x="33" y="60" width="366" height="49" rx="3" stroke="url(#paint1_linear_1271_65397)" stroke-opacity="0.24" stroke-width="2"/>
</g>
<rect x="18.4" y="18.4" width="395.2" height="113.2" stroke="url(#paint2_linear_1271_65397)" stroke-opacity="0.24" stroke-width="4.8"/>
<rect x="18.4" y="18.4" width="395.2" height="113.2" stroke="url(#paint3_linear_1271_65397)" stroke-opacity="0.24" stroke-width="4.8"/>
</g>
<defs>
<filter id="filter0_bd_1271_65397" x="-0.659111" y="-0.659111" width="433.318" height="151.318" filterUnits="userSpaceOnUse" color-interpolation-filters="sRGB">
<feFlood flood-opacity="0" result="BackgroundImageFix"/>
<feGaussianBlur in="BackgroundImageFix" stdDeviation="8.32956"/>
<feComposite in2="SourceAlpha" operator="in" result="effect1_backgroundBlur_1271_65397"/>
<feColorMatrix in="SourceAlpha" type="matrix" values="0 0 0 0 0 0 0 0 0 0 0 0 0 0 0 0 0 0 127 0" result="hardAlpha"/>
<feOffset/>
<feGaussianBlur stdDeviation="8"/>
<feComposite in2="hardAlpha" operator="out"/>
<feColorMatrix type="matrix" values="0 0 0 0 0.9 0 0 0 0 0.8595 0 0 0 0 0.79875 0 0 0 0.08 0"/>
<feBlend mode="normal" in2="effect1_backgroundBlur_1271_65397" result="effect2_dropShadow_1271_65397"/>
<feBlend mode="normal" in="SourceGraphic" in2="effect2_dropShadow_1271_65397" result="shape"/>
</filter>
<linearGradient id="paint0_linear_1271_65397" x1="32.5676" y1="59.0565" x2="128.283" y2="147.93" gradientUnits="userSpaceOnUse">
<stop stop-color="white"/>
<stop offset="1" stop-color="white" stop-opacity="0"/>
</linearGradient>
<linearGradient id="paint1_linear_1271_65397" x1="399.372" y1="109.598" x2="337.091" y2="53.8551" gradientUnits="userSpaceOnUse">
<stop stop-color="white"/>
<stop offset="1" stop-color="white" stop-opacity="0"/>
</linearGradient>
<linearGradient id="paint2_linear_1271_65397" x1="16" y1="16" x2="45.7778" y2="112.9" gradientUnits="userSpaceOnUse">
<stop stop-color="white"/>
<stop offset="1" stop-color="white" stop-opacity="0"/>
</linearGradient>
<linearGradient id="paint3_linear_1271_65397" x1="416" y1="134" x2="375.912" y2="49.1591" gradientUnits="userSpaceOnUse">
<stop stop-color="white"/>
<stop offset="1" stop-color="white" stop-opacity="0"/>
</linearGradient>
<clipPath id="clip0_1271_65397">
<rect x="16" y="16" width="400" height="118" fill="white"/>
</clipPath>
</defs>
</svg>
