<svg width="400" height="137" viewBox="0 0 400 137" fill="none" xmlns="http://www.w3.org/2000/svg">
<g filter="url(#filter0_b_1271_65349)">
<rect width="400" height="137" fill="white" fill-opacity="0.08"/>
<g clip-path="url(#clip0_1271_65349)">
<rect x="15.965" y="16.6592" width="368.07" height="103.682" rx="3.84007" fill="url(#paint0_linear_1271_65349)"/>
<rect x="31.3253" y="32.0195" width="337.35" height="95.4815" rx="3.84007" fill="#3D3D3D"/>
<path d="M49.326 49.7083C48.7472 49.7083 48.2633 49.3022 48.2633 48.6456C48.2633 47.9889 48.7472 47.5829 49.326 47.5829C49.9049 47.5829 50.3888 47.9889 50.3888 48.6456C50.3888 49.3022 49.9049 49.7083 49.326 49.7083ZM57.1709 51.54H56.2377V45.7511H59.0717C60.3591 45.7511 61.2404 46.4856 61.2404 47.7729C61.2404 49.0517 60.3591 49.7947 59.0717 49.7947H57.1709V51.54ZM58.9853 46.5892H57.1709V48.9566H58.9853C59.8579 48.9566 60.3072 48.6283 60.3072 47.7729C60.3072 46.9176 59.8579 46.5892 58.9853 46.5892ZM63.7854 51.54H62.7485L65.332 45.7511H66.6453L69.2287 51.54H68.1746L67.5093 50.0367H64.4507L63.7854 51.54ZM65.6084 47.436L64.8222 49.1986H67.1377L66.3515 47.436L66.0145 46.6152H65.9454L65.6084 47.436ZM73.471 51.6264C71.7429 51.6264 70.8616 50.8661 70.8616 49.6478V49.596H71.7948V49.7342C71.7948 50.4255 72.2009 50.7711 73.471 50.7711C74.5769 50.7711 74.9657 50.5291 74.9657 49.9848C74.9657 49.4837 74.672 49.2936 73.9375 49.1554L72.5206 48.9221C71.5442 48.7493 70.853 48.3 70.853 47.3496C70.853 46.5115 71.5442 45.6647 73.3414 45.6647C75.0348 45.6647 75.8038 46.5115 75.8038 47.6433V47.6952H74.8793V47.5829C74.8793 46.8744 74.4559 46.5201 73.255 46.5201C72.2009 46.5201 71.7861 46.7793 71.7861 47.2977C71.7861 47.7989 72.0799 47.963 72.7625 48.1099L74.1708 48.3518C75.3286 48.5592 75.8989 49.0862 75.8989 49.933C75.8989 50.8143 75.1817 51.6264 73.471 51.6264ZM80.8209 51.54H79.8964V46.5892H77.6154V45.7511H83.0933V46.5892H80.8209V51.54ZM89.6527 51.54H85.0216V45.7511H89.6527V46.5892H85.9547V48.2136H89.5231V49.043H85.9547V50.7019H89.6527V51.54ZM97.5931 51.54H96.6686V49.5442L94.1284 45.7511H95.2689L96.6341 47.8075L97.1179 48.5419H97.187L97.6622 47.8075L99.0187 45.7511H100.168L97.5931 49.5614V51.54ZM104.752 51.6264C102.938 51.6264 101.737 50.4514 101.737 48.6456C101.737 46.8398 102.938 45.6647 104.752 45.6647C106.584 45.6647 107.776 46.8398 107.776 48.6456C107.776 50.4514 106.584 51.6264 104.752 51.6264ZM104.752 50.7279C106.126 50.7279 106.791 50.0885 106.791 48.6456C106.791 47.2027 106.126 46.5547 104.752 46.5547C103.379 46.5547 102.722 47.2027 102.722 48.6456C102.722 50.0885 103.379 50.7279 104.752 50.7279ZM112.527 51.6264C110.799 51.6264 109.814 50.7106 109.814 49.1381V45.7511H110.738V49.0776C110.738 50.244 111.257 50.7279 112.527 50.7279C113.797 50.7279 114.315 50.244 114.315 49.0776V45.7511H115.248V49.1381C115.248 50.7106 114.263 51.6264 112.527 51.6264ZM118.391 51.54H117.458V45.7511H120.464C121.778 45.7511 122.59 46.3732 122.59 47.4532C122.59 48.4123 121.959 48.9998 120.87 49.0603V49.1208C121.32 49.2418 121.527 49.501 121.734 49.8639L122.702 51.54H121.631L120.706 49.9416C120.447 49.4837 120.179 49.2936 119.453 49.2936H118.391V51.54ZM118.391 46.5892V48.5765H120.456C121.233 48.5765 121.622 48.3086 121.622 47.5829C121.622 46.8744 121.233 46.5892 120.456 46.5892H118.391ZM128.109 51.54H127.072L129.656 45.7511H130.969L133.552 51.54H132.498L131.833 50.0367H128.774L128.109 51.54ZM129.932 47.436L129.146 49.1986H131.461L130.675 47.436L130.338 46.6152H130.269L129.932 47.436ZM138.045 51.6264C136.317 51.6264 135.332 50.7106 135.332 49.1381V45.7511H136.257V49.0776C136.257 50.244 136.775 50.7279 138.045 50.7279C139.315 50.7279 139.834 50.244 139.834 49.0776V45.7511H140.767V49.1381C140.767 50.7106 139.782 51.6264 138.045 51.6264ZM145.663 51.54H143.028V45.7511H145.663C147.46 45.7511 148.592 46.8571 148.592 48.6456C148.592 50.4341 147.46 51.54 145.663 51.54ZM145.663 46.5892H143.952V50.7019H145.663C147.002 50.7019 147.607 50.1317 147.607 48.6456C147.607 47.1595 147.002 46.5892 145.663 46.5892ZM151.603 51.54H150.67V45.7511H151.603V51.54ZM156.727 51.54H155.802V46.5892H153.521V45.7511H158.999V46.5892H156.727V51.54ZM161.86 51.54H160.927V45.7511H161.86V51.54ZM166.95 51.6264C165.135 51.6264 163.934 50.4514 163.934 48.6456C163.934 46.8398 165.135 45.6647 166.95 45.6647C168.781 45.6647 169.974 46.8398 169.974 48.6456C169.974 50.4514 168.781 51.6264 166.95 51.6264ZM166.95 50.7279C168.323 50.7279 168.989 50.0885 168.989 48.6456C168.989 47.2027 168.323 46.5547 166.95 46.5547C165.576 46.5547 164.919 47.2027 164.919 48.6456C164.919 50.0885 165.576 50.7279 166.95 50.7279ZM172.979 51.54H172.045V45.7511H173.048L175.64 49.1381L176.391 50.2181H176.461L176.417 49.1726V45.7511H177.35V51.54H176.348L173.739 48.1617L173.013 47.1422H172.944L172.979 48.1445V51.54ZM185.773 51.54H184.451L181.98 45.7511H183.086L185.09 50.5983H185.159L187.146 45.7511H188.244L185.773 51.54ZM190.955 51.54H190.022V45.7511H190.955V51.54ZM195.889 51.54H193.253V45.7511H195.889C197.686 45.7511 198.818 46.8571 198.818 48.6456C198.818 50.4341 197.686 51.54 195.889 51.54ZM195.889 46.5892H194.178V50.7019H195.889C197.228 50.7019 197.833 50.1317 197.833 48.6456C197.833 47.1595 197.228 46.5892 195.889 46.5892ZM205.527 51.54H200.895V45.7511H205.527V46.5892H201.829V48.2136H205.397V49.043H201.829V50.7019H205.527V51.54ZM210.478 51.6264C208.664 51.6264 207.463 50.4514 207.463 48.6456C207.463 46.8398 208.664 45.6647 210.478 45.6647C212.31 45.6647 213.502 46.8398 213.502 48.6456C213.502 50.4514 212.31 51.6264 210.478 51.6264ZM210.478 50.7279C211.852 50.7279 212.517 50.0885 212.517 48.6456C212.517 47.2027 211.852 46.5547 210.478 46.5547C209.105 46.5547 208.448 47.2027 208.448 48.6456C208.448 50.0885 209.105 50.7279 210.478 50.7279ZM222.935 51.54H218.433V45.7511H219.366V50.7019H222.935V51.54ZM225.854 51.54H224.92V45.7511H225.854V51.54ZM229.033 51.54H228.1V45.7511H229.102L231.694 49.1381L232.446 50.2181H232.515L232.472 49.1726V45.7511H233.405V51.54H232.403L229.794 48.1617L229.068 47.1422H228.999L229.033 48.1445V51.54ZM236.584 51.54H235.65V45.7511H236.584V48.2222H238.338L240.031 45.7511H241.137L239.115 48.611L241.128 51.54H240.022L238.355 49.1208H236.584V51.54Z" fill="#FCFCFC"/>
<rect x="42.8455" y="69.9004" width="314.309" height="46.0808" rx="3.84007" fill="#151515"/>
<g clip-path="url(#clip1_1271_65349)">
<path d="M53.7258 98.0612C53.3738 98.0612 53.0725 97.9359 52.8218 97.6852C52.5711 97.4345 52.4458 97.1332 52.4458 96.7812V87.821C52.4458 87.469 52.5711 87.1677 52.8218 86.917C53.0725 86.6664 53.3738 86.541 53.7258 86.541H62.686C63.038 86.541 63.3393 86.6664 63.59 86.917C63.8406 87.1677 63.966 87.469 63.966 87.821V92.3651C63.8593 92.3438 63.7553 92.3278 63.654 92.3171C63.5526 92.3064 63.4433 92.3011 63.326 92.3011H62.686V87.821H53.7258V96.7812H55.7098C55.7525 97.0159 55.8085 97.2399 55.8778 97.4532C55.9472 97.6665 56.0405 97.8692 56.1578 98.0612H53.7258ZM53.7258 96.1412V96.7812V87.821V96.1412ZM55.0058 95.5012H55.7098C55.7952 94.9785 55.9818 94.4958 56.2699 94.0531C56.5579 93.6105 56.9259 93.2398 57.3739 92.9411H55.0058V95.5012ZM55.0058 91.6611H57.5659V89.1011H55.0058V91.6611ZM59.4859 98.7012C58.7819 98.7012 58.1792 98.4506 57.6779 97.9492C57.1765 97.4479 56.9259 96.8452 56.9259 96.1412C56.9259 95.4372 57.1765 94.8345 57.6779 94.3331C58.1792 93.8318 58.7819 93.5811 59.4859 93.5811H60.1259C60.3073 93.5811 60.4593 93.6425 60.5819 93.7651C60.7046 93.8878 60.7659 94.0398 60.7659 94.2211C60.7659 94.4025 60.7046 94.5545 60.5819 94.6772C60.4593 94.7998 60.3073 94.8612 60.1259 94.8612H59.4859C59.1339 94.8612 58.8326 94.9865 58.5819 95.2372C58.3312 95.4878 58.2059 95.7892 58.2059 96.1412C58.2059 96.4932 58.3312 96.7945 58.5819 97.0452C58.8326 97.2959 59.1339 97.4212 59.4859 97.4212H60.1259C60.3073 97.4212 60.4593 97.4825 60.5819 97.6052C60.7046 97.7279 60.7659 97.8799 60.7659 98.0612C60.7659 98.2425 60.7046 98.3946 60.5819 98.5172C60.4593 98.6399 60.3073 98.7012 60.1259 98.7012H59.4859ZM58.8459 91.6611H61.4059V89.1011H58.8459V91.6611ZM60.1259 96.7812C59.9446 96.7812 59.7926 96.7199 59.6699 96.5972C59.5472 96.4745 59.4859 96.3225 59.4859 96.1412C59.4859 95.9598 59.5472 95.8078 59.6699 95.6852C59.7926 95.5625 59.9446 95.5012 60.1259 95.5012H62.686C62.8673 95.5012 63.0193 95.5625 63.142 95.6852C63.2646 95.8078 63.326 95.9598 63.326 96.1412C63.326 96.3225 63.2646 96.4745 63.142 96.5972C63.0193 96.7199 62.8673 96.7812 62.686 96.7812H60.1259ZM63.326 98.7012H62.686C62.5046 98.7012 62.3526 98.6399 62.23 98.5172C62.1073 98.3946 62.0459 98.2425 62.0459 98.0612C62.0459 97.8799 62.1073 97.7279 62.23 97.6052C62.3526 97.4825 62.5046 97.4212 62.686 97.4212H63.326C63.678 97.4212 63.9793 97.2959 64.23 97.0452C64.4807 96.7945 64.606 96.4932 64.606 96.1412C64.606 95.7892 64.4807 95.4878 64.23 95.2372C63.9793 94.9865 63.678 94.8612 63.326 94.8612H62.686C62.5046 94.8612 62.3526 94.7998 62.23 94.6772C62.1073 94.5545 62.0459 94.4025 62.0459 94.2211C62.0459 94.0398 62.1073 93.8878 62.23 93.7651C62.3526 93.6425 62.5046 93.5811 62.686 93.5811H63.326C64.03 93.5811 64.6327 93.8291 65.134 94.3251C65.6353 94.8212 65.886 95.4265 65.886 96.1412C65.886 96.8452 65.6353 97.4479 65.134 97.9492C64.6327 98.4506 64.03 98.7012 63.326 98.7012Z" fill="#FCFCFC"/>
</g>
<path d="M75.5379 96.4404H74.19V88.0787H78.2835C80.1431 88.0787 81.4161 89.1395 81.4161 90.9991C81.4161 92.8461 80.1431 93.9194 78.2835 93.9194H75.5379V96.4404ZM78.1587 89.2893H75.5379V92.7088H78.1587C79.4192 92.7088 80.0682 92.2346 80.0682 90.9991C80.0682 89.7635 79.4192 89.2893 78.1587 89.2893ZM83.7942 96.5652C82.5088 96.5652 81.6976 95.9662 81.6976 94.9428C81.6976 93.9818 82.4713 93.4826 83.6944 93.3453L86.5149 93.0458V92.6839C86.5149 91.6605 86.0656 91.2986 84.88 91.2986C83.7318 91.2986 83.1702 91.673 83.1702 92.584V92.634H81.8349V92.584C81.8349 91.1738 83.008 90.113 84.9799 90.113C86.9517 90.113 87.8378 91.1863 87.8378 92.6714V96.4404H86.6023V94.8929H86.5149C86.1904 95.9412 85.2045 96.5652 83.7942 96.5652ZM83.0454 94.8554C83.0454 95.3547 83.3824 95.5918 84.1562 95.5918C85.5664 95.5918 86.5149 95.0676 86.5149 93.8445L84.0813 94.1191C83.3824 94.2065 83.0454 94.3687 83.0454 94.8554ZM91.7243 96.5652C89.7274 96.5652 88.5917 95.779 88.5917 94.3438V94.3063H89.9396V94.4062C89.9396 95.2174 90.4263 95.4795 91.7243 95.4795C92.9348 95.4795 93.2968 95.2298 93.2968 94.6807C93.2968 94.169 92.9972 94.0068 92.1111 93.882L90.4138 93.6573C89.2407 93.5076 88.5293 93.0084 88.5293 91.9725C88.5293 90.8867 89.5153 90.113 91.4247 90.113C93.3217 90.113 94.4699 90.8743 94.4699 92.3469V92.3844H93.1345V92.3095C93.1345 91.5731 92.7601 91.1863 91.3873 91.1863C90.2516 91.1863 89.8522 91.4359 89.8522 92.0224C89.8522 92.5092 90.1018 92.6839 91.0378 92.8087L92.4731 93.0084C93.9457 93.1956 94.6197 93.6948 94.6197 94.7182C94.6197 95.8788 93.4715 96.5652 91.7243 96.5652ZM99.4111 96.4404H97.9883C96.653 96.4404 95.8293 95.8539 95.8293 94.3438V91.361H94.7809V90.2378H95.8293V88.8774H97.1646V90.2378H99.4111V91.361H97.1646V94.2689C97.1646 95.0302 97.5141 95.2298 98.2879 95.2298H99.4111V96.4404ZM103.125 96.5652C101.09 96.5652 99.755 95.4171 99.755 93.3453C99.755 91.4109 101.078 90.113 103.1 90.113C105.022 90.113 106.332 91.1738 106.332 93.0583C106.332 93.2829 106.32 93.4577 106.282 93.6449H101.015C101.065 94.843 101.652 95.4795 103.087 95.4795C104.385 95.4795 104.922 95.0551 104.922 94.3188V94.219H106.27V94.3313C106.27 95.6542 104.972 96.5652 103.125 96.5652ZM103.075 91.1738C101.702 91.1738 101.103 91.7853 101.028 92.896H105.059V92.8711C105.059 91.7229 104.398 91.1738 103.075 91.1738ZM109.974 98.5621H109.088V97.339H110.298C110.847 97.339 111.072 97.1892 111.259 96.7649L111.409 96.4404L108.351 90.2378H109.861L111.446 93.5325L112.058 95.0177H112.158L112.744 93.5201L114.204 90.2378H115.69L112.457 97.1144C111.946 98.2251 111.247 98.5621 109.974 98.5621ZM119.269 96.5652C117.21 96.5652 115.825 95.2548 115.825 93.3453C115.825 91.4109 117.21 90.113 119.269 90.113C121.341 90.113 122.726 91.4109 122.726 93.3453C122.726 95.2548 121.341 96.5652 119.269 96.5652ZM119.269 95.3671C120.779 95.3671 121.403 94.6558 121.403 93.3453C121.403 92.0224 120.779 91.2986 119.269 91.2986C117.772 91.2986 117.148 92.0224 117.148 93.3453C117.148 94.6558 117.772 95.3671 119.269 95.3671ZM126.038 96.5652C124.291 96.5652 123.442 95.4046 123.442 93.9693V90.2378H124.778V93.6074C124.778 94.7681 125.314 95.3547 126.625 95.3547C127.998 95.3547 128.634 94.6558 128.634 93.3079V90.2378H129.969V96.4404H128.734V94.5185H128.659C128.459 95.5668 127.636 96.5652 126.038 96.5652ZM132.292 96.4404H130.944V90.2378H132.18V91.9101H132.267C132.454 90.9117 133.128 90.113 134.401 90.113C135.812 90.113 136.423 91.1239 136.423 92.297V93.1082H135.088V92.5591C135.088 91.673 134.713 91.2611 133.79 91.2611C132.729 91.2611 132.292 91.8477 132.292 92.9584V96.4404ZM140.251 96.4404H138.903V88.0787H140.251V96.4404ZM142.598 89.5139H141.25V88.0787H142.598V89.5139ZM142.598 96.4404H141.25V90.2378H142.598V96.4404ZM144.944 96.4404H143.596V90.2378H144.832V92.1597H144.919C145.106 91.1114 145.93 90.113 147.502 90.113C149.225 90.113 150.073 91.2736 150.073 92.7088V96.4404H148.725V93.0708C148.725 91.9101 148.201 91.3235 146.916 91.3235C145.556 91.3235 144.944 92.0224 144.944 93.3703V96.4404ZM152.373 96.4404H151.025V88.0787H152.373V92.6964H154.145L156.004 90.2378H157.577L155.243 93.2205L157.564 96.4404H155.979L154.145 93.9069H152.373V96.4404Z" fill="#FCFCFC"/>
<rect x="43.6758" y="70.7307" width="312.648" height="44.4202" rx="3.00976" stroke="url(#paint1_linear_1271_65349)" stroke-opacity="0.24" stroke-width="1.66061"/>
<rect x="43.6758" y="70.7307" width="312.648" height="44.4202" rx="3.00976" stroke="url(#paint2_linear_1271_65349)" stroke-opacity="0.24" stroke-width="1.66061"/>
</g>
<rect x="1.99273" y="1.99273" width="396.015" height="133.015" stroke="url(#paint3_linear_1271_65349)" stroke-opacity="0.24" stroke-width="3.98545"/>
<rect x="1.99273" y="1.99273" width="396.015" height="133.015" stroke="url(#paint4_linear_1271_65349)" stroke-opacity="0.24" stroke-width="3.98545"/>
</g>
<defs>
<filter id="filter0_b_1271_65349" x="-16.6591" y="-16.6591" width="433.318" height="170.318" filterUnits="userSpaceOnUse" color-interpolation-filters="sRGB">
<feFlood flood-opacity="0" result="BackgroundImageFix"/>
<feGaussianBlur in="BackgroundImageFix" stdDeviation="8.32956"/>
<feComposite in2="SourceAlpha" operator="in" result="effect1_backgroundBlur_1271_65349"/>
<feBlend mode="normal" in="SourceGraphic" in2="effect1_backgroundBlur_1271_65349" result="shape"/>
</filter>
<linearGradient id="paint0_linear_1271_65349" x1="200" y1="16.6592" x2="200.261" y2="68.9168" gradientUnits="userSpaceOnUse">
<stop offset="0.869792" stop-color="#292929"/>
<stop offset="1" stop-color="#292929" stop-opacity="0"/>
</linearGradient>
<linearGradient id="paint1_linear_1271_65349" x1="43.3303" y1="69.9515" x2="129.319" y2="145.424" gradientUnits="userSpaceOnUse">
<stop stop-color="white"/>
<stop offset="1" stop-color="white" stop-opacity="0"/>
</linearGradient>
<linearGradient id="paint2_linear_1271_65349" x1="356.618" y1="115.618" x2="300.781" y2="68.3765" gradientUnits="userSpaceOnUse">
<stop stop-color="white"/>
<stop offset="1" stop-color="white" stop-opacity="0"/>
</linearGradient>
<linearGradient id="paint3_linear_1271_65349" x1="0" y1="0" x2="38.9693" y2="109.223" gradientUnits="userSpaceOnUse">
<stop stop-color="white"/>
<stop offset="1" stop-color="white" stop-opacity="0"/>
</linearGradient>
<linearGradient id="paint4_linear_1271_65349" x1="400" y1="137" x2="349.189" y2="44.3805" gradientUnits="userSpaceOnUse">
<stop stop-color="white"/>
<stop offset="1" stop-color="white" stop-opacity="0"/>
</linearGradient>
<clipPath id="clip0_1271_65349">
<rect x="15.965" y="16.6592" width="368.07" height="103.682" rx="3.84007" fill="white"/>
</clipPath>
<clipPath id="clip1_1271_65349">
<rect width="15.3603" height="15.3603" fill="white" transform="translate(50.5256 85.2607)"/>
</clipPath>
</defs>
</svg>
