<svg width="273" height="135" viewBox="0 0 273 135" fill="none" xmlns="http://www.w3.org/2000/svg">
<path d="M1.39735 79.0269C15.2502 142.847 250.207 150.645 269.267 96.7772C299.304 11.8854 88.9093 -15.3302 54.2967 8.28374C53.0148 9.15833 52.8659 11.1472 53.8598 10.8813C140.807 -12.3783 283.969 35.635 261.102 95.4037C238.806 140.114 -2.27324 134.23 7.68753 69.1826C14.2459 26.3541 126.411 3.84304 200.495 29.4973C202.864 29.3507 201.459 26.7307 199.042 25.8186C119.589 -1.6256 -7.051 18.9396 1.39735 79.0269Z" fill="#FCFCFC"/>
<path d="M77.4206 69H65.6326V50.24H76.8886C80.7246 50.24 82.7966 51.864 82.7966 54.804C82.7966 57.128 81.5646 58.808 78.4286 59.032V59.284C81.9006 59.536 83.5806 61.272 83.5806 63.792C83.5806 66.984 81.6206 69 77.4206 69ZM69.8326 54.02V57.688H76.4126C77.9526 57.688 78.5966 57.156 78.5966 55.868C78.5966 54.58 77.9246 54.02 76.3566 54.02H69.8326ZM69.8326 61.16V65.22H76.9166C78.6246 65.22 79.3246 64.688 79.3246 63.176C79.3246 61.692 78.6246 61.16 76.9166 61.16H69.8326ZM91.4867 69.28C86.6707 69.28 83.5907 66.424 83.5907 62C83.5907 57.52 86.6707 54.692 91.4867 54.692C95.9947 54.692 99.0747 57.1 99.0747 60.74V61.132H94.9027V60.908C94.9027 59.116 93.5867 58.472 91.4027 58.472C88.9107 58.472 87.7627 59.396 87.7627 62C87.7627 64.576 88.9107 65.5 91.4027 65.5C93.5867 65.5 94.9027 64.856 94.9027 63.064V62.84H99.0747V63.232C99.0747 66.844 95.9947 69.28 91.4867 69.28ZM107.238 69.28C102.45 69.28 99.2298 66.424 99.2298 62C99.2298 57.52 102.45 54.692 107.238 54.692C112.026 54.692 115.246 57.52 115.246 62C115.246 66.424 112.026 69.28 107.238 69.28ZM107.238 65.556C110.066 65.556 111.074 64.464 111.074 62C111.074 59.536 110.066 58.388 107.238 58.388C104.382 58.388 103.402 59.536 103.402 62C103.402 64.464 104.382 65.556 107.238 65.556ZM120.041 69H115.841V54.972H119.733V59.228H119.957C120.293 56.876 121.693 54.692 125.221 54.692C128.469 54.692 130.121 56.68 130.429 59.284H130.681C131.017 56.904 132.445 54.692 136.057 54.692C139.669 54.692 141.433 57.072 141.433 60.264V69H137.233V61.664C137.233 59.34 136.421 58.472 134.013 58.472C131.465 58.472 130.737 59.48 130.737 61.916V69H126.537V61.664C126.537 59.34 125.725 58.472 123.317 58.472C120.769 58.472 120.041 59.48 120.041 61.916V69ZM149.896 69.28C145.22 69.28 142.028 66.984 142.028 62C142.028 57.52 145.192 54.692 149.812 54.692C154.404 54.692 157.456 57.1 157.456 61.496C157.456 62 157.4 62.364 157.344 62.84H145.92C146.032 64.996 147.04 65.92 149.756 65.92C152.248 65.92 153.116 65.276 153.116 64.072V63.792H157.316V64.1C157.316 67.152 154.348 69.28 149.896 69.28ZM149.728 57.968C147.236 57.968 146.172 58.808 145.976 60.628H153.424C153.312 58.78 152.192 57.968 149.728 57.968ZM171.761 69H167.561V54.02H160.589V50.24H178.733V54.02H171.761V69ZM183.319 69H179.119V50.24H183.319V59.256H183.543C183.991 56.876 185.643 54.692 189.227 54.692C193.007 54.692 194.855 57.156 194.855 60.404V69H190.655V61.664C190.655 59.312 189.647 58.472 187.015 58.472C184.187 58.472 183.319 59.62 183.319 61.972V69ZM203.302 69.28C198.626 69.28 195.434 66.984 195.434 62C195.434 57.52 198.598 54.692 203.218 54.692C207.81 54.692 210.862 57.1 210.862 61.496C210.862 62 210.806 62.364 210.75 62.84H199.326C199.438 64.996 200.446 65.92 203.162 65.92C205.654 65.92 206.522 65.276 206.522 64.072V63.792H210.722V64.1C210.722 67.152 207.754 69.28 203.302 69.28ZM203.134 57.968C200.642 57.968 199.578 58.808 199.382 60.628H206.83C206.718 58.78 205.598 57.968 203.134 57.968ZM81.5383 103H77.3383V84.24H81.8183L88.5383 93.116L91.1143 97.064H91.4223L91.2263 93.284V84.24H95.4263V103H90.9463L84.0303 94.04L81.6503 90.512H81.3703L81.5383 93.956V103ZM103.983 103.28C99.3067 103.28 96.1147 100.984 96.1147 96C96.1147 91.52 99.2787 88.692 103.899 88.692C108.491 88.692 111.543 91.1 111.543 95.496C111.543 96 111.487 96.364 111.431 96.84H100.007C100.119 98.996 101.127 99.92 103.843 99.92C106.335 99.92 107.203 99.276 107.203 98.072V97.792H111.403V98.1C111.403 101.152 108.435 103.28 103.983 103.28ZM103.815 91.968C101.323 91.968 100.259 92.808 100.063 94.628H107.511C107.399 92.78 106.279 91.968 103.815 91.968ZM116.04 103H110.972L116.572 96.14V95.916L110.972 88.972H116.096L119.82 93.704H120.044L123.656 88.972H128.724L123.124 95.832V96.084L128.724 103H123.6L119.876 98.296H119.652L116.04 103ZM138.495 103H135.023C131.747 103 129.759 101.46 129.759 97.932V92.444H127.547V88.972H129.759V86.256H133.959V88.972H138.495V92.444H133.959V97.456C133.959 98.856 134.491 99.22 135.975 99.22H138.495V103ZM150.66 103.28C144.976 103.28 141.784 101.04 141.784 96.672V96.504H145.984V97.008C145.984 98.744 146.852 99.444 150.66 99.444C154.02 99.444 154.804 98.94 154.804 97.68C154.804 96.532 154.16 96.112 152.228 95.776L146.964 95.02C143.604 94.488 141.616 92.808 141.616 89.756C141.616 86.928 143.912 83.96 150.212 83.96C155.98 83.96 158.668 86.62 158.668 90.568V90.736H154.44V90.344C154.44 88.552 153.516 87.796 149.792 87.796C146.768 87.796 145.844 88.384 145.844 89.588C145.844 90.68 146.46 91.072 148.028 91.352L153.292 92.192C157.492 92.864 159.004 94.908 159.004 97.484C159.004 100.536 156.624 103.28 150.66 103.28ZM169.479 103H166.007C162.731 103 160.743 101.46 160.743 97.932V92.444H158.531V88.972H160.743V86.256H164.943V88.972H169.479V92.444H164.943V97.456C164.943 98.856 165.475 99.22 166.959 99.22H169.479V103ZM174.244 103.28C171.22 103.28 169.4 101.88 169.4 99.528C169.4 97.456 170.94 96.168 173.936 95.86L179.956 95.244V94.712C179.956 92.892 179.144 92.388 176.904 92.388C174.776 92.388 173.908 92.948 173.908 94.544V94.656H169.68V94.572C169.68 91.1 172.592 88.692 177.212 88.692C181.888 88.692 184.1 91.1 184.1 94.768V103H180.18V99.78H179.956C179.312 101.964 177.352 103.28 174.244 103.28ZM173.628 99.248C173.628 100.004 174.216 100.312 175.448 100.312C178.304 100.312 179.844 99.64 179.956 97.652L175.084 98.212C174.076 98.296 173.628 98.576 173.628 99.248ZM189.309 103H185.109V88.972H189.001V92.696H189.253C189.645 90.428 191.129 88.692 193.957 88.692C197.093 88.692 198.381 90.848 198.381 93.592V95.916H194.181V94.46C194.181 92.92 193.565 92.248 191.857 92.248C189.981 92.248 189.309 93.116 189.309 94.88V103Z" fill="white"/>
</svg>
