<svg width="271" height="56" viewBox="0 0 271 56" fill="none" xmlns="http://www.w3.org/2000/svg">
<rect x="21" y="15" width="218" height="27" rx="13.5" fill="url(#paint0_linear_1177_5831)" fill-opacity="0.08"/>
<g filter="url(#filter0_f_1177_5831)">
<rect x="32.6858" y="19.8247" width="26.0838" height="6.37461" transform="rotate(23.2404 32.6858 19.8247)" fill="white" fill-opacity="0.22"/>
</g>
<g filter="url(#filter1_f_1177_5831)">
<rect x="216" y="34" width="35.6541" height="5.18502" transform="rotate(-15.2975 216 34)" fill="white" fill-opacity="0.24"/>
</g>
<g filter="url(#filter2_f_1177_5831)">
<rect x="146.258" y="20.793" width="18.2909" height="30.2283" transform="rotate(99.4423 146.258 20.793)" fill="white" fill-opacity="0.16"/>
</g>
<g filter="url(#filter3_b_1177_5831)">
<rect x="21" y="15" width="250" height="27" rx="13.5" fill="white" fill-opacity="0.04"/>
<rect x="21" y="15" width="250" height="27" rx="13.5" fill="url(#paint1_linear_1177_5831)" fill-opacity="0.72"/>
<path d="M66.6486 22.948V24.587H64.9106V31H63.0516V24.587H61.3136V22.948H66.6486ZM71.2829 22.948H73.1309V31H71.2829V29.24H69.1599V31H67.3119V22.948H69.1599V27.645H71.2829V22.948ZM79.0869 24.532H76.3149V26.094H78.6029V27.678H76.3149V29.405H79.0869V31H74.4559V22.948H75.0279H76.3149H79.0869V24.532ZM87.4121 30.989L87.1811 30.109H84.3761L84.1451 30.989H82.2201L84.3871 22.948H87.1701L89.3371 30.989H87.4121ZM84.8051 28.536H86.7521L85.7731 24.906L84.8051 28.536ZM95.9065 26.82C95.9065 27.15 95.8405 27.4653 95.7085 27.766C95.5839 28.0667 95.4042 28.3307 95.1695 28.558C94.9349 28.778 94.6525 28.9503 94.3225 29.075C93.9999 29.1997 93.6369 29.2547 93.2335 29.24H91.9245V31H90.0655V22.948H90.6375H93.2335C93.6149 22.926 93.9632 22.9737 94.2785 23.091C94.6012 23.2083 94.8799 23.3733 95.1145 23.586C95.3492 23.7913 95.5325 24.0407 95.6645 24.334C95.8039 24.62 95.8845 24.9207 95.9065 25.236V26.82ZM93.2335 27.645C93.4535 27.645 93.6479 27.5643 93.8165 27.403C93.9852 27.2343 94.0695 27.04 94.0695 26.82V25.368C94.0695 25.148 93.9852 24.9573 93.8165 24.796C93.6479 24.6273 93.4535 24.543 93.2335 24.543H91.9245V27.645H93.2335ZM102.642 26.82C102.642 27.15 102.576 27.4653 102.444 27.766C102.32 28.0667 102.14 28.3307 101.905 28.558C101.671 28.778 101.388 28.9503 101.058 29.075C100.736 29.1997 100.373 29.2547 99.9693 29.24H98.6603V31H96.8013V22.948H97.3733H99.9693C100.351 22.926 100.699 22.9737 101.014 23.091C101.337 23.2083 101.616 23.3733 101.85 23.586C102.085 23.7913 102.268 24.0407 102.4 24.334C102.54 24.62 102.62 24.9207 102.642 25.236V26.82ZM99.9693 27.645C100.189 27.645 100.384 27.5643 100.552 27.403C100.721 27.2343 100.805 27.04 100.805 26.82V25.368C100.805 25.148 100.721 24.9573 100.552 24.796C100.384 24.6273 100.189 24.543 99.9693 24.543H98.6603V27.645H99.9693ZM105.385 29.361H107.772V31H105.385H104.461H103.537V22.948H105.385V29.361ZM110.295 31H108.447V22.948H110.295V31ZM114.102 29.548C114.212 29.548 114.315 29.526 114.41 29.482C114.513 29.438 114.601 29.3793 114.674 29.306C114.755 29.2253 114.817 29.1373 114.861 29.042C114.912 28.9393 114.938 28.833 114.938 28.723H116.775C116.775 29.053 116.716 29.3647 116.599 29.658C116.482 29.9513 116.309 30.208 116.082 30.428C115.862 30.648 115.583 30.824 115.246 30.956C114.916 31.0807 114.535 31.143 114.102 31.143H113.849C113.416 31.143 113.031 31.0807 112.694 30.956C112.364 30.824 112.085 30.648 111.858 30.428C111.638 30.208 111.469 29.9513 111.352 29.658C111.235 29.3647 111.176 29.053 111.176 28.723L111.165 25.148H111.176C111.191 24.8327 111.26 24.5357 111.385 24.257C111.51 23.9783 111.682 23.7363 111.902 23.531C112.129 23.3183 112.404 23.1533 112.727 23.036C113.057 22.9187 113.431 22.86 113.849 22.86H114.102C114.535 22.86 114.916 22.926 115.246 23.058C115.583 23.1827 115.862 23.355 116.082 23.575C116.309 23.795 116.482 24.0517 116.599 24.345C116.716 24.6383 116.775 24.95 116.775 25.28H114.938C114.938 25.06 114.854 24.8693 114.685 24.708C114.516 24.5393 114.322 24.455 114.102 24.455H113.849C113.629 24.455 113.435 24.5393 113.266 24.708C113.097 24.8693 113.013 25.06 113.013 25.28V28.723C113.013 28.833 113.035 28.9393 113.079 29.042C113.123 29.1373 113.182 29.2253 113.255 29.306C113.336 29.3793 113.427 29.438 113.53 29.482C113.633 29.526 113.739 29.548 113.849 29.548H114.102ZM122.252 30.989L122.021 30.109H119.216L118.985 30.989H117.06L119.227 22.948H122.01L124.177 30.989H122.252ZM119.645 28.536H121.592L120.613 24.906L119.645 28.536ZM129.624 22.948V24.587H127.886V31H126.027V24.587H124.289V22.948H129.624ZM132.135 31H130.287V22.948H132.135V31ZM138.627 28.833C138.612 29.1483 138.542 29.4453 138.418 29.724C138.293 30.0027 138.117 30.2447 137.89 30.45C137.662 30.6553 137.387 30.8203 137.065 30.945C136.742 31.0623 136.372 31.121 135.954 31.121H135.69C135.257 31.121 134.872 31.0587 134.535 30.934C134.205 30.802 133.926 30.626 133.699 30.406C133.479 30.186 133.31 29.9293 133.193 29.636C133.075 29.3427 133.017 29.031 133.017 28.701V25.126C133.031 24.8107 133.101 24.5137 133.226 24.235C133.35 23.9563 133.523 23.7143 133.743 23.509C133.97 23.2963 134.245 23.1313 134.568 23.014C134.898 22.8967 135.272 22.838 135.69 22.838H135.954C136.386 22.838 136.768 22.904 137.098 23.036C137.435 23.1607 137.714 23.333 137.934 23.553C138.161 23.773 138.333 24.0297 138.451 24.323C138.568 24.6163 138.627 24.928 138.627 25.258V28.833ZM135.954 29.526C136.064 29.526 136.166 29.504 136.262 29.46C136.364 29.416 136.452 29.3573 136.526 29.284C136.606 29.2033 136.669 29.1153 136.713 29.02C136.757 28.9173 136.779 28.811 136.779 28.701V25.258C136.779 25.038 136.694 24.8473 136.526 24.686C136.364 24.5173 136.174 24.433 135.954 24.433H135.69C135.58 24.433 135.473 24.455 135.371 24.499C135.275 24.543 135.187 24.6053 135.107 24.686C135.033 24.7593 134.975 24.8473 134.931 24.95C134.887 25.0453 134.865 25.148 134.865 25.258V28.701C134.865 28.811 134.887 28.9173 134.931 29.02C134.975 29.1153 135.033 29.2033 135.107 29.284C135.187 29.3573 135.275 29.416 135.371 29.46C135.473 29.504 135.58 29.526 135.69 29.526H135.954ZM143.267 22.948H145.126V31H143.267L141.364 27.117V31H139.505V22.948H141.364H141.375L143.267 26.996V22.948ZM150.7 31H148.852V22.948H150.7V31ZM154.639 26.094C154.991 26.094 155.317 26.16 155.618 26.292C155.926 26.424 156.194 26.6037 156.421 26.831C156.656 27.0583 156.839 27.326 156.971 27.634C157.103 27.9347 157.169 28.261 157.169 28.613C157.169 28.9577 157.103 29.284 156.971 29.592C156.839 29.9 156.656 30.1677 156.421 30.395C156.194 30.6223 155.926 30.802 155.618 30.934C155.317 31.066 154.991 31.132 154.639 31.132H154.078C153.726 31.132 153.396 31.066 153.088 30.934C152.787 30.802 152.523 30.6223 152.296 30.395C152.069 30.1677 151.889 29.9 151.757 29.592C151.625 29.284 151.559 28.9577 151.559 28.613H153.253C153.253 28.8403 153.33 29.0347 153.484 29.196C153.645 29.3573 153.843 29.438 154.078 29.438H154.639C154.874 29.438 155.072 29.3573 155.233 29.196C155.394 29.0347 155.475 28.8403 155.475 28.613C155.475 28.3783 155.394 28.1803 155.233 28.019C155.072 27.8577 154.874 27.777 154.639 27.777H154.078C153.726 27.777 153.396 27.7183 153.088 27.601C152.787 27.4763 152.523 27.3077 152.296 27.095C152.069 26.8823 151.889 26.6293 151.757 26.336C151.625 26.0427 151.559 25.72 151.559 25.368C151.559 25.0233 151.625 24.697 151.757 24.389C151.889 24.081 152.069 23.8133 152.296 23.586C152.523 23.3587 152.787 23.179 153.088 23.047C153.396 22.915 153.726 22.849 154.078 22.849H154.639C154.991 22.849 155.317 22.915 155.618 23.047C155.926 23.179 156.194 23.3587 156.421 23.586C156.656 23.8133 156.839 24.081 156.971 24.389C157.103 24.697 157.169 25.0233 157.169 25.368H155.475C155.475 25.1407 155.394 24.9463 155.233 24.785C155.072 24.6237 154.874 24.543 154.639 24.543H154.078C153.843 24.543 153.645 24.6237 153.484 24.785C153.33 24.9463 153.253 25.1407 153.253 25.368C153.253 25.6027 153.33 25.7823 153.484 25.907C153.645 26.0317 153.843 26.094 154.078 26.094H154.639ZM165.635 28.833C165.62 29.1483 165.551 29.4453 165.426 29.724C165.301 30.0027 165.125 30.2447 164.898 30.45C164.671 30.6553 164.396 30.8203 164.073 30.945C163.75 31.0623 163.38 31.121 162.962 31.121H162.698C162.265 31.121 161.88 31.0587 161.543 30.934C161.213 30.802 160.934 30.626 160.707 30.406C160.487 30.186 160.318 29.9293 160.201 29.636C160.084 29.3427 160.025 29.031 160.025 28.701V25.126C160.04 24.8107 160.109 24.5137 160.234 24.235C160.359 23.9563 160.531 23.7143 160.751 23.509C160.978 23.2963 161.253 23.1313 161.576 23.014C161.906 22.8967 162.28 22.838 162.698 22.838H162.962C163.395 22.838 163.776 22.904 164.106 23.036C164.443 23.1607 164.722 23.333 164.942 23.553C165.169 23.773 165.342 24.0297 165.459 24.323C165.576 24.6163 165.635 24.928 165.635 25.258V28.833ZM162.962 29.526C163.072 29.526 163.175 29.504 163.27 29.46C163.373 29.416 163.461 29.3573 163.534 29.284C163.615 29.2033 163.677 29.1153 163.721 29.02C163.765 28.9173 163.787 28.811 163.787 28.701V25.258C163.787 25.038 163.703 24.8473 163.534 24.686C163.373 24.5173 163.182 24.433 162.962 24.433H162.698C162.588 24.433 162.482 24.455 162.379 24.499C162.284 24.543 162.196 24.6053 162.115 24.686C162.042 24.7593 161.983 24.8473 161.939 24.95C161.895 25.0453 161.873 25.148 161.873 25.258V28.701C161.873 28.811 161.895 28.9173 161.939 29.02C161.983 29.1153 162.042 29.2033 162.115 29.284C162.196 29.3573 162.284 29.416 162.379 29.46C162.482 29.504 162.588 29.526 162.698 29.526H162.962ZM172.354 26.82C172.354 27.15 172.288 27.4653 172.156 27.766C172.032 28.0667 171.852 28.3307 171.617 28.558C171.383 28.778 171.1 28.9503 170.77 29.075C170.448 29.1997 170.085 29.2547 169.681 29.24H168.372V31H166.513V22.948H167.085H169.681C170.063 22.926 170.411 22.9737 170.726 23.091C171.049 23.2083 171.328 23.3733 171.562 23.586C171.797 23.7913 171.98 24.0407 172.112 24.334C172.252 24.62 172.332 24.9207 172.354 25.236V26.82ZM169.681 27.645C169.901 27.645 170.096 27.5643 170.264 27.403C170.433 27.2343 170.517 27.04 170.517 26.82V25.368C170.517 25.148 170.433 24.9573 170.264 24.796C170.096 24.6273 169.901 24.543 169.681 24.543H168.372V27.645H169.681ZM177.88 24.532H175.108V26.094H177.396V27.678H175.108V29.405H177.88V31H173.249V22.948H173.821H175.108H177.88V24.532ZM182.952 22.948H184.811V31H182.952L181.049 27.117V31H179.19V22.948H181.049H181.06L182.952 26.996V22.948ZM193.168 24.532H190.385V26.094H192.684V27.678H190.385V29.405V31H188.537V22.948H189.098H190.385H193.168V24.532ZM199.669 28.833C199.654 29.1483 199.585 29.4453 199.46 29.724C199.335 30.0027 199.159 30.2447 198.932 30.45C198.705 30.6553 198.43 30.8203 198.107 30.945C197.784 31.0623 197.414 31.121 196.996 31.121H196.732C196.299 31.121 195.914 31.0587 195.577 30.934C195.247 30.802 194.968 30.626 194.741 30.406C194.521 30.186 194.352 29.9293 194.235 29.636C194.118 29.3427 194.059 29.031 194.059 28.701V25.126C194.074 24.8107 194.143 24.5137 194.268 24.235C194.393 23.9563 194.565 23.7143 194.785 23.509C195.012 23.2963 195.287 23.1313 195.61 23.014C195.94 22.8967 196.314 22.838 196.732 22.838H196.996C197.429 22.838 197.81 22.904 198.14 23.036C198.477 23.1607 198.756 23.333 198.976 23.553C199.203 23.773 199.376 24.0297 199.493 24.323C199.61 24.6163 199.669 24.928 199.669 25.258V28.833ZM196.996 29.526C197.106 29.526 197.209 29.504 197.304 29.46C197.407 29.416 197.495 29.3573 197.568 29.284C197.649 29.2033 197.711 29.1153 197.755 29.02C197.799 28.9173 197.821 28.811 197.821 28.701V25.258C197.821 25.038 197.737 24.8473 197.568 24.686C197.407 24.5173 197.216 24.433 196.996 24.433H196.732C196.622 24.433 196.516 24.455 196.413 24.499C196.318 24.543 196.23 24.6053 196.149 24.686C196.076 24.7593 196.017 24.8473 195.973 24.95C195.929 25.0453 195.907 25.148 195.907 25.258V28.701C195.907 28.811 195.929 28.9173 195.973 29.02C196.017 29.1153 196.076 29.2033 196.149 29.284C196.23 29.3573 196.318 29.416 196.413 29.46C196.516 29.504 196.622 29.526 196.732 29.526H196.996ZM203.242 29.229H202.406V31H200.547V22.948H201.119H203.473C203.855 22.926 204.203 22.9737 204.518 23.091C204.841 23.201 205.12 23.3623 205.354 23.575C205.589 23.7877 205.772 24.037 205.904 24.323C206.044 24.609 206.124 24.9097 206.146 25.225V26.809C206.146 27.1977 206.062 27.5607 205.893 27.898C205.732 28.228 205.497 28.5067 205.189 28.734L206.498 31H204.353L203.242 29.229ZM204.309 25.357C204.309 25.247 204.284 25.1443 204.232 25.049C204.188 24.9463 204.126 24.8583 204.045 24.785C203.972 24.7043 203.884 24.642 203.781 24.598C203.686 24.554 203.583 24.532 203.473 24.532H202.406V27.634H203.473C203.693 27.634 203.888 27.5533 204.056 27.392C204.225 27.2233 204.309 27.029 204.309 26.809V25.357ZM212.071 26.094C212.423 26.094 212.75 26.16 213.05 26.292C213.358 26.424 213.626 26.6037 213.853 26.831C214.088 27.0583 214.271 27.326 214.403 27.634C214.535 27.9347 214.601 28.261 214.601 28.613C214.601 28.9577 214.535 29.284 214.403 29.592C214.271 29.9 214.088 30.1677 213.853 30.395C213.626 30.6223 213.358 30.802 213.05 30.934C212.75 31.066 212.423 31.132 212.071 31.132H211.51C211.158 31.132 210.828 31.066 210.52 30.934C210.22 30.802 209.956 30.6223 209.728 30.395C209.501 30.1677 209.321 29.9 209.189 29.592C209.057 29.284 208.991 28.9577 208.991 28.613H210.685C210.685 28.8403 210.762 29.0347 210.916 29.196C211.078 29.3573 211.276 29.438 211.51 29.438H212.071C212.306 29.438 212.504 29.3573 212.665 29.196C212.827 29.0347 212.907 28.8403 212.907 28.613C212.907 28.3783 212.827 28.1803 212.665 28.019C212.504 27.8577 212.306 27.777 212.071 27.777H211.51C211.158 27.777 210.828 27.7183 210.52 27.601C210.22 27.4763 209.956 27.3077 209.728 27.095C209.501 26.8823 209.321 26.6293 209.189 26.336C209.057 26.0427 208.991 25.72 208.991 25.368C208.991 25.0233 209.057 24.697 209.189 24.389C209.321 24.081 209.501 23.8133 209.728 23.586C209.956 23.3587 210.22 23.179 210.52 23.047C210.828 22.915 211.158 22.849 211.51 22.849H212.071C212.423 22.849 212.75 22.915 213.05 23.047C213.358 23.179 213.626 23.3587 213.853 23.586C214.088 23.8133 214.271 24.081 214.403 24.389C214.535 24.697 214.601 25.0233 214.601 25.368H212.907C212.907 25.1407 212.827 24.9463 212.665 24.785C212.504 24.6237 212.306 24.543 212.071 24.543H211.51C211.276 24.543 211.078 24.6237 210.916 24.785C210.762 24.9463 210.685 25.1407 210.685 25.368C210.685 25.6027 210.762 25.7823 210.916 25.907C211.078 26.0317 211.276 26.094 211.51 26.094H212.071ZM220.111 24.532H217.339V26.094H219.627V27.678H217.339V29.405H220.111V31H215.48V22.948H216.052H217.339H220.111V24.532ZM226.019 30.989L225.788 30.109H222.983L222.752 30.989H220.827L222.994 22.948H225.777L227.944 30.989H226.019ZM223.412 28.536H225.359L224.38 24.906L223.412 28.536ZM231.29 26.094C231.642 26.094 231.969 26.16 232.269 26.292C232.577 26.424 232.845 26.6037 233.072 26.831C233.307 27.0583 233.49 27.326 233.622 27.634C233.754 27.9347 233.82 28.261 233.82 28.613C233.82 28.9577 233.754 29.284 233.622 29.592C233.49 29.9 233.307 30.1677 233.072 30.395C232.845 30.6223 232.577 30.802 232.269 30.934C231.969 31.066 231.642 31.132 231.29 31.132H230.729C230.377 31.132 230.047 31.066 229.739 30.934C229.439 30.802 229.175 30.6223 228.947 30.395C228.72 30.1677 228.54 29.9 228.408 29.592C228.276 29.284 228.21 28.9577 228.21 28.613H229.904C229.904 28.8403 229.981 29.0347 230.135 29.196C230.297 29.3573 230.495 29.438 230.729 29.438H231.29C231.525 29.438 231.723 29.3573 231.884 29.196C232.046 29.0347 232.126 28.8403 232.126 28.613C232.126 28.3783 232.046 28.1803 231.884 28.019C231.723 27.8577 231.525 27.777 231.29 27.777H230.729C230.377 27.777 230.047 27.7183 229.739 27.601C229.439 27.4763 229.175 27.3077 228.947 27.095C228.72 26.8823 228.54 26.6293 228.408 26.336C228.276 26.0427 228.21 25.72 228.21 25.368C228.21 25.0233 228.276 24.697 228.408 24.389C228.54 24.081 228.72 23.8133 228.947 23.586C229.175 23.3587 229.439 23.179 229.739 23.047C230.047 22.915 230.377 22.849 230.729 22.849H231.29C231.642 22.849 231.969 22.915 232.269 23.047C232.577 23.179 232.845 23.3587 233.072 23.586C233.307 23.8133 233.49 24.081 233.622 24.389C233.754 24.697 233.82 25.0233 233.82 25.368H232.126C232.126 25.1407 232.046 24.9463 231.884 24.785C231.723 24.6237 231.525 24.543 231.29 24.543H230.729C230.495 24.543 230.297 24.6237 230.135 24.785C229.981 24.9463 229.904 25.1407 229.904 25.368C229.904 25.6027 229.981 25.7823 230.135 25.907C230.297 26.0317 230.495 26.094 230.729 26.094H231.29ZM239.869 28.833C239.855 29.1483 239.785 29.4453 239.66 29.724C239.536 30.0027 239.36 30.2447 239.132 30.45C238.905 30.6553 238.63 30.8203 238.307 30.945C237.985 31.0623 237.614 31.121 237.196 31.121H236.932C236.5 31.121 236.115 31.0587 235.777 30.934C235.447 30.802 235.169 30.626 234.941 30.406C234.721 30.186 234.553 29.9293 234.435 29.636C234.318 29.3427 234.259 29.031 234.259 28.701V25.126C234.274 24.8107 234.344 24.5137 234.468 24.235C234.593 23.9563 234.765 23.7143 234.985 23.509C235.213 23.2963 235.488 23.1313 235.81 23.014C236.14 22.8967 236.514 22.838 236.932 22.838H237.196C237.629 22.838 238.01 22.904 238.34 23.036C238.678 23.1607 238.956 23.333 239.176 23.553C239.404 23.773 239.576 24.0297 239.693 24.323C239.811 24.6163 239.869 24.928 239.869 25.258V28.833ZM237.196 29.526C237.306 29.526 237.409 29.504 237.504 29.46C237.607 29.416 237.695 29.3573 237.768 29.284C237.849 29.2033 237.911 29.1153 237.955 29.02C237.999 28.9173 238.021 28.811 238.021 28.701V25.258C238.021 25.038 237.937 24.8473 237.768 24.686C237.607 24.5173 237.416 24.433 237.196 24.433H236.932C236.822 24.433 236.716 24.455 236.613 24.499C236.518 24.543 236.43 24.6053 236.349 24.686C236.276 24.7593 236.217 24.8473 236.173 24.95C236.129 25.0453 236.107 25.148 236.107 25.258V28.701C236.107 28.811 236.129 28.9173 236.173 29.02C236.217 29.1153 236.276 29.2033 236.349 29.284C236.43 29.3573 236.518 29.416 236.613 29.46C236.716 29.504 236.822 29.526 236.932 29.526H237.196ZM244.509 22.948H246.368V31H244.509L242.606 27.117V31H240.747V22.948H242.606H242.617L244.509 26.996V22.948ZM253.471 26.743C253.779 26.919 254.028 27.161 254.219 27.469C254.41 27.777 254.505 28.1217 254.505 28.503V28.965C254.505 29.2437 254.45 29.5077 254.34 29.757C254.237 29.999 254.094 30.2117 253.911 30.395C253.728 30.5783 253.511 30.725 253.262 30.835C253.02 30.9377 252.76 30.989 252.481 30.989H249.665V29.405H250.413H250.71H252.063C252.232 29.405 252.371 29.35 252.481 29.24C252.598 29.1227 252.657 28.9797 252.657 28.811V28.25C252.657 28.0813 252.598 27.942 252.481 27.832C252.371 27.7147 252.232 27.656 252.063 27.656H251.238H251.128H250.622V27.458V26.479V26.27H251.128H251.238H251.513C251.682 26.27 251.821 26.215 251.931 26.105C252.048 25.9877 252.107 25.8447 252.107 25.676V25.115C252.107 24.9463 252.048 24.807 251.931 24.697C251.821 24.5797 251.682 24.521 251.513 24.521H250.71H250.413H249.665V22.937H251.931C252.21 22.937 252.474 22.992 252.723 23.102C252.972 23.2047 253.189 23.3477 253.372 23.531C253.555 23.7143 253.698 23.9307 253.801 24.18C253.911 24.4293 253.966 24.6933 253.966 24.972V25.423C253.966 25.6797 253.922 25.9217 253.834 26.149C253.746 26.369 253.625 26.567 253.471 26.743Z" fill="white"/>
<rect x="21.2" y="15.2" width="249.6" height="26.6" rx="13.3" stroke="url(#paint2_linear_1177_5831)" stroke-opacity="0.4" stroke-width="0.4"/>
<rect x="21.2" y="15.2" width="249.6" height="26.6" rx="13.3" stroke="url(#paint3_linear_1177_5831)" stroke-opacity="0.4" stroke-width="0.4"/>
</g>
<rect x="12" y="7" width="42" height="42" rx="21" fill="url(#paint4_linear_1177_5831)" fill-opacity="0.08"/>
<g filter="url(#filter4_f_1177_5831)">
<rect x="23.7644" y="10.6187" width="19.5629" height="4.78096" transform="rotate(23.2404 23.7644 10.6187)" fill="white" fill-opacity="0.22"/>
</g>
<g filter="url(#filter5_f_1177_5831)">
<rect x="16.5" y="29.7295" width="10.6273" height="3.88876" transform="rotate(-15.2975 16.5 29.7295)" fill="white" fill-opacity="0.32"/>
</g>
<g filter="url(#filter6_f_1177_5831)">
<rect x="46.8633" y="37.8105" width="6.87772" height="14.8576" transform="rotate(99.4423 46.8633 37.8105)" fill="white" fill-opacity="0.16"/>
</g>
<g filter="url(#filter7_b_1177_5831)">
<rect x="12" y="7" width="42" height="42" rx="21" fill="white" fill-opacity="0.04"/>
<rect x="18" y="13" width="30" height="30" rx="15" fill="white" fill-opacity="0.08"/>
<rect x="23" y="18" width="20" height="20" rx="10" fill="white" fill-opacity="0.08"/>
<g clip-path="url(#clip0_1177_5831)">
<path d="M36.1249 28.625C36.1257 28.7524 36.087 28.8769 36.0141 28.9815C35.9412 29.086 35.8377 29.1653 35.7178 29.2086L33.7003 29.9508L32.9581 31.9668C32.9141 32.0862 32.8346 32.1892 32.7303 32.262C32.6259 32.3348 32.5017 32.3739 32.3745 32.3739C32.2473 32.3739 32.1231 32.3348 32.0187 32.262C31.9144 32.1892 31.8348 32.0862 31.7909 31.9668L31.0468 29.9531L29.0303 29.2109C28.9109 29.167 28.8079 29.0875 28.7351 28.9831C28.6623 28.8788 28.6233 28.7546 28.6233 28.6273C28.6233 28.5001 28.6623 28.3759 28.7351 28.2716C28.8079 28.1672 28.9109 28.0877 29.0303 28.0437L31.0479 27.3016L31.7901 25.2855C31.8341 25.1661 31.9136 25.0631 32.0179 24.9903C32.1223 24.9175 32.2465 24.8785 32.3737 24.8785C32.5009 24.8785 32.6251 24.9175 32.7295 24.9903C32.8338 25.0631 32.9133 25.1661 32.9573 25.2855L33.6995 27.3031L35.7155 28.0453C35.8352 28.088 35.9387 28.1666 36.012 28.2703C36.0853 28.3741 36.1247 28.498 36.1249 28.625ZM33.9374 24.875H34.5624V25.5C34.5624 25.5829 34.5953 25.6624 34.6539 25.721C34.7125 25.7796 34.792 25.8125 34.8749 25.8125C34.9578 25.8125 35.0372 25.7796 35.0958 25.721C35.1545 25.6624 35.1874 25.5829 35.1874 25.5V24.875H35.8124C35.8953 24.875 35.9747 24.8421 36.0333 24.7835C36.092 24.7249 36.1249 24.6454 36.1249 24.5625C36.1249 24.4796 36.092 24.4001 36.0333 24.3415C35.9747 24.2829 35.8953 24.25 35.8124 24.25H35.1874V23.625C35.1874 23.5421 35.1545 23.4626 35.0958 23.404C35.0372 23.3454 34.9578 23.3125 34.8749 23.3125C34.792 23.3125 34.7125 23.3454 34.6539 23.404C34.5953 23.4626 34.5624 23.5421 34.5624 23.625V24.25H33.9374C33.8545 24.25 33.775 24.2829 33.7164 24.3415C33.6578 24.4001 33.6249 24.4796 33.6249 24.5625C33.6249 24.6454 33.6578 24.7249 33.7164 24.7835C33.775 24.8421 33.8545 24.875 33.9374 24.875ZM37.3749 26.125H37.0624V25.8125C37.0624 25.7296 37.0295 25.6501 36.9708 25.5915C36.9122 25.5329 36.8328 25.5 36.7499 25.5C36.667 25.5 36.5875 25.5329 36.5289 25.5915C36.4703 25.6501 36.4374 25.7296 36.4374 25.8125V26.125H36.1249C36.042 26.125 35.9625 26.1579 35.9039 26.2165C35.8453 26.2751 35.8124 26.3546 35.8124 26.4375C35.8124 26.5204 35.8453 26.5999 35.9039 26.6585C35.9625 26.7171 36.042 26.75 36.1249 26.75H36.4374V27.0625C36.4374 27.1454 36.4703 27.2249 36.5289 27.2835C36.5875 27.3421 36.667 27.375 36.7499 27.375C36.8328 27.375 36.9122 27.3421 36.9708 27.2835C37.0295 27.2249 37.0624 27.1454 37.0624 27.0625V26.75H37.3749C37.4578 26.75 37.5372 26.7171 37.5958 26.6585C37.6545 26.5999 37.6874 26.5204 37.6874 26.4375C37.6874 26.3546 37.6545 26.2751 37.5958 26.2165C37.5372 26.1579 37.4578 26.125 37.3749 26.125Z" fill="white"/>
</g>
<rect x="12.15" y="7.15" width="41.7" height="41.7" rx="20.85" stroke="url(#paint5_linear_1177_5831)" stroke-opacity="0.72" stroke-width="0.3"/>
<rect x="12.15" y="7.15" width="41.7" height="41.7" rx="20.85" stroke="url(#paint6_linear_1177_5831)" stroke-opacity="0.72" stroke-width="0.3"/>
</g>
<defs>
<filter id="filter0_f_1177_5831" x="17.4212" y="7.07549" width="51.9811" height="41.6483" filterUnits="userSpaceOnUse" color-interpolation-filters="sRGB">
<feFlood flood-opacity="0" result="BackgroundImageFix"/>
<feBlend mode="normal" in="SourceGraphic" in2="BackgroundImageFix" result="shape"/>
<feGaussianBlur stdDeviation="6.37461" result="effect1_foregroundBlur_1177_5831"/>
</filter>
<filter id="filter1_f_1177_5831" x="205.63" y="14.2232" width="56.4989" height="35.1483" filterUnits="userSpaceOnUse" color-interpolation-filters="sRGB">
<feFlood flood-opacity="0" result="BackgroundImageFix"/>
<feBlend mode="normal" in="SourceGraphic" in2="BackgroundImageFix" result="shape"/>
<feGaussianBlur stdDeviation="5.18502" result="effect1_foregroundBlur_1177_5831"/>
</filter>
<filter id="filter2_f_1177_5831" x="103.843" y="6.23906" width="52.0093" height="42.1918" filterUnits="userSpaceOnUse" color-interpolation-filters="sRGB">
<feFlood flood-opacity="0" result="BackgroundImageFix"/>
<feBlend mode="normal" in="SourceGraphic" in2="BackgroundImageFix" result="shape"/>
<feGaussianBlur stdDeviation="4.79746" result="effect1_foregroundBlur_1177_5831"/>
</filter>
<filter id="filter3_b_1177_5831" x="5" y="-1" width="282" height="59" filterUnits="userSpaceOnUse" color-interpolation-filters="sRGB">
<feFlood flood-opacity="0" result="BackgroundImageFix"/>
<feGaussianBlur in="BackgroundImageFix" stdDeviation="8"/>
<feComposite in2="SourceAlpha" operator="in" result="effect1_backgroundBlur_1177_5831"/>
<feBlend mode="normal" in="SourceGraphic" in2="effect1_backgroundBlur_1177_5831" result="shape"/>
</filter>
<filter id="filter4_f_1177_5831" x="12.316" y="1.05674" width="38.9858" height="31.2361" filterUnits="userSpaceOnUse" color-interpolation-filters="sRGB">
<feFlood flood-opacity="0" result="BackgroundImageFix"/>
<feBlend mode="normal" in="SourceGraphic" in2="BackgroundImageFix" result="shape"/>
<feGaussianBlur stdDeviation="4.78096" result="effect1_foregroundBlur_1177_5831"/>
</filter>
<filter id="filter5_f_1177_5831" x="8.72248" y="19.1483" width="26.8318" height="22.1097" filterUnits="userSpaceOnUse" color-interpolation-filters="sRGB">
<feFlood flood-opacity="0" result="BackgroundImageFix"/>
<feBlend mode="normal" in="SourceGraphic" in2="BackgroundImageFix" result="shape"/>
<feGaussianBlur stdDeviation="3.88876" result="effect1_foregroundBlur_1177_5831"/>
</filter>
<filter id="filter6_f_1177_5831" x="23.8825" y="28.1769" width="30.1769" height="23.6145" filterUnits="userSpaceOnUse" color-interpolation-filters="sRGB">
<feFlood flood-opacity="0" result="BackgroundImageFix"/>
<feBlend mode="normal" in="SourceGraphic" in2="BackgroundImageFix" result="shape"/>
<feGaussianBlur stdDeviation="3.59809" result="effect1_foregroundBlur_1177_5831"/>
</filter>
<filter id="filter7_b_1177_5831" x="0" y="-5" width="66" height="66" filterUnits="userSpaceOnUse" color-interpolation-filters="sRGB">
<feFlood flood-opacity="0" result="BackgroundImageFix"/>
<feGaussianBlur in="BackgroundImageFix" stdDeviation="6"/>
<feComposite in2="SourceAlpha" operator="in" result="effect1_backgroundBlur_1177_5831"/>
<feBlend mode="normal" in="SourceGraphic" in2="effect1_backgroundBlur_1177_5831" result="shape"/>
</filter>
<linearGradient id="paint0_linear_1177_5831" x1="130" y1="-5.5" x2="130" y2="42" gradientUnits="userSpaceOnUse">
<stop stop-color="white"/>
<stop offset="1" stop-color="white" stop-opacity="0"/>
</linearGradient>
<linearGradient id="paint1_linear_1177_5831" x1="15.5" y1="29" x2="69" y2="29" gradientUnits="userSpaceOnUse">
<stop stop-color="white" stop-opacity="0.58"/>
<stop offset="1" stop-color="white" stop-opacity="0"/>
</linearGradient>
<linearGradient id="paint2_linear_1177_5831" x1="185" y1="15" x2="86.5" y2="15" gradientUnits="userSpaceOnUse">
<stop stop-color="white" stop-opacity="0"/>
<stop offset="0.35274" stop-color="white"/>
<stop offset="1" stop-color="white" stop-opacity="0"/>
</linearGradient>
<linearGradient id="paint3_linear_1177_5831" x1="271" y1="26" x2="251" y2="45" gradientUnits="userSpaceOnUse">
<stop stop-color="white" stop-opacity="0"/>
<stop offset="0.35274" stop-color="white"/>
<stop offset="0.77193" stop-color="white" stop-opacity="0"/>
</linearGradient>
<linearGradient id="paint4_linear_1177_5831" x1="33" y1="-24.8889" x2="33" y2="49" gradientUnits="userSpaceOnUse">
<stop stop-color="white"/>
<stop offset="1" stop-color="white" stop-opacity="0"/>
</linearGradient>
<linearGradient id="paint5_linear_1177_5831" x1="54" y1="28" x2="46.5" y2="28" gradientUnits="userSpaceOnUse">
<stop stop-color="white"/>
<stop offset="1" stop-color="white" stop-opacity="0"/>
</linearGradient>
<linearGradient id="paint6_linear_1177_5831" x1="12" y1="28" x2="18.375" y2="28" gradientUnits="userSpaceOnUse">
<stop stop-color="white"/>
<stop offset="1" stop-color="white" stop-opacity="0"/>
</linearGradient>
<clipPath id="clip0_1177_5831">
<rect width="10" height="10" fill="white" transform="translate(28 23)"/>
</clipPath>
</defs>
</svg>
