<svg width="188" height="59" viewBox="0 0 188 59" fill="none" xmlns="http://www.w3.org/2000/svg">
<rect width="188" height="58.1511" rx="29.0756" fill="white"/>
<rect x="16" y="16" width="156" height="26.1511" rx="13.0756" fill="#000F08"/>
<path d="M33.2431 33.11C31.0101 33.11 29.7561 32.23 29.7561 30.514V30.448H31.4061V30.646C31.4061 31.328 31.7471 31.603 33.2431 31.603C34.5631 31.603 34.8711 31.405 34.8711 30.91C34.8711 30.459 34.6181 30.294 33.8591 30.162L31.7911 29.865C30.4711 29.656 29.6901 28.996 29.6901 27.797C29.6901 26.686 30.5921 25.52 33.0671 25.52C35.3331 25.52 36.3891 26.565 36.3891 28.116V28.182H34.7281V28.028C34.7281 27.324 34.3651 27.027 32.9021 27.027C31.7141 27.027 31.3511 27.258 31.3511 27.731C31.3511 28.16 31.5931 28.314 32.2091 28.424L34.2771 28.754C35.9271 29.018 36.5211 29.821 36.5211 30.833C36.5211 32.032 35.5861 33.11 33.2431 33.11ZM45.19 33H38.953V25.63H45.19V27.115H40.603V28.556H45.025V30.03H40.603V31.515H45.19V33ZM49.0484 33H47.2004L50.4234 25.63H52.7774L56.0224 33H54.1304L53.4374 31.372H49.7524L49.0484 33ZM51.0834 28.281L50.3904 29.887H52.7994L52.1064 28.281L51.6554 27.137H51.5344L51.0834 28.281ZM61.5113 33.11C59.2783 33.11 58.0243 32.23 58.0243 30.514V30.448H59.6743V30.646C59.6743 31.328 60.0153 31.603 61.5113 31.603C62.8313 31.603 63.1393 31.405 63.1393 30.91C63.1393 30.459 62.8863 30.294 62.1273 30.162L60.0593 29.865C58.7393 29.656 57.9583 28.996 57.9583 27.797C57.9583 26.686 58.8603 25.52 61.3353 25.52C63.6013 25.52 64.6573 26.565 64.6573 28.116V28.182H62.9963V28.028C62.9963 27.324 62.6333 27.027 61.1703 27.027C59.9823 27.027 59.6193 27.258 59.6193 27.731C59.6193 28.16 59.8613 28.314 60.4773 28.424L62.5453 28.754C64.1953 29.018 64.7893 29.821 64.7893 30.833C64.7893 32.032 63.8543 33.11 61.5113 33.11ZM71.0163 33.11C68.5743 33.11 67.0563 31.614 67.0563 29.315C67.0563 27.016 68.5743 25.52 71.0163 25.52C73.5133 25.52 75.0203 27.016 75.0203 29.315C75.0203 31.614 73.5133 33.11 71.0163 33.11ZM71.0163 31.526C72.6333 31.526 73.2603 30.954 73.2603 29.315C73.2603 27.676 72.6333 27.104 71.0163 27.104C69.3993 27.104 68.8053 27.676 68.8053 29.315C68.8053 30.954 69.3993 31.526 71.0163 31.526ZM79.1498 33H77.4998V25.63H79.2598L81.8998 29.117L82.9118 30.668H83.0328L82.9558 29.183V25.63H84.6058V33H82.8458L80.1288 29.48L79.1938 28.094H79.0838L79.1498 29.447V33ZM94.0316 33.11C91.6226 33.11 90.5336 32.131 90.5336 30.503V30.327H92.2826V30.503C92.2826 31.251 92.4916 31.526 93.9546 31.526C95.3406 31.526 95.7696 31.306 95.7696 30.668C95.7696 30.118 95.4176 29.887 94.7246 29.887H92.6016V28.534H94.5706C95.2086 28.534 95.4946 28.303 95.4946 27.841C95.4946 27.324 95.1866 27.104 93.9326 27.104C92.6126 27.104 92.2826 27.379 92.2826 28.127V28.182H90.5336V28.127C90.5336 26.576 91.6776 25.52 94.0756 25.52C96.0446 25.52 97.1336 26.191 97.1336 27.489C97.1336 28.336 96.6276 28.908 95.6706 29.029V29.15C96.7486 29.304 97.4526 29.854 97.4526 30.932C97.4526 32.362 96.1766 33.11 94.0316 33.11ZM104.946 33H103.296V25.63H104.946V33ZM110.913 33.11C108.68 33.11 107.426 32.23 107.426 30.514V30.448H109.076V30.646C109.076 31.328 109.417 31.603 110.913 31.603C112.233 31.603 112.541 31.405 112.541 30.91C112.541 30.459 112.288 30.294 111.529 30.162L109.461 29.865C108.141 29.656 107.36 28.996 107.36 27.797C107.36 26.686 108.262 25.52 110.737 25.52C113.003 25.52 114.059 26.565 114.059 28.116V28.182H112.398V28.028C112.398 27.324 112.035 27.027 110.572 27.027C109.384 27.027 109.021 27.258 109.021 27.731C109.021 28.16 109.263 28.314 109.879 28.424L111.947 28.754C113.597 29.018 114.191 29.821 114.191 30.833C114.191 32.032 113.256 33.11 110.913 33.11ZM121.731 33H120.081V25.63H121.731V28.556H125.581V25.63H127.231V33H125.581V30.041H121.731V33ZM136.113 33H129.876V25.63H136.113V27.115H131.526V28.556H135.948V30.03H131.526V31.515H136.113V33ZM140.268 33H138.618V25.63H142.688C144.503 25.63 145.537 26.433 145.537 27.841C145.537 29.04 144.844 29.755 143.458 29.887V29.975C144.118 30.151 144.371 30.503 144.646 31.02L145.713 33H143.799L142.787 31.086C142.49 30.514 142.215 30.327 141.357 30.327H140.268V33ZM140.268 27.115V29.084H142.677C143.458 29.084 143.81 28.864 143.81 28.094C143.81 27.368 143.458 27.115 142.677 27.115H140.268ZM154.231 33H147.994V25.63H154.231V27.115H149.644V28.556H154.066V30.03H149.644V31.515H154.231V33ZM158.75 30.58H157.089C157.089 29.678 156.858 27.247 156.858 26.4V25.63H158.981V26.4C158.981 27.247 158.75 29.689 158.75 30.58ZM158.86 33H156.979V31.207H158.86V33Z" fill="white"/>
</svg>
