<svg width="496" height="419" viewBox="0 0 496 419" fill="none" xmlns="http://www.w3.org/2000/svg">
<mask id="path-1-inside-1_1124_3658" fill="white">
<path d="M495.809 324.201L175.05 573.475H289.888L377.554 842.216L105.802 626.476L-164.095 835.955L-70.1633 544.782L25.3905 471.655H-89.3055L-276.809 324.201H1.84802L105.163 0L186.497 266.399L107.549 324.201L107.14 324.5"/>
</mask>
<path d="M107.549 325.321H301.679V323.081H107.549V325.321ZM301.679 325.321H495.809V323.081H301.679V325.321ZM175.05 573.475L173.676 571.706L168.518 575.715H175.05V573.475ZM289.888 573.475L292.018 572.78L291.514 571.235H289.888V573.475ZM377.554 842.216L376.161 843.97L381.993 848.599L379.684 841.521L377.554 842.216ZM105.802 626.476L107.195 624.722L105.818 623.628L104.428 624.706L105.802 626.476ZM-164.095 835.955L-166.227 835.267L-168.455 842.174L-162.721 837.725L-164.095 835.955ZM-70.1633 544.782L-71.5246 543.003L-72.0802 543.428L-72.2951 544.094L-70.1633 544.782ZM25.3905 471.655L26.7518 473.434L32.0031 469.415H25.3905V471.655ZM-89.3055 471.655L-90.6901 473.416L-90.0807 473.895H-89.3055V471.655ZM-276.809 324.201V321.961H-283.281L-278.193 325.961L-276.809 324.201ZM1.84802 324.201V326.441H3.48514L3.98221 324.881L1.84802 324.201ZM105.163 0L107.305 -0.654068L105.209 -7.52089L103.029 -0.680115L105.163 0ZM186.497 266.399L187.82 268.206L189.104 267.266L188.639 265.745L186.497 266.399ZM107.549 324.201L108.872 326.008H108.872L107.549 324.201ZM494.434 322.432L173.676 571.706L176.425 575.244L497.183 325.969L494.434 322.432ZM175.05 575.715H289.888V571.235H175.05V575.715ZM287.759 574.169L375.425 842.91L379.684 841.521L292.018 572.78L287.759 574.169ZM378.947 840.461L107.195 624.722L104.409 628.23L376.161 843.97L378.947 840.461ZM104.428 624.706L-165.468 834.186L-162.721 837.725L107.175 628.245L104.428 624.706ZM-161.963 836.643L-68.0316 545.47L-72.2951 544.094L-166.227 835.267L-161.963 836.643ZM-68.802 546.561L26.7518 473.434L24.0292 469.876L-71.5246 543.003L-68.802 546.561ZM25.3905 469.415H-89.3055V473.895H25.3905V469.415ZM-87.9208 469.895L-275.424 322.44L-278.193 325.961L-90.6901 473.416L-87.9208 469.895ZM-276.809 326.441H1.84802V321.961H-276.809V326.441ZM3.98221 324.881L107.297 0.680115L103.029 -0.680115L-0.286163 323.52L3.98221 324.881ZM103.021 0.654068L184.355 267.053L188.639 265.745L107.305 -0.654068L103.021 0.654068ZM185.174 264.592L106.226 322.393L108.872 326.008L187.82 268.206L185.174 264.592ZM106.226 322.393L105.817 322.692L108.463 326.307L108.872 326.008L106.226 322.393Z" fill="white" fill-opacity="0.06" mask="url(#path-1-inside-1_1124_3658)"/>
</svg>
