<svg width="100" height="24" viewBox="0 0 100 24" fill="none" xmlns="http://www.w3.org/2000/svg">
<path d="M49.4625 23.9526V21.5713H50.5764V20.7681H47.4568V21.5713H48.5753V23.9526" fill="#FCFCFC"/>
<path d="M52.2917 22.1131L52.4946 21.5761H52.5561L52.7638 22.1131L52.9478 22.56H52.1076L52.2917 22.1131ZM51.527 23.9526L51.7725 23.3632H53.2736L53.5143 23.9526H54.5339L53.165 20.7681H51.8953L50.5311 23.9526" fill="#FCFCFC"/>
<path d="M57.2717 23.9526V23.1494H55.4452V20.7681H54.5579V23.9526" fill="#FCFCFC"/>
<path d="M60.2455 23.9526V23.1494H58.3246V22.7501H60.1745V21.9516H58.3246V21.5713H60.2455V20.7681H57.4373V23.9526" fill="#FCFCFC"/>
<path d="M61.3144 23.9526V22.7072L61.2766 22.0989H61.3378L61.739 22.7262L62.6737 23.9526H63.6176V20.7681H62.7304V21.9991L62.7725 22.6931H62.7115L62.2488 21.961L61.3709 20.7681H60.427V23.9526" fill="#FCFCFC"/>
<path d="M65.7666 23.9526V21.5713H66.8805V20.7681H63.7609V21.5713H64.8793V23.9526" fill="#FCFCFC"/>
<path d="M68.4998 23.9526V22.7549H69.9727V23.9526H70.8599V20.7681H69.9727V21.9516H68.4998V20.7681H67.6125V23.9526" fill="#FCFCFC"/>
<path d="M72.668 24.0001C73.7722 24.0001 74.282 23.4631 74.282 22.6169V20.7681H73.3947V22.5458C73.3947 22.9972 73.2672 23.1351 72.668 23.1351C72.0684 23.1351 71.9409 22.9972 71.9409 22.5458V20.7681H71.0537V22.6169C71.0537 23.4631 71.5635 24.0001 72.668 24.0001Z" fill="#FCFCFC"/>
<path d="M75.3645 23.9526V22.7072L75.3269 22.0989H75.3879L75.7892 22.7262L76.724 23.9526H77.6678V20.7681H76.7805V21.9991L76.8228 22.6931H76.7616L76.2989 21.961L75.4211 20.7681H74.4773V23.9526" fill="#FCFCFC"/>
<path d="M79.8169 23.9526V21.5713H80.9308V20.7681H77.811V21.5713H78.9295V23.9526" fill="#FCFCFC"/>
<path d="M99.6398 7.59886L92.1217 13.4415H94.8133L96.8681 19.7405L90.4986 14.6838L84.1725 19.5937L86.3742 12.769L88.6138 11.055H85.9255L81.5306 7.59886H88.062L90.4836 0L92.39 6.24406L90.5299 7.60587" fill="#FCFCFC"/>
<path d="M15.425 9.87421H11.4213V12.1304H14.726V14.4181H11.4213V16.9126H15.425V19.2163H8.73633V7.58643H15.425" fill="#FCFCFC"/>
<path d="M20.5578 12.8137C20.8757 12.8137 21.1564 12.6973 21.3998 12.4643C21.6435 12.2206 21.7654 11.9399 21.7654 11.6223V10.9071C21.7654 10.5896 21.6435 10.314 21.3998 10.081C21.1564 9.83761 20.8757 9.7157 20.5578 9.7157H19.6045C19.2869 9.7157 19.0061 9.83761 18.7626 10.081C18.519 10.314 18.3972 10.5896 18.3972 10.9071V11.6223C18.3972 11.9399 18.519 12.2206 18.7626 12.4643C19.0061 12.6973 19.2869 12.8137 19.6045 12.8137H20.5578ZM20.5578 7.41211C21.1829 7.41211 21.7334 7.50729 22.2102 7.69799C22.6974 7.87813 23.0999 8.12694 23.4177 8.44478C23.7459 8.76239 23.9947 9.13312 24.1642 9.55695C24.334 9.98067 24.4186 10.4305 24.4186 10.9071V15.7054C24.4186 16.2138 24.3233 16.6904 24.1326 17.1353C23.9419 17.5695 23.6823 17.9507 23.3542 18.2791C23.0256 18.6074 22.6391 18.867 22.1943 19.0577C21.7599 19.2483 21.2888 19.3435 20.7801 19.3435H19.3822C18.8738 19.3435 18.3972 19.2483 17.9523 19.0577C17.518 18.867 17.1367 18.6074 16.8084 18.2791C16.4801 17.9507 16.2206 17.5695 16.0299 17.1353C15.8393 16.6904 15.744 16.2138 15.744 15.7054H18.1907C18.1907 16.0337 18.3019 16.3143 18.5243 16.5473C18.7573 16.7805 19.0433 16.8969 19.3822 16.8969H20.7801C21.1194 16.8969 21.3998 16.7805 21.6225 16.5473C21.8555 16.3143 21.9719 16.0337 21.9719 15.7054V14.927C21.5589 15.054 21.0874 15.1175 20.5578 15.1175H19.6045C18.9798 15.1175 18.4237 15.0275 17.9364 14.8476C17.4598 14.6568 17.0573 14.4025 16.729 14.085C16.4006 13.767 16.1517 13.3963 15.9823 12.9726C15.8234 12.5489 15.744 12.0989 15.744 11.6223V10.9071C15.744 10.4305 15.8234 9.98067 15.9823 9.55695C16.1517 9.13312 16.4006 8.76239 16.729 8.44478C17.0573 8.12694 17.4598 7.87813 17.9364 7.69799C18.4237 7.50729 18.9798 7.41211 19.6045 7.41211" fill="#FCFCFC"/>
<path d="M32.8392 16.0864C32.8182 16.5419 32.7176 16.9708 32.5375 17.3734C32.3574 17.7758 32.1031 18.1253 31.775 18.4219C31.4464 18.7184 31.0494 18.9568 30.5834 19.1368C30.1172 19.3062 29.5823 19.3911 28.9786 19.3911H28.6132C28.0094 19.3911 27.4692 19.3062 26.9925 19.1368C26.5265 18.9568 26.1293 18.7184 25.8011 18.4219C25.4832 18.1253 25.2343 17.7758 25.0543 17.3734C24.8742 16.9708 24.7735 16.5419 24.7525 16.0864V16.0705C24.7419 16.0282 24.7367 15.9699 24.7367 15.8957H24.7525L24.7367 14.3864H27.4057V15.9752C27.4162 16.1235 27.4534 16.2664 27.517 16.4042C27.5911 16.5313 27.6812 16.6477 27.7871 16.7537C27.9035 16.8596 28.0308 16.9443 28.1683 17.0079C28.3167 17.0609 28.4648 17.0874 28.6132 17.0874H28.9786C29.1374 17.0874 29.2858 17.0555 29.4236 16.992C29.5718 16.9285 29.6989 16.8437 29.8047 16.7378C29.9212 16.6214 30.0113 16.4942 30.0749 16.3565C30.1384 16.2082 30.17 16.0546 30.17 15.8957H30.1862L30.17 9.95394H26.1347V7.58643H32.8392V16.0864Z" fill="#FCFCFC"/>
<path d="M36.1895 15.6575H39.0014L37.5876 10.4145L36.1895 15.6575ZM39.9547 19.2004L39.621 17.9293H35.5699L35.2362 19.2004H32.4557L35.5857 7.58643H39.6052L42.7349 19.2004" fill="#FCFCFC"/>
<path d="M46.6151 12.1308C47.1237 12.1308 47.5949 12.2259 48.0293 12.4166C48.4739 12.6073 48.8605 12.8668 49.1887 13.1954C49.528 13.5236 49.7926 13.9102 49.9833 14.3548C50.174 14.7893 50.2693 15.2606 50.2693 15.7691C50.2693 16.2668 50.174 16.7382 49.9833 17.183C49.7926 17.6279 49.528 18.0144 49.1887 18.3428C48.8605 18.6711 48.4739 18.9307 48.0293 19.1214C47.5949 19.312 47.1237 19.4072 46.6151 19.4072H45.8047C45.2965 19.4072 44.8198 19.312 44.375 19.1214C43.9407 18.9307 43.5593 18.6711 43.231 18.3428C42.9028 18.0144 42.6431 17.6279 42.4526 17.183C42.2619 16.7382 42.1667 16.2668 42.1667 15.7691H44.6133C44.6133 16.0974 44.7246 16.378 44.9469 16.611C45.1799 16.844 45.4659 16.9606 45.8047 16.9606H46.6151C46.9539 16.9606 47.2402 16.844 47.4732 16.611C47.7062 16.378 47.8228 16.0974 47.8228 15.7691C47.8228 15.4301 47.7062 15.1441 47.4732 14.9109C47.2402 14.6779 46.9539 14.5615 46.6151 14.5615H45.8047C45.2965 14.5615 44.8198 14.4769 44.375 14.3074C43.9407 14.1274 43.5593 13.8837 43.231 13.5765C42.9028 13.2693 42.6431 12.9039 42.4526 12.4802C42.2619 12.0565 42.1667 11.5905 42.1667 11.0822C42.1667 10.5843 42.2619 10.113 42.4526 9.66806C42.6431 9.22331 42.9028 8.83667 43.231 8.50849C43.5593 8.17995 43.9407 7.92056 44.375 7.72985C44.8198 7.53902 45.2965 7.44385 45.8047 7.44385H46.6151C47.1237 7.44385 47.5949 7.53902 48.0293 7.72985C48.4739 7.92056 48.8605 8.17995 49.1887 8.50849C49.528 8.83667 49.7926 9.22331 49.9833 9.66806C50.174 10.113 50.2693 10.5843 50.2693 11.0822H47.8228C47.8228 10.7537 47.7062 10.4732 47.4732 10.2402C47.2402 10.0072 46.9539 9.89073 46.6151 9.89073H45.8047C45.4659 9.89073 45.1799 10.0072 44.9469 10.2402C44.7246 10.4732 44.6133 10.7537 44.6133 11.0822C44.6133 11.421 44.7246 11.6805 44.9469 11.8606C45.1799 12.0407 45.4659 12.1308 45.8047 12.1308H46.6151Z" fill="#FCFCFC"/>
<path d="M55.1608 14.3708C55.4786 14.3708 55.7594 14.2543 56.0031 14.0213C56.2467 13.7776 56.3684 13.4969 56.3684 13.179V11.0819C56.3684 10.7641 56.2467 10.4888 56.0031 10.2558C55.7594 10.0122 55.4786 9.89051 55.1608 9.89051H53.2703V14.3708H55.1608ZM59.0214 13.179C59.0214 13.6557 58.9262 14.1113 58.7355 14.5454C58.5555 14.9796 58.296 15.361 57.9571 15.6893C57.6182 16.0071 57.2103 16.256 56.7337 16.436C56.2677 16.6161 55.7436 16.6955 55.1608 16.6744H53.2703V19.2164H50.5852V7.58656H55.1608C55.7116 7.55496 56.2147 7.62375 56.6702 7.79319C57.1362 7.96263 57.5389 8.20111 57.8777 8.50826C58.2166 8.80484 58.4815 9.16475 58.6719 9.58846C58.8733 10.0015 58.9898 10.4359 59.0214 10.8912" fill="#FCFCFC"/>
<path d="M59.5991 19.2167H62.268V7.58691H59.5991V19.2167Z" fill="#FCFCFC"/>
<path d="M68.4186 11.0661C68.4186 10.907 68.3814 10.759 68.3075 10.6211C68.2439 10.473 68.1538 10.3458 68.0374 10.24C67.9312 10.1235 67.8044 10.0334 67.656 9.96988C67.5181 9.90631 67.37 9.87435 67.2112 9.87435H65.6699V14.3546H67.2112C67.5288 14.3546 67.8095 14.2382 68.0532 14.0052C68.2969 13.7615 68.4186 13.481 68.4186 13.1632V11.0661ZM66.8776 16.6586H65.6699V19.2164H62.9849V7.58656H67.2112C67.7618 7.55496 68.2649 7.62375 68.7206 7.79319C69.1866 7.95194 69.5889 8.18518 69.9278 8.49222C70.2667 8.79937 70.5317 9.15952 70.7224 9.57266C70.9234 9.98568 71.04 10.4201 71.0718 10.8754V13.1632C71.0718 13.7248 70.9499 14.2489 70.7062 14.7362C70.4732 15.2127 70.1345 15.6153 69.6897 15.9436L71.5802 19.2164H68.4821" fill="#FCFCFC"/>
<path d="M71.8801 19.2167H74.5493V7.58691H71.8801V19.2167Z" fill="#FCFCFC"/>
<path d="M79.7149 7.58643L82.7969 9.95394H80.2868V19.2163H77.6018V9.95394H75.0913V7.58643" fill="#FCFCFC"/>
<path d="M5.36965 9.74303H2.68477V16.8488H5.36965V9.74303ZM8.02566 17.1041C8.02566 18.2521 7.09506 19.1798 5.94712 19.1798H0V7.41211C1.53493 7.41211 3.99905 7.41211 5.94796 7.41211C7.09589 7.41211 8.02566 8.34082 8.02566 9.48875" fill="#FCFCFC"/>
</svg>
