<svg width="357" height="182" viewBox="0 0 357 182" fill="none" xmlns="http://www.w3.org/2000/svg">
<path d="M0.898841 106.854C19.0615 193.194 327.116 203.744 352.106 130.868C391.487 16.0206 115.637 -20.7984 70.2558 11.1481C68.5751 12.3313 68.3799 15.022 69.6829 14.6623C183.68 -16.805 371.381 48.1507 341.4 129.01C312.168 189.497 -3.9137 181.536 9.14597 93.5362C17.7448 35.5949 164.805 5.14042 261.938 39.8472C265.044 39.6489 263.202 36.1044 260.033 34.8704C155.861 -2.25794 -10.1779 25.564 0.898841 106.854Z" fill="#FCFCFC"/>
<path d="M86.2101 84H77.1661V65.24H86.2101C92.2301 65.24 96.0381 68.74 96.0381 74.62C96.0381 80.5 92.2301 84 86.2101 84ZM86.2101 69.02H81.3661V80.22H86.2101C90.0181 80.22 91.5581 79.128 91.5581 74.62C91.5581 70.112 90.0181 69.02 86.2101 69.02ZM106.4 84.28C100.184 84.28 96.3201 80.472 96.3201 74.62C96.3201 68.768 100.184 64.96 106.4 64.96C112.756 64.96 116.592 68.768 116.592 74.62C116.592 80.472 112.756 84.28 106.4 84.28ZM106.4 80.248C110.516 80.248 112.112 78.792 112.112 74.62C112.112 70.448 110.516 68.992 106.4 68.992C102.284 68.992 100.772 70.448 100.772 74.62C100.772 78.792 102.284 80.248 106.4 80.248ZM127.16 84H120.916L116.492 65.24H121.196L123.464 75.88L124.108 79.996H124.416L125.284 75.88L128.42 65.24H134.664L137.772 75.88L138.64 79.996H138.948L139.592 75.88L141.86 65.24H146.452L142 84H135.756L132.956 74.62L131.64 69.216H131.332L130.016 74.62L127.16 84ZM150.981 84H146.781V65.24H151.261L157.981 74.116L160.557 78.064H160.865L160.669 74.284V65.24H164.869V84H160.389L153.473 75.04L151.093 71.512H150.813L150.981 74.956V84ZM181.35 84H165.978V65.24H170.178V80.22H181.35V84ZM191.58 84.28C185.364 84.28 181.5 80.472 181.5 74.62C181.5 68.768 185.364 64.96 191.58 64.96C197.936 64.96 201.772 68.768 201.772 74.62C201.772 80.472 197.936 84.28 191.58 84.28ZM191.58 80.248C195.696 80.248 197.292 78.792 197.292 74.62C197.292 70.448 195.696 68.992 191.58 68.992C187.464 68.992 185.952 70.448 185.952 74.62C185.952 78.792 187.464 80.248 191.58 80.248ZM205.928 84H201.224L209.428 65.24H215.42L223.68 84H218.864L217.1 79.856H207.72L205.928 84ZM211.108 71.988L209.344 76.076H215.476L213.712 71.988L212.564 69.076H212.256L211.108 71.988ZM232.808 84H223.764V65.24H232.808C238.828 65.24 242.636 68.74 242.636 74.62C242.636 80.5 238.828 84 232.808 84ZM232.808 69.02H227.964V80.22H232.808C236.616 80.22 238.156 79.128 238.156 74.62C238.156 70.112 236.616 69.02 232.808 69.02ZM256.198 84.28C249.982 84.28 246.118 80.472 246.118 74.62C246.118 68.768 249.982 64.96 256.198 64.96C262.554 64.96 266.39 68.768 266.39 74.62C266.39 80.472 262.554 84.28 256.198 84.28ZM256.198 80.248C260.314 80.248 261.91 78.792 261.91 74.62C261.91 70.448 260.314 68.992 256.198 68.992C252.082 68.992 250.57 70.448 250.57 74.62C250.57 78.792 252.082 80.248 256.198 80.248ZM271.301 84H267.101V65.24H271.581L278.301 74.116L280.877 78.064H281.185L280.989 74.284V65.24H285.189V84H280.709L273.793 75.04L271.413 71.512H271.133L271.301 74.956V84ZM73.5252 102.544H69.3252V99.24H73.5252V102.544ZM73.5252 118H69.3252V103.972H73.5252V118ZM84.2637 118.28C78.0477 118.28 74.1837 114.472 74.1837 108.62C74.1837 102.768 78.0477 98.96 84.2637 98.96C90.6197 98.96 94.4557 102.768 94.4557 108.62C94.4557 114.472 90.6197 118.28 84.2637 118.28ZM84.2637 114.248C88.3797 114.248 89.9757 112.792 89.9757 108.62C89.9757 104.448 88.3797 102.992 84.2637 102.992C80.1477 102.992 78.6357 104.448 78.6357 108.62C78.6357 112.792 80.1477 114.248 84.2637 114.248ZM103.679 118.28C97.9953 118.28 94.8033 116.04 94.8033 111.672V111.504H99.0033V112.008C99.0033 113.744 99.8713 114.444 103.679 114.444C107.039 114.444 107.823 113.94 107.823 112.68C107.823 111.532 107.179 111.112 105.247 110.776L99.9833 110.02C96.6233 109.488 94.6353 107.808 94.6353 104.756C94.6353 101.928 96.9313 98.96 103.231 98.96C108.999 98.96 111.687 101.62 111.687 105.568V105.736H107.459V105.344C107.459 103.552 106.535 102.796 102.811 102.796C99.7873 102.796 98.8633 103.384 98.8633 104.588C98.8633 105.68 99.4793 106.072 101.047 106.352L106.311 107.192C110.511 107.864 112.023 109.908 112.023 112.484C112.023 115.536 109.643 118.28 103.679 118.28ZM122.778 111.532H112.334V107.92H122.778V111.532ZM136.467 118.28C130.251 118.28 126.387 114.472 126.387 108.62C126.387 102.768 130.251 98.96 136.467 98.96C142.823 98.96 146.659 102.768 146.659 108.62C146.659 114.472 142.823 118.28 136.467 118.28ZM136.467 114.248C140.583 114.248 142.179 112.792 142.179 108.62C142.179 104.448 140.583 102.992 136.467 102.992C132.351 102.992 130.839 104.448 130.839 108.62C130.839 112.792 132.351 114.248 136.467 114.248ZM151.571 118H147.371V99.24H157.731C162.351 99.24 164.983 101.284 164.983 104.868C164.983 107.92 163.219 109.74 159.691 110.076V110.3C161.371 110.748 162.015 111.644 162.715 112.96L165.431 118H160.559L157.983 113.128C157.227 111.672 156.527 111.196 154.343 111.196H151.571V118ZM151.571 103.02V108.032H157.703C159.691 108.032 160.587 107.472 160.587 105.512C160.587 103.664 159.691 103.02 157.703 103.02H151.571ZM172.282 118H167.578L175.782 99.24H181.774L190.034 118H185.218L183.454 113.856H174.074L172.282 118ZM177.462 105.988L175.698 110.076H181.83L180.066 105.988L178.918 103.076H178.61L177.462 105.988ZM194.094 118H189.894V99.24H194.374L201.094 108.116L203.67 112.064H203.978L203.782 108.284V99.24H207.982V118H203.502L196.586 109.04L194.206 105.512H193.926L194.094 108.956V118ZM218.358 118H209.314V99.24H218.358C224.378 99.24 228.186 102.74 228.186 108.62C228.186 114.5 224.378 118 218.358 118ZM218.358 103.02H213.514V114.22H218.358C222.166 114.22 223.706 113.128 223.706 108.62C223.706 104.112 222.166 103.02 218.358 103.02ZM233.088 118H228.888V99.24H239.248C243.868 99.24 246.5 101.284 246.5 104.868C246.5 107.92 244.736 109.74 241.208 110.076V110.3C242.888 110.748 243.532 111.644 244.232 112.96L246.948 118H242.076L239.5 113.128C238.744 111.672 238.044 111.196 235.86 111.196H233.088V118ZM233.088 103.02V108.032H239.22C241.208 108.032 242.104 107.472 242.104 105.512C242.104 103.664 241.208 103.02 239.22 103.02H233.088ZM251.355 118H247.155V99.24H251.355V118ZM262.093 118.28C255.877 118.28 252.013 114.472 252.013 108.62C252.013 102.768 255.877 98.96 262.093 98.96C268.449 98.96 272.285 102.768 272.285 108.62C272.285 114.472 268.449 118.28 262.093 118.28ZM262.093 114.248C266.209 114.248 267.805 112.792 267.805 108.62C267.805 104.448 266.209 102.992 262.093 102.992C257.977 102.992 256.465 104.448 256.465 108.62C256.465 112.792 257.977 114.248 262.093 114.248ZM282.265 118H273.221V99.24H282.265C288.285 99.24 292.093 102.74 292.093 108.62C292.093 114.5 288.285 118 282.265 118ZM282.265 103.02H277.421V114.22H282.265C286.073 114.22 287.613 113.128 287.613 108.62C287.613 104.112 286.073 103.02 282.265 103.02Z" fill="white"/>
</svg>
