<svg width="237" height="145" viewBox="0 0 237 145" fill="none" xmlns="http://www.w3.org/2000/svg">
<path d="M14.1965 76.6158C9.62254 14.8385 189.499 23.7455 195.59 66.3069C197.632 67.7625 197.891 65.412 198.656 60.8027C192.996 20.3139 12.64 7.23506 7.82928 73.5371C1.8028 156.594 230.249 179.144 236.199 76.6158C239.374 21.9015 99.4696 -14.8573 8.11226 5.85359C4.82743 6.69574 2.49971 8.23254 0 9.95845C97.3 -6.55426 233.683 26.1204 227.945 80.0676C218.054 173.067 19.1913 144.077 14.1965 76.6158Z" fill="white"/>
<path d="M59.895 82H55.191L63.395 63.24H69.387L77.647 82H72.831L71.067 77.856H61.687L59.895 82ZM65.075 69.988L63.311 74.076H69.443L67.679 69.988L66.531 67.076H66.223L65.075 69.988ZM81.7068 86.76H77.5068V67.972H81.3988V71.808H81.6788C82.1828 69.12 83.9748 67.692 87.2788 67.692C91.5908 67.692 93.9988 70.548 93.9988 75C93.9988 79.452 91.6468 82.28 87.4188 82.28C84.1708 82.28 82.3788 80.684 81.9028 78.22H81.7068V86.76ZM81.7068 75.196C81.7068 77.604 83.1628 78.444 85.7948 78.444C88.4828 78.444 89.7428 77.548 89.7428 75C89.7428 72.424 88.4828 71.556 85.8228 71.556C83.1068 71.556 81.7068 72.48 81.7068 74.972V75.196ZM98.8251 86.76H94.6251V67.972H98.5171V71.808H98.7971C99.3011 69.12 101.093 67.692 104.397 67.692C108.709 67.692 111.117 70.548 111.117 75C111.117 79.452 108.765 82.28 104.537 82.28C101.289 82.28 99.4971 80.684 99.0211 78.22H98.8251V86.76ZM98.8251 75.196C98.8251 77.604 100.281 78.444 102.913 78.444C105.601 78.444 106.861 77.548 106.861 75C106.861 72.424 105.601 71.556 102.941 71.556C100.225 71.556 98.8251 72.48 98.8251 74.972V75.196ZM115.943 82H111.743V63.24H115.943V82ZM119.71 86.76H117.414V82.952H120.858C121.894 82.952 122.342 82.672 122.622 82.056L115.762 67.972H120.522L123.49 74.384L124.666 77.688H124.946L126.066 74.356L128.726 67.972H133.402L126.458 83.008C125.114 85.948 123.238 86.76 119.71 86.76ZM140.693 82H136.493V63.24H152.369V67.02H140.693V71.248H151.949V75H140.693V82ZM160.513 82.28C155.725 82.28 152.505 79.424 152.505 75C152.505 70.52 155.725 67.692 160.513 67.692C165.301 67.692 168.521 70.52 168.521 75C168.521 79.424 165.301 82.28 160.513 82.28ZM160.513 78.556C163.341 78.556 164.349 77.464 164.349 75C164.349 72.536 163.341 71.388 160.513 71.388C157.657 71.388 156.677 72.536 156.677 75C156.677 77.464 157.657 78.556 160.513 78.556ZM173.316 82H169.116V67.972H173.008V71.696H173.26C173.652 69.428 175.136 67.692 177.964 67.692C181.1 67.692 182.388 69.848 182.388 72.592V74.916H178.188V73.46C178.188 71.92 177.572 71.248 175.864 71.248C173.988 71.248 173.316 72.116 173.316 73.88V82ZM99.8615 116H90.8175V97.24H99.8615C105.882 97.24 109.69 100.74 109.69 106.62C109.69 112.5 105.882 116 99.8615 116ZM99.8615 101.02H95.0175V112.22H99.8615C103.67 112.22 105.21 111.128 105.21 106.62C105.21 102.112 103.67 101.02 99.8615 101.02ZM120.835 116H116.635V101.02H109.663V97.24H127.807V101.02H120.835V116ZM132.393 116H128.193V97.24H132.393V104.688H142.193V97.24H146.393V116H142.193V108.468H132.393V116Z" fill="white"/>
</svg>
