<svg width="144" height="23" viewBox="0 0 144 23" fill="none" xmlns="http://www.w3.org/2000/svg">
<path d="M107.513 11.7913C95.2109 10.4776 40.805 16.1238 29.4408 21.9937C29.4408 22.2732 29.5689 22.2899 29.7249 22.2732C31.0318 22.1334 53.4584 17.8967 69.6984 16.4592C74.9602 15.9935 80.7042 15.6415 86.1196 14.9778C91.535 14.3141 107.513 11.7913 107.513 11.7913Z" fill="white"/>
<path d="M143.054 3.43375C143.054 3.43375 143.168 3.48967 143.026 3.76919C142.949 3.80666 142.656 3.99278 141.918 4.3282C140.838 4.99904 97.8093 3.49467 72.9372 6.0612L1.25771 12.7137C0.594928 12.7684 1.08725 12.2386 1.08725 12.2386C10.2894 9.37487 19.7245 6.34076 44.754 4.24443C61.9139 2.2887 93.8501 0.409137 100.382 0.554829C110.126 0.554829 130.879 1.91454 143.054 3.43375Z" fill="white"/>
</svg>
