<svg width="514" height="128" viewBox="0 0 514 128" fill="none" xmlns="http://www.w3.org/2000/svg">
<g clip-path="url(#clip0_1117_2885)">
<rect width="514" height="128" fill="url(#paint0_linear_1117_2885)" fill-opacity="0.02"/>
<rect width="514" height="128" fill="white" fill-opacity="0.04"/>
<rect x="0.5" y="0.5" width="513" height="127" stroke="white" stroke-opacity="0.08"/>
<g filter="url(#filter0_f_1117_2885)">
<rect x="37.3568" y="27.1934" width="80.0047" height="16" transform="rotate(25.5837 37.3568 27.1934)" fill="white" fill-opacity="0.32"/>
</g>
<g filter="url(#filter1_f_1117_2885)">
<rect x="406.177" y="77.9756" width="73.2911" height="16" transform="rotate(-39.9527 406.177 77.9756)" fill="white" fill-opacity="0.32"/>
</g>
<g filter="url(#filter2_f_1117_2885)">
<rect x="307" y="63" width="100" height="16" transform="rotate(-180 307 63)" fill="white" fill-opacity="0.32"/>
</g>
<path d="M50.2203 60.2539V135.915" stroke="#FCFCFC" stroke-opacity="0.08" stroke-width="12.6102"/>
<path d="M464.78 60.2539V135.915" stroke="#FCFCFC" stroke-opacity="0.08" stroke-width="12.6102"/>
<g filter="url(#filter3_b_1117_2885)">
<rect x="25" y="24" width="465" height="67.7797" rx="6.30508" fill="#7C7878" fill-opacity="0.08"/>
<path d="M51.5995 68.135L49.3336 66.0661C47.013 63.9425 44.9167 61.8354 43.0449 59.7446C41.1731 57.6539 40.2372 55.3497 40.2372 52.832C40.2372 50.7741 40.9268 49.0555 42.306 47.6763C43.6853 46.297 45.4038 45.6074 47.4618 45.6074C48.6221 45.6074 49.7167 45.8537 50.7457 46.3463C51.7746 46.8389 52.6503 47.5121 53.3728 48.3659C54.0952 47.5121 54.9709 46.8389 55.9999 46.3463C57.0288 45.8537 58.1235 45.6074 59.2838 45.6074C61.3417 45.6074 63.0603 46.297 64.4395 47.6763C65.8187 49.0555 66.5084 50.7741 66.5084 52.832C66.5084 55.3497 65.5779 57.6593 63.7171 59.761C61.8562 61.8627 59.7435 63.9754 57.3791 66.0989L55.1461 68.135C54.6425 68.5947 54.0514 68.8246 53.3728 68.8246C52.6941 68.8246 52.103 68.5947 51.5995 68.135Z" fill="#FCFCFC"/>
<path d="M84.5438 62.3896H76.1028V61.0278C76.1028 59.3538 76.8263 58.4884 78.8266 57.8216L81.2667 57.0272C82.1179 56.7293 82.43 56.4455 82.43 55.8213C82.43 55.0978 82.0328 54.6864 80.4723 54.6864C78.7273 54.6864 78.2024 55.2113 78.2024 56.2611V56.4455H76.117V56.2611C76.117 54.4169 77.3796 52.7429 80.5432 52.7429C83.4089 52.7429 84.5721 54.048 84.5721 55.8497C84.5721 57.5379 83.4656 58.3749 81.7774 58.843L79.7062 59.4105C78.7841 59.6942 78.3443 59.9638 78.3443 60.7156L80.8269 60.4745H84.5438V62.3896ZM90.056 62.5315C86.9491 62.5315 85.5447 61.2689 85.5447 59.1693V58.9423H87.8003V59.1693C87.8003 60.134 88.0699 60.4887 89.9567 60.4887C91.7442 60.4887 92.2974 60.2049 92.2974 59.3821C92.2974 58.6728 91.8435 58.3749 90.9497 58.3749H88.2117V56.63H90.7511C91.5739 56.63 91.9428 56.332 91.9428 55.7362C91.9428 55.0694 91.5456 54.7857 89.9283 54.7857C88.2259 54.7857 87.8003 55.1404 87.8003 56.1051V56.176H85.5447V56.1051C85.5447 54.1048 87.0201 52.7429 90.1127 52.7429C92.6521 52.7429 94.0566 53.6082 94.0566 55.2822C94.0566 56.3746 93.404 57.1123 92.1698 57.2683V57.4244C93.56 57.623 94.468 58.3323 94.468 59.7226C94.468 61.5668 92.8223 62.5315 90.056 62.5315ZM97.6868 62.3896H95.5589V52.8847H97.6868V56.6583H100.056L102.581 52.8847H105.135L101.829 57.5663L105.092 62.3896H102.539L100.084 58.7295H97.6868V62.3896Z" fill="white"/>
<path d="M130.661 42.127V73.6524" stroke="#FCFCFC" stroke-opacity="0.16" stroke-width="2.20678"/>
<g clip-path="url(#clip1_1117_2885)">
<path d="M168.975 66.2489C168.888 66.1032 168.764 65.9825 168.616 65.8988C168.468 65.8151 168.301 65.7711 168.131 65.7711H160.807C160.546 65.7711 160.295 65.6673 160.11 65.4826C159.926 65.2978 159.822 65.0472 159.822 64.786V49.0233C159.822 48.762 159.926 48.5114 160.11 48.3266C160.295 48.1419 160.546 48.0381 160.807 48.0381H182.481C182.742 48.0381 182.993 48.1419 183.177 48.3266C183.362 48.5114 183.466 48.762 183.466 49.0233V64.786C183.466 65.0472 183.362 65.2978 183.177 65.4826C182.993 65.6673 182.742 65.7711 182.481 65.7711H175.157C174.987 65.7711 174.82 65.8151 174.672 65.8988C174.524 65.9825 174.4 66.1032 174.313 66.2489L172.489 69.234C172.401 69.3799 172.277 69.5006 172.129 69.5844C171.981 69.6683 171.814 69.7123 171.644 69.7123C171.474 69.7123 171.307 69.6683 171.159 69.5844C171.01 69.5006 170.887 69.3799 170.799 69.234L168.975 66.2489Z" stroke="#FCFCFC" stroke-width="2.52203" stroke-linecap="round" stroke-linejoin="round"/>
<path d="M167.703 54.9346H175.585" stroke="#FCFCFC" stroke-width="2.52203" stroke-linecap="round" stroke-linejoin="round"/>
<path d="M167.703 58.874H175.585" stroke="#FCFCFC" stroke-width="2.52203" stroke-linecap="round" stroke-linejoin="round"/>
</g>
<path d="M198.688 62.5315C196.078 62.5315 194.418 61.2831 194.418 59.3396V59.2261H196.787V59.3396C196.787 60.1624 197.312 60.4887 198.688 60.4887C200.362 60.4887 201.029 59.9212 201.029 57.9635V57.3393H200.873C200.476 58.1195 199.454 58.7579 197.752 58.7579C195.411 58.7579 194.106 57.8074 194.106 55.8639C194.106 53.9629 195.596 52.7429 198.419 52.7429C201.88 52.7429 203.299 54.2466 203.299 57.5804C203.299 60.9143 201.469 62.5315 198.688 62.5315ZM198.532 57.2825C200.306 57.2825 200.859 56.8853 200.859 56.0199C200.859 55.1971 200.291 54.7857 198.532 54.7857C196.844 54.7857 196.333 55.1829 196.333 56.0199C196.333 56.8995 196.83 57.2825 198.532 57.2825ZM209.117 62.5315C206.053 62.5315 204.364 60.6022 204.364 57.6372C204.364 54.6864 206.053 52.7429 209.117 52.7429C212.167 52.7429 213.869 54.6864 213.869 57.6372C213.869 60.6022 212.167 62.5315 209.117 62.5315ZM209.117 60.4603C210.919 60.4603 211.585 59.68 211.585 57.6372C211.585 55.5943 210.919 54.8141 209.117 54.8141C207.301 54.8141 206.648 55.5943 206.648 57.6372C206.648 59.68 207.301 60.4603 209.117 60.4603ZM219.597 62.5315C216.533 62.5315 214.845 60.6022 214.845 57.6372C214.845 54.6864 216.533 52.7429 219.597 52.7429C222.647 52.7429 224.35 54.6864 224.35 57.6372C224.35 60.6022 222.647 62.5315 219.597 62.5315ZM219.597 60.4603C221.399 60.4603 222.066 59.68 222.066 57.6372C222.066 55.5943 221.399 54.8141 219.597 54.8141C217.781 54.8141 217.129 55.5943 217.129 57.6372C217.129 59.68 217.781 60.4603 219.597 60.4603Z" fill="#FCFCFC"/>
<path d="M249.932 42.127V73.6524" stroke="#FCFCFC" stroke-opacity="0.16" stroke-width="2.20678"/>
<path d="M284.347 64.4579C282.53 64.4579 280.981 63.8175 279.701 62.5368C278.42 61.2561 277.78 59.7072 277.78 57.8901C277.78 56.073 278.42 54.5241 279.701 53.2433C280.981 51.9626 282.53 51.3223 284.347 51.3223H288.288C288.66 51.3223 288.972 51.4481 289.224 51.6999C289.476 51.9517 289.602 52.2636 289.602 52.6358C289.602 53.008 289.476 53.32 289.224 53.5717C288.972 53.8235 288.66 53.9494 288.288 53.9494H284.347C283.253 53.9494 282.322 54.3325 281.556 55.0987C280.79 55.865 280.407 56.7954 280.407 57.8901C280.407 58.9847 280.79 59.9151 281.556 60.6814C282.322 61.4476 283.253 61.8307 284.347 61.8307H288.288C288.66 61.8307 288.972 61.9566 289.224 62.2084C289.476 62.4602 289.602 62.7721 289.602 63.1443C289.602 63.5165 289.476 63.8284 289.224 64.0802C288.972 64.332 288.66 64.4579 288.288 64.4579H284.347ZM286.974 59.2036C286.602 59.2036 286.29 59.0777 286.039 58.826C285.787 58.5742 285.661 58.2622 285.661 57.8901C285.661 57.5179 285.787 57.2059 286.039 56.9542C286.29 56.7024 286.602 56.5765 286.974 56.5765H294.856C295.228 56.5765 295.54 56.7024 295.792 56.9542C296.043 57.2059 296.169 57.5179 296.169 57.8901C296.169 58.2622 296.043 58.5742 295.792 58.826C295.54 59.0777 295.228 59.2036 294.856 59.2036H286.974ZM293.542 64.4579C293.17 64.4579 292.858 64.332 292.606 64.0802C292.355 63.8284 292.229 63.5165 292.229 63.1443C292.229 62.7721 292.355 62.4602 292.606 62.2084C292.858 61.9566 293.17 61.8307 293.542 61.8307H297.483C298.578 61.8307 299.508 61.4476 300.274 60.6814C301.04 59.9151 301.424 58.9847 301.424 57.8901C301.424 56.7954 301.04 55.865 300.274 55.0987C299.508 54.3325 298.578 53.9494 297.483 53.9494H293.542C293.17 53.9494 292.858 53.8235 292.606 53.5717C292.355 53.32 292.229 53.008 292.229 52.6358C292.229 52.2636 292.355 51.9517 292.606 51.6999C292.858 51.4481 293.17 51.3223 293.542 51.3223H297.483C299.3 51.3223 300.849 51.9626 302.13 53.2433C303.41 54.5241 304.051 56.073 304.051 57.8901C304.051 59.7072 303.41 61.2561 302.13 62.5368C300.849 63.8175 299.3 64.4579 297.483 64.4579H293.542Z" fill="#FCFCFC"/>
<path d="M353.169 46.0684V69.7124" stroke="#FCFCFC" stroke-opacity="0.16" stroke-width="2.20678"/>
<path d="M370.72 62.3896H368.592V55.5234H366.152V54.0622H366.549C367.599 54.0622 368.309 53.821 368.777 52.8847H370.72V62.3896ZM381.929 62.3896H379.801V60.5738H373.771V59.1268L379.46 52.8847H381.929V58.6586H383.376V60.5738H381.929V62.3896ZM376.736 58.6586H379.801V55.339H379.645L376.736 58.5026V58.6586ZM388.54 62.3896H386.412V52.8847H389.292L391.519 57.5663L392.413 59.7935H392.569L393.435 57.5663L395.591 52.8847H398.485V62.3896H396.357V57.5663L396.428 56.0767H396.272L395.719 57.5663L393.732 61.8222H391.151L389.164 57.5663L388.611 56.0767H388.455L388.54 57.5663V62.3896ZM405.843 60.8008H404.013V58.5168H401.758V56.7576H404.013V54.4736H405.843V56.7576H408.099V58.5168H405.843V60.8008Z" fill="#FCFCFC"/>
<path d="M415.406 62.3896H413.236L409.179 52.8847H410.994L414.286 60.8433H414.399L417.662 52.8847H419.464L415.406 62.3896ZM423.916 62.3896H422.384V52.8847H423.916V62.3896ZM435.208 62.3896H427.604V52.8847H435.208V54.2608H429.136V56.9279H434.995V58.2898H429.136V61.0136H435.208V62.3896ZM442.927 62.3896H440.672L438.161 52.8847H439.863L441.409 58.8998L441.835 60.9143H441.948L442.459 58.8998L444.374 52.8847H446.602L448.644 58.8998L449.184 60.9143H449.297L449.694 58.8998L451.113 52.8847H452.787L450.404 62.3896H448.148L446.233 56.8569L445.538 54.4169H445.41L444.729 56.8569L442.927 62.3896ZM459.945 62.5315C457.108 62.5315 455.661 61.2831 455.661 59.2828V59.1977H457.193V59.4247C457.193 60.5596 457.86 61.1271 459.945 61.1271C461.761 61.1271 462.4 60.7298 462.4 59.8361C462.4 59.0133 461.917 58.7012 460.711 58.4742L458.385 58.0912C456.782 57.8074 455.647 57.0697 455.647 55.5092C455.647 54.1331 456.782 52.7429 459.733 52.7429C462.513 52.7429 463.776 54.1331 463.776 55.9916V56.0767H462.258V55.8923C462.258 54.729 461.563 54.1473 459.591 54.1473C457.86 54.1473 457.179 54.5729 457.179 55.4241C457.179 56.2469 457.661 56.5165 458.782 56.7576L461.094 57.1549C462.995 57.4953 463.932 58.3607 463.932 59.751C463.932 61.198 462.754 62.5315 459.945 62.5315Z" fill="#FCFCFC"/>
<rect x="25.5" y="24.5" width="464" height="66.7797" rx="5.80508" stroke="white" stroke-opacity="0.1"/>
</g>
</g>
<defs>
<filter id="filter0_f_1117_2885" x="-1.55249" y="-4.80664" width="143.07" height="112.979" filterUnits="userSpaceOnUse" color-interpolation-filters="sRGB">
<feFlood flood-opacity="0" result="BackgroundImageFix"/>
<feBlend mode="normal" in="SourceGraphic" in2="BackgroundImageFix" result="shape"/>
<feGaussianBlur stdDeviation="16" result="effect1_foregroundBlur_1117_2885"/>
</filter>
<filter id="filter1_f_1117_2885" x="374.177" y="-1.08887" width="130.458" height="123.33" filterUnits="userSpaceOnUse" color-interpolation-filters="sRGB">
<feFlood flood-opacity="0" result="BackgroundImageFix"/>
<feBlend mode="normal" in="SourceGraphic" in2="BackgroundImageFix" result="shape"/>
<feGaussianBlur stdDeviation="16" result="effect1_foregroundBlur_1117_2885"/>
</filter>
<filter id="filter2_f_1117_2885" x="175" y="15" width="164" height="80" filterUnits="userSpaceOnUse" color-interpolation-filters="sRGB">
<feFlood flood-opacity="0" result="BackgroundImageFix"/>
<feBlend mode="normal" in="SourceGraphic" in2="BackgroundImageFix" result="shape"/>
<feGaussianBlur stdDeviation="16" result="effect1_foregroundBlur_1117_2885"/>
</filter>
<filter id="filter3_b_1117_2885" x="1" y="0" width="513" height="115.779" filterUnits="userSpaceOnUse" color-interpolation-filters="sRGB">
<feFlood flood-opacity="0" result="BackgroundImageFix"/>
<feGaussianBlur in="BackgroundImageFix" stdDeviation="12"/>
<feComposite in2="SourceAlpha" operator="in" result="effect1_backgroundBlur_1117_2885"/>
<feBlend mode="normal" in="SourceGraphic" in2="effect1_backgroundBlur_1117_2885" result="shape"/>
</filter>
<linearGradient id="paint0_linear_1117_2885" x1="299.258" y1="-36.0727" x2="299.651" y2="132.371" gradientUnits="userSpaceOnUse">
<stop stop-color="white"/>
<stop offset="1" stop-color="white" stop-opacity="0"/>
</linearGradient>
<clipPath id="clip0_1117_2885">
<rect width="514" height="128" fill="white"/>
</clipPath>
<clipPath id="clip1_1117_2885">
<rect width="31.5254" height="31.5254" fill="white" transform="translate(155.881 42.127)"/>
</clipPath>
</defs>
</svg>
