<svg width="321" height="128" viewBox="0 0 321 128" fill="none" xmlns="http://www.w3.org/2000/svg">
<g clip-path="url(#clip0_1117_2921)">
<rect width="321" height="128" fill="url(#paint0_linear_1117_2921)" fill-opacity="0.02"/>
<rect width="321" height="128" fill="white" fill-opacity="0.04"/>
<rect x="0.5" y="0.5" width="320" height="127" stroke="white" stroke-opacity="0.08"/>
<g filter="url(#filter0_f_1117_2921)">
<rect x="27.3568" y="19.1934" width="80.0047" height="16" transform="rotate(25.5837 27.3568 19.1934)" fill="white" fill-opacity="0.32"/>
</g>
<g filter="url(#filter1_f_1117_2921)">
<rect x="244.272" y="114.371" width="59.8917" height="16" transform="rotate(-39.9527 244.272 114.371)" fill="white" fill-opacity="0.32"/>
</g>
<g filter="url(#filter2_f_1117_2921)">
<rect x="179" y="111" width="69" height="16" transform="rotate(-180 179 111)" fill="white" fill-opacity="0.24"/>
</g>
<g filter="url(#filter3_f_1117_2921)">
<rect x="231" y="43" width="33" height="16" transform="rotate(-180 231 43)" fill="white" fill-opacity="0.16"/>
</g>
<g filter="url(#filter4_b_1117_2921)">
<mask id="path-8-inside-1_1117_2921" fill="white">
<path d="M16 15H304.411V127.206H16V15Z"/>
</mask>
<path d="M16 15H304.411V127.206H16V15Z" fill="#7C7878" fill-opacity="0.08"/>
<path d="M34.527 43.3022C34.6475 43.3022 34.76 43.2781 34.8645 43.2299C34.977 43.1816 35.0735 43.1173 35.1539 43.037C35.2423 42.9486 35.3106 42.8521 35.3588 42.7476C35.4151 42.6351 35.4432 42.5186 35.4432 42.398H37.4565C37.4565 42.7597 37.3922 43.1013 37.2636 43.4227C37.135 43.7442 36.9462 44.0255 36.697 44.2667C36.4559 44.5078 36.1505 44.7007 35.7808 44.8453C35.4191 44.982 35.0012 45.0503 34.527 45.0503H34.2497C33.7755 45.0503 33.3535 44.982 32.9838 44.8453C32.6221 44.7007 32.3167 44.5078 32.0676 44.2667C31.8265 44.0255 31.6416 43.7442 31.513 43.4227C31.3844 43.1013 31.3201 42.7597 31.3201 42.398L31.3081 38.4799H31.3201C31.3362 38.1343 31.4125 37.8088 31.5492 37.5034C31.6858 37.1979 31.8747 36.9327 32.1158 36.7077C32.365 36.4746 32.6664 36.2938 33.02 36.1652C33.3817 36.0366 33.7916 35.9723 34.2497 35.9723H34.527C35.0012 35.9723 35.4191 36.0446 35.7808 36.1893C36.1505 36.3259 36.4559 36.5148 36.697 36.7559C36.9462 36.997 37.135 37.2783 37.2636 37.5998C37.3922 37.9213 37.4565 38.2629 37.4565 38.6245H35.4432C35.4432 38.3834 35.3508 38.1745 35.1659 37.9976C34.9811 37.8128 34.7681 37.7204 34.527 37.7204H34.2497C34.0086 37.7204 33.7956 37.8128 33.6107 37.9976C33.4259 38.1745 33.3334 38.3834 33.3334 38.6245V42.398C33.3334 42.5186 33.3576 42.6351 33.4058 42.7476C33.454 42.8521 33.5183 42.9486 33.5987 43.037C33.6871 43.1173 33.7875 43.1816 33.9001 43.2299C34.0126 43.2781 34.1291 43.3022 34.2497 43.3022H34.527ZM44.0856 42.5186C44.0695 42.8642 43.9932 43.1897 43.8565 43.4951C43.7199 43.8005 43.527 44.0657 43.2779 44.2908C43.0287 44.5158 42.7273 44.6966 42.3737 44.8333C42.02 44.9619 41.6142 45.0262 41.156 45.0262H40.8667C40.3925 45.0262 39.9706 44.9579 39.6008 44.8212C39.2392 44.6766 38.9338 44.4837 38.6846 44.2425C38.4435 44.0014 38.2586 43.7201 38.13 43.3986C38.0014 43.0771 37.9371 42.7356 37.9371 42.3739V38.4558C37.9532 38.1102 38.0296 37.7847 38.1662 37.4792C38.3028 37.1738 38.4917 36.9086 38.7328 36.6836C38.982 36.4505 39.2834 36.2696 39.637 36.1411C39.9987 36.0125 40.4086 35.9482 40.8667 35.9482H41.156C41.6302 35.9482 42.0482 36.0205 42.4098 36.1652C42.7796 36.3018 43.085 36.4907 43.3261 36.7318C43.5752 36.9729 43.7641 37.2542 43.8927 37.5757C44.0213 37.8972 44.0856 38.2388 44.0856 38.6004V42.5186ZM41.156 43.2781C41.2766 43.2781 41.3891 43.254 41.4936 43.2057C41.6061 43.1575 41.7026 43.0932 41.7829 43.0129C41.8714 42.9244 41.9397 42.828 41.9879 42.7235C42.0361 42.611 42.0602 42.4945 42.0602 42.3739V38.6004C42.0602 38.3593 41.9678 38.1504 41.7829 37.9735C41.6061 37.7887 41.3972 37.6962 41.156 37.6962H40.8667C40.7461 37.6962 40.6296 37.7204 40.5171 37.7686C40.4126 37.8168 40.3162 37.8851 40.2277 37.9735C40.1474 38.0539 40.0831 38.1504 40.0349 38.2629C39.9866 38.3674 39.9625 38.4799 39.9625 38.6004V42.3739C39.9625 42.4945 39.9866 42.611 40.0349 42.7235C40.0831 42.828 40.1474 42.9244 40.2277 43.0129C40.3162 43.0932 40.4126 43.1575 40.5171 43.2057C40.6296 43.254 40.7461 43.2781 40.8667 43.2781H41.156ZM49.1713 36.0687H51.2087V44.8936H49.1713L47.0856 40.6379V44.8936H45.0482V36.0687H47.0856H47.0977L49.1713 40.5052V36.0687ZM57.8143 36.0687V37.865H55.9095V44.8936H53.8721V37.865H51.9673V36.0687H57.8143ZM64.2075 42.5186C64.1914 42.8642 64.115 43.1897 63.9784 43.4951C63.8418 43.8005 63.6489 44.0657 63.3997 44.2908C63.1506 44.5158 62.8492 44.6966 62.4955 44.8333C62.1419 44.9619 61.736 45.0262 61.2779 45.0262H60.9886C60.5144 45.0262 60.0924 44.9579 59.7227 44.8212C59.361 44.6766 59.0556 44.4837 58.8065 44.2425C58.5654 44.0014 58.3805 43.7201 58.2519 43.3986C58.1233 43.0771 58.059 42.7356 58.059 42.3739V38.4558C58.0751 38.1102 58.1514 37.7847 58.2881 37.4792C58.4247 37.1738 58.6136 36.9086 58.8547 36.6836C59.1038 36.4505 59.4052 36.2696 59.7589 36.1411C60.1205 36.0125 60.5304 35.9482 60.9886 35.9482H61.2779C61.7521 35.9482 62.17 36.0205 62.5317 36.1652C62.9014 36.3018 63.2068 36.4907 63.4479 36.7318C63.6971 36.9729 63.886 37.2542 64.0146 37.5757C64.1432 37.8972 64.2075 38.2388 64.2075 38.6004V42.5186ZM61.2779 43.2781C61.3985 43.2781 61.511 43.254 61.6155 43.2057C61.728 43.1575 61.8244 43.0932 61.9048 43.0129C61.9932 42.9244 62.0615 42.828 62.1098 42.7235C62.158 42.611 62.1821 42.4945 62.1821 42.3739V38.6004C62.1821 38.3593 62.0897 38.1504 61.9048 37.9735C61.728 37.7887 61.519 37.6962 61.2779 37.6962H60.9886C60.868 37.6962 60.7515 37.7204 60.6389 37.7686C60.5345 37.8168 60.438 37.8851 60.3496 37.9735C60.2692 38.0539 60.2049 38.1504 60.1567 38.2629C60.1085 38.3674 60.0844 38.4799 60.0844 38.6004V42.3739C60.0844 42.4945 60.1085 42.611 60.1567 42.7235C60.2049 42.828 60.2692 42.9244 60.3496 43.0129C60.438 43.0932 60.5345 43.1575 60.6389 43.2057C60.7515 43.254 60.868 43.2781 60.9886 43.2781H61.2779ZM68.1237 42.9526H67.2075V44.8936H65.17V36.0687H65.7969H68.3769C68.7948 36.0446 69.1766 36.0968 69.5222 36.2254C69.8758 36.346 70.1812 36.5228 70.4384 36.7559C70.6956 36.989 70.8965 37.2622 71.0412 37.5757C71.1939 37.8891 71.2823 38.2187 71.3064 38.5643V40.3003C71.3064 40.7263 71.214 41.1241 71.0292 41.4938C70.8523 41.8555 70.5951 42.1609 70.2576 42.4101L71.6922 44.8936H69.3413L68.1237 42.9526ZM69.2931 38.7089C69.2931 38.5884 69.265 38.4759 69.2087 38.3714C69.1605 38.2589 69.0922 38.1624 69.0038 38.082C68.9234 37.9936 68.827 37.9253 68.7144 37.8771C68.61 37.8289 68.4974 37.8048 68.3769 37.8048H67.2075V41.2045H68.3769C68.618 41.2045 68.831 41.1161 69.0158 40.9393C69.2007 40.7544 69.2931 40.5414 69.2931 40.3003V38.7089ZM77.4535 36.0687V37.865H75.5487V44.8936H73.5112V37.865H71.6064V36.0687H77.4535ZM80.2058 44.8936H78.1804V36.0687H80.2058V44.8936ZM87.3202 42.5186C87.3041 42.8642 87.2278 43.1897 87.0911 43.4951C86.9545 43.8005 86.7616 44.0657 86.5125 44.2908C86.2633 44.5158 85.9619 44.6966 85.6083 44.8333C85.2546 44.9619 84.8488 45.0262 84.3906 45.0262H84.1013C83.6271 45.0262 83.2052 44.9579 82.8354 44.8212C82.4738 44.6766 82.1684 44.4837 81.9192 44.2425C81.6781 44.0014 81.4932 43.7201 81.3646 43.3986C81.236 43.0771 81.1717 42.7356 81.1717 42.3739V38.4558C81.1878 38.1102 81.2642 37.7847 81.4008 37.4792C81.5374 37.1738 81.7263 36.9086 81.9674 36.6836C82.2166 36.4505 82.518 36.2696 82.8716 36.1411C83.2333 36.0125 83.6432 35.9482 84.1013 35.9482H84.3906C84.8648 35.9482 85.2828 36.0205 85.6444 36.1652C86.0141 36.3018 86.3196 36.4907 86.5607 36.7318C86.8098 36.9729 86.9987 37.2542 87.1273 37.5757C87.2559 37.8972 87.3202 38.2388 87.3202 38.6004V42.5186ZM84.3906 43.2781C84.5112 43.2781 84.6237 43.254 84.7282 43.2057C84.8407 43.1575 84.9372 43.0932 85.0175 43.0129C85.1059 42.9244 85.1743 42.828 85.2225 42.7235C85.2707 42.611 85.2948 42.4945 85.2948 42.3739V38.6004C85.2948 38.3593 85.2024 38.1504 85.0175 37.9735C84.8407 37.7887 84.6318 37.6962 84.3906 37.6962H84.1013C83.9807 37.6962 83.8642 37.7204 83.7517 37.7686C83.6472 37.8168 83.5508 37.8851 83.4623 37.9735C83.382 38.0539 83.3177 38.1504 83.2694 38.2629C83.2212 38.3674 83.1971 38.4799 83.1971 38.6004V42.3739C83.1971 42.4945 83.2212 42.611 83.2694 42.7235C83.3177 42.828 83.382 42.9244 83.4623 43.0129C83.5508 43.0932 83.6472 43.1575 83.7517 43.2057C83.8642 43.254 83.9807 43.2781 84.1013 43.2781H84.3906ZM92.4059 36.0687H94.4433V44.8936H92.4059L90.3202 40.6379V44.8936H88.2828V36.0687H90.3202H90.3323L92.4059 40.5052V36.0687ZM97.9023 44.8936H95.877V36.0687H97.9023V44.8936ZM102.22 39.5167C102.606 39.5167 102.963 39.589 103.293 39.7337C103.63 39.8783 103.924 40.0753 104.173 40.3244C104.43 40.5736 104.631 40.8669 104.776 41.2045C104.92 41.534 104.993 41.8917 104.993 42.2774C104.993 42.6552 104.92 43.0129 104.776 43.3504C104.631 43.688 104.43 43.9813 104.173 44.2305C103.924 44.4796 103.63 44.6766 103.293 44.8212C102.963 44.9659 102.606 45.0382 102.22 45.0382H101.605C101.219 45.0382 100.858 44.9659 100.52 44.8212C100.19 44.6766 99.9011 44.4796 99.6519 44.2305C99.4028 43.9813 99.2059 43.688 99.0612 43.3504C98.9165 43.0129 98.8442 42.6552 98.8442 42.2774H100.701C100.701 42.5266 100.785 42.7396 100.954 42.9164C101.131 43.0932 101.348 43.1816 101.605 43.1816H102.22C102.477 43.1816 102.694 43.0932 102.871 42.9164C103.048 42.7396 103.136 42.5266 103.136 42.2774C103.136 42.0203 103.048 41.8033 102.871 41.6264C102.694 41.4496 102.477 41.3612 102.22 41.3612H101.605C101.219 41.3612 100.858 41.2969 100.52 41.1683C100.19 41.0317 99.9011 40.8468 99.6519 40.6138C99.4028 40.3807 99.2059 40.1034 99.0612 39.7819C98.9165 39.4604 98.8442 39.1068 98.8442 38.721C98.8442 38.3432 98.9165 37.9856 99.0612 37.648C99.2059 37.3105 99.4028 37.0171 99.6519 36.768C99.9011 36.5188 100.19 36.3219 100.52 36.1772C100.858 36.0326 101.219 35.9602 101.605 35.9602H102.22C102.606 35.9602 102.963 36.0326 103.293 36.1772C103.63 36.3219 103.924 36.5188 104.173 36.768C104.43 37.0171 104.631 37.3105 104.776 37.648C104.92 37.9856 104.993 38.3432 104.993 38.721H103.136C103.136 38.4718 103.048 38.2589 102.871 38.082C102.694 37.9052 102.477 37.8168 102.22 37.8168H101.605C101.348 37.8168 101.131 37.9052 100.954 38.082C100.785 38.2589 100.701 38.4718 100.701 38.721C100.701 38.9782 100.785 39.1751 100.954 39.3117C101.131 39.4484 101.348 39.5167 101.605 39.5167H102.22ZM111.128 36.0687V37.865H109.223V44.8936H107.185V37.865H105.281V36.0687H111.128Z" fill="#FCFCFC"/>
<rect x="255.261" y="29.8379" width="34.3126" height="24.1116" rx="12.0558" fill="#FCFCFC" fill-opacity="0.04"/>
<rect x="257.116" y="31.6924" width="30.6031" height="20.4021" rx="10.2011" fill="#FCFCFC" fill-opacity="0.06"/>
<g clip-path="url(#clip1_1117_2921)">
<path d="M269.326 44.9852C268.471 44.9852 267.742 44.6838 267.139 44.081C266.536 43.4782 266.235 42.7492 266.235 41.894C266.235 41.0387 266.536 40.3097 267.139 39.7069C267.742 39.1041 268.471 38.8027 269.326 38.8027H271.181C271.356 38.8027 271.503 38.862 271.621 38.9805C271.74 39.099 271.799 39.2458 271.799 39.421C271.799 39.5961 271.74 39.743 271.621 39.8615C271.503 39.98 271.356 40.0392 271.181 40.0392H269.326C268.811 40.0392 268.373 40.2195 268.012 40.5802C267.651 40.9408 267.471 41.3788 267.471 41.894C267.471 42.4092 267.651 42.8471 268.012 43.2077C268.373 43.5684 268.811 43.7487 269.326 43.7487H271.181C271.356 43.7487 271.503 43.8079 271.621 43.9264C271.74 44.0449 271.799 44.1918 271.799 44.3669C271.799 44.5421 271.74 44.6889 271.621 44.8074C271.503 44.9259 271.356 44.9852 271.181 44.9852H269.326ZM270.562 42.5122C270.387 42.5122 270.24 42.453 270.122 42.3345C270.003 42.216 269.944 42.0691 269.944 41.894C269.944 41.7188 270.003 41.572 270.122 41.4535C270.24 41.335 270.387 41.2757 270.562 41.2757H274.272C274.447 41.2757 274.594 41.335 274.712 41.4535C274.831 41.572 274.89 41.7188 274.89 41.894C274.89 42.0691 274.831 42.216 274.712 42.3345C274.594 42.453 274.447 42.5122 274.272 42.5122H270.562ZM273.654 44.9852C273.478 44.9852 273.332 44.9259 273.213 44.8074C273.095 44.6889 273.035 44.5421 273.035 44.3669C273.035 44.1918 273.095 44.0449 273.213 43.9264C273.332 43.8079 273.478 43.7487 273.654 43.7487H275.508C276.024 43.7487 276.461 43.5684 276.822 43.2077C277.183 42.8471 277.363 42.4092 277.363 41.894C277.363 41.3788 277.183 40.9408 276.822 40.5802C276.461 40.2195 276.024 40.0392 275.508 40.0392H273.654C273.478 40.0392 273.332 39.98 273.213 39.8615C273.095 39.743 273.035 39.5961 273.035 39.421C273.035 39.2458 273.095 39.099 273.213 38.9805C273.332 38.862 273.478 38.8027 273.654 38.8027H275.508C276.364 38.8027 277.093 39.1041 277.695 39.7069C278.298 40.3097 278.6 41.0387 278.6 41.894C278.6 42.7492 278.298 43.4782 277.695 44.081C277.093 44.6838 276.364 44.9852 275.508 44.9852H273.654Z" fill="#FCFCFC"/>
</g>
<rect x="255.725" y="30.3016" width="33.3853" height="23.1842" rx="11.5921" stroke="#FCFCFC" stroke-opacity="0.08" stroke-width="0.927368"/>
<path d="M32.062 73.3682H30.8379L33.888 66.5335H35.4386L38.4887 73.3682H37.2442L36.4587 71.5932H32.8475L32.062 73.3682ZM34.2144 68.5227L33.2861 70.6037H36.02L35.0917 68.5227L34.6939 67.5536H34.6123L34.2144 68.5227ZM43.3025 73.4702C41.6296 73.4702 40.5381 72.3991 40.5381 70.8383C40.5381 69.2571 41.6296 68.1962 43.3025 68.1962C44.8225 68.1962 45.9344 69.0531 45.9344 70.318V70.4201H44.8429V70.3589C44.8429 69.5734 44.2716 69.1857 43.2821 69.1857C42.1396 69.1857 41.6296 69.7264 41.6296 70.8383C41.6296 71.9298 42.1396 72.4807 43.2821 72.4807C44.2716 72.4807 44.8429 72.093 44.8429 71.3076V71.2361H45.9344V71.3484C45.9344 72.6133 44.8225 73.4702 43.3025 73.4702ZM49.3402 73.4702C47.657 73.4702 46.5247 72.3991 46.5247 70.8383C46.5247 69.2571 47.657 68.1962 49.3402 68.1962C51.0336 68.1962 52.1659 69.2571 52.1659 70.8383C52.1659 72.3991 51.0336 73.4702 49.3402 73.4702ZM49.3402 72.4909C50.5745 72.4909 51.0846 71.9094 51.0846 70.8383C51.0846 69.757 50.5745 69.1653 49.3402 69.1653C48.1161 69.1653 47.606 69.757 47.606 70.8383C47.606 71.9094 48.1161 72.4909 49.3402 72.4909ZM54.0671 73.3682H52.9654V68.2982H53.9753V69.8692H54.0467C54.1997 69.0123 54.873 68.1962 56.1583 68.1962C57.5661 68.1962 58.2597 69.1449 58.2597 70.318V73.3682H57.158V70.6139C57.158 69.6652 56.7296 69.1857 55.6789 69.1857C54.567 69.1857 54.0671 69.757 54.0671 70.8587V73.3682ZM62.567 73.3682H61.4041C60.3125 73.3682 59.6393 72.8887 59.6393 71.6544V69.2163H58.7824V68.2982H59.6393V67.1863H60.7308V68.2982H62.567V69.2163H60.7308V71.5932C60.7308 72.2154 61.0164 72.3787 61.6489 72.3787H62.567V73.3682ZM65.8472 73.4702C64.164 73.4702 63.0317 72.3991 63.0317 70.8383C63.0317 69.2571 64.164 68.1962 65.8472 68.1962C67.5406 68.1962 68.6729 69.2571 68.6729 70.8383C68.6729 72.3991 67.5406 73.4702 65.8472 73.4702ZM65.8472 72.4909C67.0815 72.4909 67.5916 71.9094 67.5916 70.8383C67.5916 69.757 67.0815 69.1653 65.8472 69.1653C64.6231 69.1653 64.113 69.757 64.113 70.8383C64.113 71.9094 64.6231 72.4909 65.8472 72.4909ZM70.5741 73.3682H69.4724V68.2982H70.4823V69.6652H70.5537C70.7067 68.8491 71.2576 68.1962 72.2981 68.1962C73.4508 68.1962 73.9506 69.0225 73.9506 69.9814V70.6445H72.8591V70.1956C72.8591 69.4714 72.5531 69.1347 71.7982 69.1347C70.9311 69.1347 70.5741 69.6142 70.5741 70.5221V73.3682ZM77.9682 73.3682H76.8053C75.7137 73.3682 75.0405 72.8887 75.0405 71.6544V69.2163H74.1836V68.2982H75.0405V67.1863H76.132V68.2982H77.9682V69.2163H76.132V71.5932C76.132 72.2154 76.4176 72.3787 77.0501 72.3787H77.9682V73.3682ZM79.759 67.7066H78.6573V66.5335H79.759V67.7066ZM79.759 73.3682H78.6573V68.2982H79.759V73.3682ZM83.3703 73.4702C81.6871 73.4702 80.5548 72.3991 80.5548 70.8383C80.5548 69.2571 81.6871 68.1962 83.3703 68.1962C85.0636 68.1962 86.196 69.2571 86.196 70.8383C86.196 72.3991 85.0636 73.4702 83.3703 73.4702ZM83.3703 72.4909C84.6046 72.4909 85.1146 71.9094 85.1146 70.8383C85.1146 69.757 84.6046 69.1653 83.3703 69.1653C82.1461 69.1653 81.6361 69.757 81.6361 70.8383C81.6361 71.9094 82.1461 72.4909 83.3703 72.4909ZM88.0972 73.3682H86.9955V68.2982H88.0054V69.8692H88.0768C88.2298 69.0123 88.9031 68.1962 90.1884 68.1962C91.5961 68.1962 92.2898 69.1449 92.2898 70.318V73.3682H91.1881V70.6139C91.1881 69.6652 90.7597 69.1857 89.7089 69.1857C88.597 69.1857 88.0972 69.757 88.0972 70.8587V73.3682ZM94.3732 67.7066H93.2715V66.5335H94.3732V67.7066ZM94.3732 73.3682H93.2715V68.2982H94.3732V73.3682ZM97.7906 73.4702C96.1585 73.4702 95.2302 72.8275 95.2302 71.6544V71.6238H96.3319V71.7054C96.3319 72.3685 96.7297 72.5827 97.7906 72.5827C98.7801 72.5827 99.076 72.3787 99.076 71.9298C99.076 71.5116 98.8312 71.379 98.1069 71.2769L96.7195 71.0933C95.7606 70.9709 95.1792 70.5629 95.1792 69.7162C95.1792 68.8287 95.9851 68.1962 97.5458 68.1962C99.0964 68.1962 100.035 68.8185 100.035 70.0222V70.0528H98.9434V69.9916C98.9434 69.3898 98.6373 69.0735 97.5152 69.0735C96.5869 69.0735 96.2605 69.2775 96.2605 69.757C96.2605 70.1548 96.4645 70.2976 97.2296 70.3997L98.4027 70.5629C99.6064 70.7159 100.157 71.1239 100.157 71.9604C100.157 72.9091 99.2188 73.4702 97.7906 73.4702ZM104.278 73.3682H103.115C102.023 73.3682 101.35 72.8887 101.35 71.6544V69.2163H100.493V68.2982H101.35V67.1863H102.442V68.2982H104.278V69.2163H102.442V71.5932C102.442 72.2154 102.727 72.3787 103.36 72.3787H104.278V73.3682ZM107.812 67.7066H106.71V66.5335H107.812V67.7066ZM107.812 73.3682H106.71V68.2982H107.812V73.3682ZM111.229 73.4702C109.597 73.4702 108.669 72.8275 108.669 71.6544V71.6238H109.771V71.7054C109.771 72.3685 110.168 72.5827 111.229 72.5827C112.219 72.5827 112.515 72.3787 112.515 71.9298C112.515 71.5116 112.27 71.379 111.546 71.2769L110.158 71.0933C109.199 70.9709 108.618 70.5629 108.618 69.7162C108.618 68.8287 109.424 68.1962 110.985 68.1962C112.535 68.1962 113.474 68.8185 113.474 70.0222V70.0528H112.382V69.9916C112.382 69.3898 112.076 69.0735 110.954 69.0735C110.026 69.0735 109.699 69.2775 109.699 69.757C109.699 70.1548 109.903 70.2976 110.668 70.3997L111.841 70.5629C113.045 70.7159 113.596 71.1239 113.596 71.9604C113.596 72.9091 112.657 73.4702 111.229 73.4702ZM117.624 73.4702C116.573 73.4702 115.91 72.9805 115.91 72.144C115.91 71.3586 116.542 70.9505 117.542 70.8383L119.847 70.5935V70.2976C119.847 69.4612 119.48 69.1653 118.511 69.1653C117.573 69.1653 117.114 69.4714 117.114 70.216V70.2568H116.022V70.216C116.022 69.0633 116.981 68.1962 118.593 68.1962C120.204 68.1962 120.929 69.0735 120.929 70.2874V73.3682H119.919V72.1032H119.847C119.582 72.9601 118.776 73.4702 117.624 73.4702ZM117.011 72.0726C117.011 72.4807 117.287 72.6745 117.919 72.6745C119.072 72.6745 119.847 72.246 119.847 71.2463L117.858 71.4708C117.287 71.5422 117.011 71.6748 117.011 72.0726ZM123.014 73.3682H121.912V68.2982H122.922V69.8692H122.993C123.146 69.0123 123.82 68.1962 125.105 68.1962C126.513 68.1962 127.206 69.1449 127.206 70.318V73.3682H126.105V70.6139C126.105 69.6652 125.676 69.1857 124.626 69.1857C123.514 69.1857 123.014 69.757 123.014 70.8587V73.3682ZM132.482 73.4702C130.819 73.4702 129.728 72.5317 129.728 70.8383C129.728 69.2571 130.809 68.1962 132.461 68.1962C134.032 68.1962 135.103 69.0633 135.103 70.6037C135.103 70.7873 135.093 70.9301 135.063 71.0831H130.758C130.799 72.0624 131.278 72.5827 132.451 72.5827C133.512 72.5827 133.951 72.2358 133.951 71.634V71.5524H135.052V71.6442C135.052 72.7255 133.992 73.4702 132.482 73.4702ZM132.441 69.0633C131.319 69.0633 130.829 69.5632 130.768 70.4711H134.063V70.4507C134.063 69.5122 133.522 69.0633 132.441 69.0633ZM136.765 73.3682H135.449L137.632 70.8587V70.7975L135.449 68.2982H136.786L138.469 70.216H138.53L140.193 68.2982H141.519L139.336 70.7771V70.8383L141.519 73.3682H140.182L138.499 71.43H138.428L136.765 73.3682ZM145.381 73.3682H144.218C143.126 73.3682 142.453 72.8887 142.453 71.6544V69.2163H141.596V68.2982H142.453V67.1863H143.545V68.2982H145.381V69.2163H143.545V71.5932C143.545 72.2154 143.83 72.3787 144.463 72.3787H145.381V73.3682ZM147.172 73.3682H146.07V68.2982H147.08V69.6652H147.151C147.304 68.8491 147.855 68.1962 148.896 68.1962C150.048 68.1962 150.548 69.0225 150.548 69.9814V70.6445H149.457V70.1956C149.457 69.4714 149.151 69.1347 148.396 69.1347C147.529 69.1347 147.172 69.6142 147.172 70.5221V73.3682ZM153.79 73.4702C152.128 73.4702 151.036 72.5317 151.036 70.8383C151.036 69.2571 152.117 68.1962 153.77 68.1962C155.341 68.1962 156.412 69.0633 156.412 70.6037C156.412 70.7873 156.402 70.9301 156.371 71.0831H152.066C152.107 72.0624 152.587 72.5827 153.76 72.5827C154.821 72.5827 155.259 72.2358 155.259 71.634V71.5524H156.361V71.6442C156.361 72.7255 155.3 73.4702 153.79 73.4702ZM153.75 69.0633C152.628 69.0633 152.138 69.5632 152.077 70.4711H155.372V70.4507C155.372 69.5122 154.831 69.0633 153.75 69.0633ZM158.339 73.3682H157.237V68.2982H158.247V69.8284H158.308C158.441 68.9817 158.992 68.1962 160.257 68.1962C161.409 68.1962 162.032 68.9001 162.175 69.8692H162.236C162.368 69.0021 162.94 68.1962 164.225 68.1962C165.541 68.1962 166.204 69.0939 166.204 70.318V73.3682H165.112V70.6139C165.112 69.6142 164.715 69.1857 163.735 69.1857C162.654 69.1857 162.266 69.7366 162.266 70.8587V73.3682H161.175V70.6139C161.175 69.6142 160.787 69.1857 159.808 69.1857C158.716 69.1857 158.339 69.7366 158.339 70.8587V73.3682ZM169.74 73.4702C168.077 73.4702 166.985 72.5317 166.985 70.8383C166.985 69.2571 168.067 68.1962 169.719 68.1962C171.29 68.1962 172.361 69.0633 172.361 70.6037C172.361 70.7873 172.351 70.9301 172.32 71.0831H168.016C168.056 72.0624 168.536 72.5827 169.709 72.5827C170.77 72.5827 171.208 72.2358 171.208 71.634V71.5524H172.31V71.6442C172.31 72.7255 171.249 73.4702 169.74 73.4702ZM169.699 69.0633C168.577 69.0633 168.087 69.5632 168.026 70.4711H171.321V70.4507C171.321 69.5122 170.78 69.0633 169.699 69.0633ZM174.288 73.3682H173.186V66.5335H174.288V73.3682ZM176.124 75.1023H175.4V74.1026H176.39C176.838 74.1026 177.022 73.9802 177.175 73.6334L177.297 73.3682L174.798 68.2982H176.033L177.328 70.9913L177.828 72.2052H177.91L178.389 70.9811L179.583 68.2982H180.796L178.154 73.919C177.736 74.8269 177.165 75.1023 176.124 75.1023ZM184.568 73.3682H183.466V69.2163H182.701V68.2982H183.476C183.599 67.1863 184.446 66.5335 185.884 66.5335H186.384V67.3495H185.71C184.905 67.3495 184.486 67.5638 184.548 68.2982H186.384V69.2163H184.568V73.3682ZM188.098 73.3682H186.996V66.5335H188.098V73.3682ZM191.666 73.4702C190.003 73.4702 188.912 72.5317 188.912 70.8383C188.912 69.2571 189.993 68.1962 191.645 68.1962C193.216 68.1962 194.287 69.0633 194.287 70.6037C194.287 70.7873 194.277 70.9301 194.247 71.0831H189.942C189.983 72.0624 190.462 72.5827 191.635 72.5827C192.696 72.5827 193.135 72.2358 193.135 71.634V71.5524H194.236V71.6442C194.236 72.7255 193.176 73.4702 191.666 73.4702ZM191.625 69.0633C190.503 69.0633 190.013 69.5632 189.952 70.4711H193.247V70.4507C193.247 69.5122 192.706 69.0633 191.625 69.0633ZM195.949 73.3682H194.633L196.816 70.8587V70.7975L194.633 68.2982H195.97L197.653 70.216H197.714L199.377 68.2982H200.703L198.52 70.7771V70.8383L200.703 73.3682H199.366L197.683 71.43H197.612L195.949 73.3682ZM202.341 67.7066H201.239V66.5335H202.341V67.7066ZM202.341 73.3682H201.239V68.2982H202.341V73.3682ZM204.371 73.3682H203.361V66.5335H204.463V69.6754H204.524C204.728 68.8185 205.401 68.1962 206.615 68.1962C208.176 68.1962 209.033 69.2571 209.033 70.8383C209.033 72.3991 208.166 73.4702 206.554 73.4702C205.401 73.4702 204.657 72.9193 204.442 71.9094H204.371V73.3682ZM204.463 70.8893C204.463 71.9502 205.116 72.4603 206.207 72.4603C207.319 72.4603 207.931 72.0522 207.931 70.8383C207.931 69.6142 207.309 69.1959 206.228 69.1959C205.085 69.1959 204.463 69.7264 204.463 70.8077V70.8893ZM210.898 73.3682H209.797V66.5335H210.898V73.3682ZM214.469 73.4702C212.806 73.4702 211.714 72.5317 211.714 70.8383C211.714 69.2571 212.796 68.1962 214.448 68.1962C216.019 68.1962 217.09 69.0633 217.09 70.6037C217.09 70.7873 217.08 70.9301 217.05 71.0831H212.745C212.786 72.0624 213.265 72.5827 214.438 72.5827C215.499 72.5827 215.938 72.2358 215.938 71.634V71.5524H217.039V71.6442C217.039 72.7255 215.979 73.4702 214.469 73.4702ZM214.428 69.0633C213.306 69.0633 212.816 69.5632 212.755 70.4711H216.05V70.4507C216.05 69.5122 215.509 69.0633 214.428 69.0633ZM220.761 75.1023H219.659V68.2982H220.669V69.706H220.761C220.965 68.7675 221.679 68.1962 222.872 68.1962C224.443 68.1962 225.331 69.2673 225.331 70.8383C225.331 72.4093 224.464 73.4702 222.882 73.4702C221.74 73.4702 221.005 72.8683 220.801 71.94H220.761V75.1023ZM220.761 70.9199C220.761 71.9604 221.424 72.4705 222.505 72.4705C223.597 72.4705 224.229 72.0522 224.229 70.8383C224.229 69.6142 223.586 69.2061 222.525 69.2061C221.393 69.2061 220.761 69.7366 220.761 70.8281V70.9199ZM228.645 73.4702C226.982 73.4702 225.89 72.5317 225.89 70.8383C225.89 69.2571 226.972 68.1962 228.624 68.1962C230.195 68.1962 231.266 69.0633 231.266 70.6037C231.266 70.7873 231.256 70.9301 231.225 71.0831H226.921C226.961 72.0624 227.441 72.5827 228.614 72.5827C229.675 72.5827 230.114 72.2358 230.114 71.634V71.5524H231.215V71.6442C231.215 72.7255 230.154 73.4702 228.645 73.4702ZM228.604 69.0633C227.482 69.0633 226.992 69.5632 226.931 70.4711H230.226V70.4507C230.226 69.5122 229.685 69.0633 228.604 69.0633ZM233.193 73.3682H232.091V68.2982H233.101V69.6652H233.173C233.326 68.8491 233.877 68.1962 234.917 68.1962C236.07 68.1962 236.57 69.0225 236.57 69.9814V70.6445H235.478V70.1956C235.478 69.4714 235.172 69.1347 234.417 69.1347C233.55 69.1347 233.193 69.6142 233.193 70.5221V73.3682ZM238.751 73.3682H237.649V69.2163H236.884V68.2982H237.66C237.782 67.1863 238.629 66.5335 240.067 66.5335H240.567V67.3495H239.894C239.088 67.3495 238.669 67.5638 238.731 68.2982H240.567V69.2163H238.751V73.3682ZM243.768 73.4702C242.085 73.4702 240.952 72.3991 240.952 70.8383C240.952 69.2571 242.085 68.1962 243.768 68.1962C245.461 68.1962 246.594 69.2571 246.594 70.8383C246.594 72.3991 245.461 73.4702 243.768 73.4702ZM243.768 72.4909C245.002 72.4909 245.512 71.9094 245.512 70.8383C245.512 69.757 245.002 69.1653 243.768 69.1653C242.544 69.1653 242.034 69.757 242.034 70.8383C242.034 71.9094 242.544 72.4909 243.768 72.4909ZM248.495 73.3682H247.393V68.2982H248.403V69.6652H248.474C248.627 68.8491 249.178 68.1962 250.219 68.1962C251.371 68.1962 251.871 69.0225 251.871 69.9814V70.6445H250.78V70.1956C250.78 69.4714 250.474 69.1347 249.719 69.1347C248.852 69.1347 248.495 69.6142 248.495 70.5221V73.3682ZM253.665 73.3682H252.563V68.2982H253.573V69.8284H253.634C253.767 68.9817 254.318 68.1962 255.583 68.1962C256.736 68.1962 257.358 68.9001 257.501 69.8692H257.562C257.694 69.0021 258.266 68.1962 259.551 68.1962C260.867 68.1962 261.53 69.0939 261.53 70.318V73.3682H260.439V70.6139C260.439 69.6142 260.041 69.1857 259.061 69.1857C257.98 69.1857 257.592 69.7366 257.592 70.8587V73.3682H256.501V70.6139C256.501 69.6142 256.113 69.1857 255.134 69.1857C254.042 69.1857 253.665 69.7366 253.665 70.8587V73.3682ZM265.066 73.4702C263.403 73.4702 262.311 72.5317 262.311 70.8383C262.311 69.2571 263.393 68.1962 265.045 68.1962C266.616 68.1962 267.687 69.0633 267.687 70.6037C267.687 70.7873 267.677 70.9301 267.646 71.0831H263.342C263.382 72.0624 263.862 72.5827 265.035 72.5827C266.096 72.5827 266.535 72.2358 266.535 71.634V71.5524H267.636V71.6442C267.636 72.7255 266.575 73.4702 265.066 73.4702ZM265.025 69.0633C263.903 69.0633 263.413 69.5632 263.352 70.4711H266.647V70.4507C266.647 69.5122 266.106 69.0633 265.025 69.0633ZM269.614 73.3682H268.512V68.2982H269.522V69.6652H269.594C269.747 68.8491 270.298 68.1962 271.338 68.1962C272.491 68.1962 272.991 69.0225 272.991 69.9814V70.6445H271.899V70.1956C271.899 69.4714 271.593 69.1347 270.838 69.1347C269.971 69.1347 269.614 69.6142 269.614 70.5221V73.3682ZM33.7758 89.3682H32.4089L30.8889 84.2982H32.0314L32.8781 87.1749L33.1127 88.4807H33.1943L33.5718 87.0729L34.6327 84.2982H36.0404L37.1115 87.0729L37.489 88.4807H37.5706L37.8052 87.1749L38.6519 84.2982H39.774L38.2337 89.3682H36.8667L35.7548 86.4507L35.3672 85.2061H35.2855L34.8979 86.4507L33.7758 89.3682ZM41.4353 89.3682H40.3336V82.5335H41.4353V85.8488H41.4966C41.67 84.9919 42.2922 84.1962 43.5878 84.1962C44.9853 84.1962 45.6688 85.1143 45.6688 86.3487V89.3682H44.5773V86.6139C44.5773 85.5938 44.1182 85.1857 43.0675 85.1857C41.8638 85.1857 41.4353 85.8386 41.4353 86.9097V89.3682ZM49.2505 89.4702C47.5674 89.4702 46.4351 88.3991 46.4351 86.8383C46.4351 85.2571 47.5674 84.1962 49.2505 84.1962C50.9439 84.1962 52.0762 85.2571 52.0762 86.8383C52.0762 88.3991 50.9439 89.4702 49.2505 89.4702ZM49.2505 88.4909C50.4849 88.4909 50.9949 87.9094 50.9949 86.8383C50.9949 85.757 50.4849 85.1653 49.2505 85.1653C48.0264 85.1653 47.5164 85.757 47.5164 86.8383C47.5164 87.9094 48.0264 88.4909 49.2505 88.4909ZM57.1796 89.4702C55.5066 89.4702 54.4151 88.3991 54.4151 86.8383C54.4151 85.2571 55.5066 84.1962 57.1796 84.1962C58.6995 84.1962 59.8114 85.0531 59.8114 86.318V86.4201H58.7199V86.3589C58.7199 85.5734 58.1487 85.1857 57.1591 85.1857C56.0166 85.1857 55.5066 85.7264 55.5066 86.8383C55.5066 87.9298 56.0166 88.4807 57.1591 88.4807C58.1487 88.4807 58.7199 88.093 58.7199 87.3076V87.2361H59.8114V87.3484C59.8114 88.6133 58.6995 89.4702 57.1796 89.4702ZM62.1155 89.4702C61.0648 89.4702 60.4017 88.9805 60.4017 88.144C60.4017 87.3586 61.0342 86.9505 62.0339 86.8383L64.3393 86.5935V86.2976C64.3393 85.4612 63.9721 85.1653 63.003 85.1653C62.0645 85.1653 61.6055 85.4714 61.6055 86.216V86.2568H60.5139V86.216C60.5139 85.0633 61.4728 84.1962 63.0846 84.1962C64.6964 84.1962 65.4206 85.0735 65.4206 86.2874V89.3682H64.4107V88.1032H64.3393C64.0741 88.9601 63.2682 89.4702 62.1155 89.4702ZM61.5034 88.0726C61.5034 88.4807 61.7789 88.6745 62.4113 88.6745C63.5641 88.6745 64.3393 88.246 64.3393 87.2463L62.3501 87.4708C61.7789 87.5422 61.5034 87.6748 61.5034 88.0726ZM67.5058 89.3682H66.4041V84.2982H67.414V85.8692H67.4854C67.6384 85.0123 68.3117 84.1962 69.597 84.1962C71.0048 84.1962 71.6984 85.1449 71.6984 86.318V89.3682H70.5967V86.6139C70.5967 85.6652 70.1683 85.1857 69.1176 85.1857C68.0057 85.1857 67.5058 85.757 67.5058 86.8587V89.3682ZM75.4334 89.3682H74.4235V82.5335H75.5252V85.6754H75.5864C75.7904 84.8185 76.4637 84.1962 77.6776 84.1962C79.2384 84.1962 80.0953 85.2571 80.0953 86.8383C80.0953 88.3991 79.2282 89.4702 77.6164 89.4702C76.4637 89.4702 75.719 88.9193 75.5048 87.9094H75.4334V89.3682ZM75.5252 86.8893C75.5252 87.9502 76.1781 88.4603 77.2696 88.4603C78.3815 88.4603 78.9935 88.0522 78.9935 86.8383C78.9935 85.6142 78.3713 85.1959 77.29 85.1959C76.1474 85.1959 75.5252 85.7264 75.5252 86.8077V86.8893ZM83.4092 89.4702C81.7464 89.4702 80.6549 88.5317 80.6549 86.8383C80.6549 85.2571 81.7362 84.1962 83.3888 84.1962C84.9597 84.1962 86.0308 85.0633 86.0308 86.6037C86.0308 86.7873 86.0206 86.9301 85.99 87.0831H81.6852C81.726 88.0624 82.2054 88.5827 83.3786 88.5827C84.4395 88.5827 84.8781 88.2358 84.8781 87.634V87.5524H85.9798V87.6442C85.9798 88.7255 84.9189 89.4702 83.4092 89.4702ZM83.3684 85.0633C82.2462 85.0633 81.7566 85.5632 81.6954 86.4711H84.9903V86.4507C84.9903 85.5122 84.4497 85.0633 83.3684 85.0633ZM87.9577 89.3682H86.856V84.2982H87.8659V85.8692H87.9373C88.0903 85.0123 88.7636 84.1962 90.0489 84.1962C91.4567 84.1962 92.1503 85.1449 92.1503 86.318V89.3682H91.0486V86.6139C91.0486 85.6652 90.6202 85.1857 89.5695 85.1857C88.4576 85.1857 87.9577 85.757 87.9577 86.8587V89.3682ZM95.3661 89.4702C93.7645 89.4702 92.877 88.3991 92.877 86.8383C92.877 85.2571 93.7543 84.1962 95.2947 84.1962C96.4984 84.1962 97.1819 84.8185 97.3859 85.6754H97.4471V82.5335H98.5488V89.3682H97.5389V87.9094H97.4675C97.2533 88.9193 96.5086 89.4702 95.3661 89.4702ZM93.9889 86.8383C93.9889 88.0522 94.6112 88.4603 95.7027 88.4603C96.784 88.4603 97.4471 87.9502 97.4471 86.8893V86.8077C97.4471 85.7264 96.8146 85.1959 95.6823 85.1959C94.6214 85.1959 93.9889 85.6142 93.9889 86.8383ZM102.413 89.3682H101.311V82.5335H102.413V85.8488H102.474C102.647 84.9919 103.269 84.1962 104.565 84.1962C105.962 84.1962 106.646 85.1143 106.646 86.3487V89.3682H105.554V86.6139C105.554 85.5938 105.095 85.1857 104.045 85.1857C102.841 85.1857 102.413 85.8386 102.413 86.9097V89.3682ZM110.187 89.4702C108.524 89.4702 107.433 88.5317 107.433 86.8383C107.433 85.2571 108.514 84.1962 110.167 84.1962C111.737 84.1962 112.809 85.0633 112.809 86.6037C112.809 86.7873 112.798 86.9301 112.768 87.0831H108.463C108.504 88.0624 108.983 88.5827 110.156 88.5827C111.217 88.5827 111.656 88.2358 111.656 87.634V87.5524H112.758V87.6442C112.758 88.7255 111.697 89.4702 110.187 89.4702ZM110.146 85.0633C109.024 85.0633 108.534 85.5632 108.473 86.4711H111.768V86.4507C111.768 85.5122 111.227 85.0633 110.146 85.0633ZM114.735 89.3682H113.634V84.2982H114.644V85.6652H114.715C114.868 84.8491 115.419 84.1962 116.459 84.1962C117.612 84.1962 118.112 85.0225 118.112 85.9814V86.6445H117.021V86.1956C117.021 85.4714 116.714 85.1347 115.96 85.1347C115.093 85.1347 114.735 85.6142 114.735 86.5221V89.3682ZM121.557 89.3682H120.547V82.5335H121.649V85.6754H121.71C121.914 84.8185 122.588 84.1962 123.801 84.1962C125.362 84.1962 126.219 85.2571 126.219 86.8383C126.219 88.3991 125.352 89.4702 123.74 89.4702C122.588 89.4702 121.843 88.9193 121.629 87.9094H121.557V89.3682ZM121.649 86.8893C121.649 87.9502 122.302 88.4603 123.393 88.4603C124.505 88.4603 125.117 88.0522 125.117 86.8383C125.117 85.6142 124.495 85.1959 123.414 85.1959C122.271 85.1959 121.649 85.7264 121.649 86.8077V86.8893ZM129.574 89.4702C127.891 89.4702 126.758 88.3991 126.758 86.8383C126.758 85.2571 127.891 84.1962 129.574 84.1962C131.267 84.1962 132.4 85.2571 132.4 86.8383C132.4 88.3991 131.267 89.4702 129.574 89.4702ZM129.574 88.4909C130.808 88.4909 131.318 87.9094 131.318 86.8383C131.318 85.757 130.808 85.1653 129.574 85.1653C128.35 85.1653 127.84 85.757 127.84 86.8383C127.84 87.9094 128.35 88.4909 129.574 88.4909ZM135.433 89.4702C133.832 89.4702 132.944 88.3991 132.944 86.8383C132.944 85.2571 133.821 84.1962 135.362 84.1962C136.565 84.1962 137.249 84.8185 137.453 85.6754H137.514V82.5335H138.616V89.3682H137.606V87.9094H137.534C137.32 88.9193 136.576 89.4702 135.433 89.4702ZM134.056 86.8383C134.056 88.0522 134.678 88.4603 135.77 88.4603C136.851 88.4603 137.514 87.9502 137.514 86.8893V86.8077C137.514 85.7264 136.882 85.1959 135.749 85.1959C134.688 85.1959 134.056 85.6142 134.056 86.8383ZM140.451 91.1023H139.726V90.1026H140.716C141.165 90.1026 141.348 89.9802 141.501 89.6334L141.624 89.3682L139.124 84.2982H140.359L141.654 86.9913L142.154 88.2052H142.236L142.715 86.9811L143.909 84.2982H145.123L142.481 89.919C142.062 90.8269 141.491 91.1023 140.451 91.1023ZM148.507 83.7066H147.405V82.5335H148.507V83.7066ZM148.507 89.3682H147.405V84.2982H148.507V89.3682ZM150.628 89.3682H149.527V84.2982H150.537V85.8692H150.608C150.761 85.0123 151.434 84.1962 152.72 84.1962C154.127 84.1962 154.821 85.1449 154.821 86.318V89.3682H153.719V86.6139C153.719 85.6652 153.291 85.1857 152.24 85.1857C151.128 85.1857 150.628 85.757 150.628 86.8587V89.3682ZM159.128 89.3682H157.965C156.874 89.3682 156.201 88.8887 156.201 87.6544V85.2163H155.344V84.2982H156.201V83.1863H157.292V84.2982H159.128V85.2163H157.292V87.5932C157.292 88.2154 157.578 88.3787 158.21 88.3787H159.128V89.3682ZM162.408 89.4702C160.725 89.4702 159.593 88.3991 159.593 86.8383C159.593 85.2571 160.725 84.1962 162.408 84.1962C164.102 84.1962 165.234 85.2571 165.234 86.8383C165.234 88.3991 164.102 89.4702 162.408 89.4702ZM162.408 88.4909C163.643 88.4909 164.153 87.9094 164.153 86.8383C164.153 85.757 163.643 85.1653 162.408 85.1653C161.184 85.1653 160.674 85.757 160.674 86.8383C160.674 87.9094 161.184 88.4909 162.408 88.4909ZM168.879 83.7066H167.777V82.5335H168.879V83.7066ZM168.879 89.3682H167.777V84.2982H168.879V89.3682ZM171.001 89.3682H169.899V84.2982H170.909V85.8692H170.98C171.133 85.0123 171.807 84.1962 173.092 84.1962C174.5 84.1962 175.193 85.1449 175.193 86.318V89.3682H174.092V86.6139C174.092 85.6652 173.663 85.1857 172.612 85.1857C171.5 85.1857 171.001 85.757 171.001 86.8587V89.3682ZM179.5 89.3682H178.338C177.246 89.3682 176.573 88.8887 176.573 87.6544V85.2163H175.716V84.2982H176.573V83.1863H177.664V84.2982H179.5V85.2163H177.664V87.5932C177.664 88.2154 177.95 88.3787 178.582 88.3787H179.5V89.3682ZM182.74 89.4702C181.077 89.4702 179.986 88.5317 179.986 86.8383C179.986 85.2571 181.067 84.1962 182.719 84.1962C184.29 84.1962 185.362 85.0633 185.362 86.6037C185.362 86.7873 185.351 86.9301 185.321 87.0831H181.016C181.057 88.0624 181.536 88.5827 182.709 88.5827C183.77 88.5827 184.209 88.2358 184.209 87.634V87.5524H185.311V87.6442C185.311 88.7255 184.25 89.4702 182.74 89.4702ZM182.699 85.0633C181.577 85.0633 181.087 85.5632 181.026 86.4711H184.321V86.4507C184.321 85.5122 183.78 85.0633 182.699 85.0633ZM187.288 89.3682H186.187V84.2982H187.197V85.6652H187.268C187.421 84.8491 187.972 84.1962 189.012 84.1962C190.165 84.1962 190.665 85.0225 190.665 85.9814V86.6445H189.573V86.1956C189.573 85.4714 189.267 85.1347 188.513 85.1347C187.645 85.1347 187.288 85.6142 187.288 86.5221V89.3682ZM193.907 89.4702C192.244 89.4702 191.153 88.5317 191.153 86.8383C191.153 85.2571 192.234 84.1962 193.887 84.1962C195.458 84.1962 196.529 85.0633 196.529 86.6037C196.529 86.7873 196.519 86.9301 196.488 87.0831H192.183C192.224 88.0624 192.704 88.5827 193.877 88.5827C194.938 88.5827 195.376 88.2358 195.376 87.634V87.5524H196.478V87.6442C196.478 88.7255 195.417 89.4702 193.907 89.4702ZM193.866 85.0633C192.744 85.0633 192.255 85.5632 192.193 86.4711H195.488V86.4507C195.488 85.5122 194.948 85.0633 193.866 85.0633ZM199.751 89.4702C198.119 89.4702 197.191 88.8275 197.191 87.6544V87.6238H198.293V87.7054C198.293 88.3685 198.69 88.5827 199.751 88.5827C200.741 88.5827 201.037 88.3787 201.037 87.9298C201.037 87.5116 200.792 87.379 200.068 87.2769L198.68 87.0933C197.721 86.9709 197.14 86.5629 197.14 85.7162C197.14 84.8287 197.946 84.1962 199.507 84.1962C201.057 84.1962 201.996 84.8185 201.996 86.0222V86.0528H200.904V85.9916C200.904 85.3898 200.598 85.0735 199.476 85.0735C198.548 85.0735 198.221 85.2775 198.221 85.757C198.221 86.1548 198.425 86.2976 199.19 86.3997L200.363 86.5629C201.567 86.7159 202.118 87.1239 202.118 87.9604C202.118 88.9091 201.179 89.4702 199.751 89.4702ZM206.238 89.3682H205.075C203.984 89.3682 203.311 88.8887 203.311 87.6544V85.2163H202.454V84.2982H203.311V83.1863H204.402V84.2982H206.238V85.2163H204.402V87.5932C204.402 88.2154 204.688 88.3787 205.32 88.3787H206.238V89.3682ZM208.029 83.7066H206.928V82.5335H208.029V83.7066ZM208.029 89.3682H206.928V84.2982H208.029V89.3682ZM210.151 89.3682H209.049V84.2982H210.059V85.8692H210.131C210.284 85.0123 210.957 84.1962 212.242 84.1962C213.65 84.1962 214.344 85.1449 214.344 86.318V89.3682H213.242V86.6139C213.242 85.6652 212.814 85.1857 211.763 85.1857C210.651 85.1857 210.151 85.757 210.151 86.8587V89.3682ZM217.529 88.9091C216.019 88.9091 215.121 87.9604 215.121 86.5527C215.121 85.1449 216.06 84.1962 217.6 84.1962C218.661 84.1962 219.457 84.6757 219.641 85.5632H219.702V84.2982H220.712V88.7765C220.712 90.4801 219.651 91.2044 217.988 91.2044C216.488 91.2044 215.448 90.5005 215.448 89.2764H216.539C216.539 90.0108 216.968 90.2863 218.049 90.2863C219.202 90.2863 219.62 89.97 219.62 88.8377V87.5932H219.549C219.365 88.3583 218.682 88.9091 217.529 88.9091ZM216.233 86.5527C216.233 87.5932 216.845 87.9604 217.886 87.9604C219.008 87.9604 219.62 87.4912 219.62 86.5935V86.4507C219.62 85.5938 218.988 85.1551 217.917 85.1551C216.856 85.1551 216.233 85.5122 216.233 86.5527ZM224.964 89.4702C223.913 89.4702 223.25 88.9805 223.25 88.144C223.25 87.3586 223.882 86.9505 224.882 86.8383L227.188 86.5935V86.2976C227.188 85.4612 226.82 85.1653 225.851 85.1653C224.913 85.1653 224.454 85.4714 224.454 86.216V86.2568H223.362V86.216C223.362 85.0633 224.321 84.1962 225.933 84.1962C227.545 84.1962 228.269 85.0735 228.269 86.2874V89.3682H227.259V88.1032H227.188C226.922 88.9601 226.116 89.4702 224.964 89.4702ZM224.352 88.0726C224.352 88.4807 224.627 88.6745 225.26 88.6745C226.412 88.6745 227.188 88.246 227.188 87.2463L225.198 87.4708C224.627 87.5422 224.352 87.6748 224.352 88.0726ZM230.354 89.3682H229.252V84.2982H230.262V85.8692H230.334C230.487 85.0123 231.16 84.1962 232.445 84.1962C233.853 84.1962 234.547 85.1449 234.547 86.318V89.3682H233.445V86.6139C233.445 85.6652 233.016 85.1857 231.966 85.1857C230.854 85.1857 230.354 85.757 230.354 86.8587V89.3682ZM237.762 89.4702C236.161 89.4702 235.273 88.3991 235.273 86.8383C235.273 85.2571 236.151 84.1962 237.691 84.1962C238.895 84.1962 239.578 84.8185 239.782 85.6754H239.843V82.5335H240.945V89.3682H239.935V87.9094H239.864C239.65 88.9193 238.905 89.4702 237.762 89.4702ZM236.385 86.8383C236.385 88.0522 237.007 88.4603 238.099 88.4603C239.18 88.4603 239.843 87.9502 239.843 86.8893V86.8077C239.843 85.7264 239.211 85.1959 238.079 85.1959C237.018 85.1959 236.385 85.6142 236.385 86.8383ZM246.298 89.4702C244.615 89.4702 243.483 88.3991 243.483 86.8383C243.483 85.2571 244.615 84.1962 246.298 84.1962C247.992 84.1962 249.124 85.2571 249.124 86.8383C249.124 88.3991 247.992 89.4702 246.298 89.4702ZM246.298 88.4909C247.532 88.4909 248.043 87.9094 248.043 86.8383C248.043 85.757 247.532 85.1653 246.298 85.1653C245.074 85.1653 244.564 85.757 244.564 86.8383C244.564 87.9094 245.074 88.4909 246.298 88.4909ZM252.157 89.4702C250.556 89.4702 249.668 88.3991 249.668 86.8383C249.668 85.2571 250.546 84.1962 252.086 84.1962C253.29 84.1962 253.973 84.8185 254.177 85.6754H254.238V82.5335H255.34V89.3682H254.33V87.9094H254.259C254.045 88.9193 253.3 89.4702 252.157 89.4702ZM250.78 86.8383C250.78 88.0522 251.403 88.4603 252.494 88.4603C253.575 88.4603 254.238 87.9502 254.238 86.8893V86.8077C254.238 85.7264 253.606 85.1959 252.474 85.1959C251.413 85.1959 250.78 85.6142 250.78 86.8383ZM258.593 89.4702C256.991 89.4702 256.104 88.3991 256.104 86.8383C256.104 85.2571 256.981 84.1962 258.521 84.1962C259.725 84.1962 260.409 84.8185 260.613 85.6754H260.674V82.5335H261.776V89.3682H260.766V87.9094H260.694C260.48 88.9193 259.735 89.4702 258.593 89.4702ZM257.216 86.8383C257.216 88.0522 257.838 88.4603 258.929 88.4603C260.011 88.4603 260.674 87.9502 260.674 86.8893V86.8077C260.674 85.7264 260.041 85.1959 258.909 85.1959C257.848 85.1959 257.216 85.6142 257.216 86.8383ZM32.4497 108.102H31.3479V101.298H32.3578V102.706H32.4497C32.6537 101.767 33.3678 101.196 34.5613 101.196C36.1322 101.196 37.0197 102.267 37.0197 103.838C37.0197 105.409 36.1526 106.47 34.5715 106.47C33.429 106.47 32.6945 105.868 32.4905 104.94H32.4497V108.102ZM32.4497 103.92C32.4497 104.96 33.1127 105.47 34.194 105.47C35.2855 105.47 35.918 105.052 35.918 103.838C35.918 102.614 35.2753 102.206 34.2144 102.206C33.0821 102.206 32.4497 102.737 32.4497 103.828V103.92ZM40.3744 106.47C38.6913 106.47 37.5589 105.399 37.5589 103.838C37.5589 102.257 38.6913 101.196 40.3744 101.196C42.0678 101.196 43.2001 102.257 43.2001 103.838C43.2001 105.399 42.0678 106.47 40.3744 106.47ZM40.3744 105.491C41.6088 105.491 42.1188 104.909 42.1188 103.838C42.1188 102.757 41.6088 102.165 40.3744 102.165C39.1503 102.165 38.6403 102.757 38.6403 103.838C38.6403 104.909 39.1503 105.491 40.3744 105.491ZM46.3969 106.47C44.7647 106.47 43.8364 105.828 43.8364 104.654V104.624H44.9381V104.705C44.9381 105.368 45.336 105.583 46.3969 105.583C47.3864 105.583 47.6822 105.379 47.6822 104.93C47.6822 104.512 47.4374 104.379 46.7131 104.277L45.3258 104.093C44.3669 103.971 43.7854 103.563 43.7854 102.716C43.7854 101.829 44.5913 101.196 46.1521 101.196C47.7026 101.196 48.6411 101.818 48.6411 103.022V103.053H47.5496V102.992C47.5496 102.39 47.2436 102.074 46.1215 102.074C45.1932 102.074 44.8667 102.278 44.8667 102.757C44.8667 103.155 45.0707 103.298 45.8358 103.4L47.0089 103.563C48.2127 103.716 48.7635 104.124 48.7635 104.96C48.7635 105.909 47.825 106.47 46.3969 106.47ZM50.6601 100.707H49.5584V99.5335H50.6601V100.707ZM50.6601 106.368H49.5584V101.298H50.6601V106.368ZM55.0059 106.368H53.8429C52.7514 106.368 52.0781 105.889 52.0781 104.654V102.216H51.2213V101.298H52.0781V100.186H53.1697V101.298H55.0059V102.216H53.1697V104.593C53.1697 105.215 53.4553 105.379 54.0878 105.379H55.0059V106.368ZM56.7967 100.707H55.695V99.5335H56.7967V100.707ZM56.7967 106.368H55.695V101.298H56.7967V106.368ZM60.4079 106.47C58.7248 106.47 57.5925 105.399 57.5925 103.838C57.5925 102.257 58.7248 101.196 60.4079 101.196C62.1013 101.196 63.2336 102.257 63.2336 103.838C63.2336 105.399 62.1013 106.47 60.4079 106.47ZM60.4079 105.491C61.6423 105.491 62.1523 104.909 62.1523 103.838C62.1523 102.757 61.6423 102.165 60.4079 102.165C59.1838 102.165 58.6738 102.757 58.6738 103.838C58.6738 104.909 59.1838 105.491 60.4079 105.491ZM65.1349 106.368H64.0331V101.298H65.043V102.869H65.1145C65.2675 102.012 65.9407 101.196 67.2261 101.196C68.6338 101.196 69.3275 102.145 69.3275 103.318V106.368H68.2258V103.614C68.2258 102.665 67.7973 102.186 66.7466 102.186C65.6347 102.186 65.1349 102.757 65.1349 103.859V106.368ZM72.7064 106.47C71.0743 106.47 70.146 105.828 70.146 104.654V104.624H71.2477V104.705C71.2477 105.368 71.6455 105.583 72.7064 105.583C73.6959 105.583 73.9918 105.379 73.9918 104.93C73.9918 104.512 73.7469 104.379 73.0227 104.277L71.6353 104.093C70.6764 103.971 70.095 103.563 70.095 102.716C70.095 101.829 70.9008 101.196 72.4616 101.196C74.0122 101.196 74.9507 101.818 74.9507 103.022V103.053H73.8591V102.992C73.8591 102.39 73.5531 102.074 72.431 102.074C71.5027 102.074 71.1763 102.278 71.1763 102.757C71.1763 103.155 71.3803 103.298 72.1454 103.4L73.3185 103.563C74.5222 103.716 75.0731 104.124 75.0731 104.96C75.0731 105.909 74.1346 106.47 72.7064 106.47ZM77.0513 106.368H75.6639V104.787H77.0513V106.368Z" fill="#D2D2D2"/>
<path d="M16 15V14H15V15H16ZM304.411 15H305.411V14H304.411V15ZM16 16H304.411V14H16V16ZM303.411 15V127.206H305.411V15H303.411ZM17 127.206V15H15V127.206H17Z" fill="url(#paint1_linear_1117_2921)" fill-opacity="0.1" mask="url(#path-8-inside-1_1117_2921)"/>
</g>
</g>
<defs>
<filter id="filter0_f_1117_2921" x="-11.5525" y="-12.8066" width="143.07" height="112.979" filterUnits="userSpaceOnUse" color-interpolation-filters="sRGB">
<feFlood flood-opacity="0" result="BackgroundImageFix"/>
<feBlend mode="normal" in="SourceGraphic" in2="BackgroundImageFix" result="shape"/>
<feGaussianBlur stdDeviation="16" result="effect1_foregroundBlur_1117_2921"/>
</filter>
<filter id="filter1_f_1117_2921" x="212.272" y="43.9111" width="120.186" height="114.726" filterUnits="userSpaceOnUse" color-interpolation-filters="sRGB">
<feFlood flood-opacity="0" result="BackgroundImageFix"/>
<feBlend mode="normal" in="SourceGraphic" in2="BackgroundImageFix" result="shape"/>
<feGaussianBlur stdDeviation="16" result="effect1_foregroundBlur_1117_2921"/>
</filter>
<filter id="filter2_f_1117_2921" x="78" y="63" width="133" height="80" filterUnits="userSpaceOnUse" color-interpolation-filters="sRGB">
<feFlood flood-opacity="0" result="BackgroundImageFix"/>
<feBlend mode="normal" in="SourceGraphic" in2="BackgroundImageFix" result="shape"/>
<feGaussianBlur stdDeviation="16" result="effect1_foregroundBlur_1117_2921"/>
</filter>
<filter id="filter3_f_1117_2921" x="166" y="-5" width="97" height="80" filterUnits="userSpaceOnUse" color-interpolation-filters="sRGB">
<feFlood flood-opacity="0" result="BackgroundImageFix"/>
<feBlend mode="normal" in="SourceGraphic" in2="BackgroundImageFix" result="shape"/>
<feGaussianBlur stdDeviation="16" result="effect1_foregroundBlur_1117_2921"/>
</filter>
<filter id="filter4_b_1117_2921" x="-8" y="-9" width="336.411" height="160.206" filterUnits="userSpaceOnUse" color-interpolation-filters="sRGB">
<feFlood flood-opacity="0" result="BackgroundImageFix"/>
<feGaussianBlur in="BackgroundImageFix" stdDeviation="12"/>
<feComposite in2="SourceAlpha" operator="in" result="effect1_backgroundBlur_1117_2921"/>
<feBlend mode="normal" in="SourceGraphic" in2="effect1_backgroundBlur_1117_2921" result="shape"/>
</filter>
<linearGradient id="paint0_linear_1117_2921" x1="186.891" y1="-36.0727" x2="187.519" y2="132.369" gradientUnits="userSpaceOnUse">
<stop stop-color="white"/>
<stop offset="1" stop-color="white" stop-opacity="0"/>
</linearGradient>
<linearGradient id="paint1_linear_1117_2921" x1="160.206" y1="15" x2="160" y2="116.055" gradientUnits="userSpaceOnUse">
<stop stop-color="white"/>
<stop offset="1" stop-color="white" stop-opacity="0"/>
</linearGradient>
<clipPath id="clip0_1117_2921">
<rect width="321" height="128" fill="white"/>
</clipPath>
<clipPath id="clip1_1117_2921">
<rect width="12.9832" height="9.27368" fill="white" transform="translate(265.926 37.2568)"/>
</clipPath>
</defs>
</svg>
