<svg width="357" height="182" viewBox="0 0 357 182" fill="none" xmlns="http://www.w3.org/2000/svg">
<path d="M0.898841 106.854C19.0615 193.194 327.116 203.744 352.106 130.868C391.487 16.0206 115.637 -20.7984 70.2558 11.1481C68.5751 12.3313 68.3799 15.022 69.6829 14.6623C183.68 -16.805 371.381 48.1507 341.4 129.01C312.168 189.497 -3.9137 181.536 9.14597 93.5362C17.7448 35.5949 164.805 5.14042 261.938 39.8472C265.044 39.6489 263.202 36.1044 260.033 34.8704C155.861 -2.25794 -10.1779 25.564 0.898841 106.854Z" fill="#FCFCFC"/>
<path d="M99.8325 92H84.4605V73.24H88.6605V88.22H99.8325V92ZM116.279 92H100.403V73.24H116.279V77.02H104.603V80.688H115.859V84.44H104.603V88.22H116.279V92ZM127.5 92H123.3V77.02H116.328V73.24H134.472V77.02H127.5V92ZM136.23 82.088H134.746V79.484H136.118C136.678 79.484 136.958 79.316 136.958 78.616V78.14H134.578V73.24H139.982V78.588C139.982 80.94 138.61 82.088 136.23 82.088ZM149.332 92.28C143.648 92.28 140.456 90.04 140.456 85.672V85.504H144.656V86.008C144.656 87.744 145.524 88.444 149.332 88.444C152.692 88.444 153.476 87.94 153.476 86.68C153.476 85.532 152.832 85.112 150.9 84.776L145.636 84.02C142.276 83.488 140.288 81.808 140.288 78.756C140.288 75.928 142.584 72.96 148.884 72.96C154.652 72.96 157.34 75.62 157.34 79.568V79.736H153.112V79.344C153.112 77.552 152.188 76.796 148.464 76.796C145.44 76.796 144.516 77.384 144.516 78.588C144.516 79.68 145.132 80.072 146.7 80.352L151.964 81.192C156.164 81.864 157.676 83.908 157.676 86.484C157.676 89.536 155.296 92.28 149.332 92.28ZM170.315 92.28C164.575 92.28 161.047 88.472 161.047 82.62C161.047 76.768 165.023 72.96 171.463 72.96C177.343 72.96 181.067 75.704 181.067 80.212V80.436H176.391V80.212C176.391 78.028 174.963 76.992 171.351 76.992C167.095 76.992 165.499 78.448 165.499 82.62C165.499 86.792 167.039 88.248 171.155 88.248C175.467 88.248 176.783 87.576 176.895 85.196H170.539V82.088H181.095V92H177.203V87.968H176.979C176.335 90.432 174.375 92.28 170.315 92.28ZM197.907 92H182.031V73.24H197.907V77.02H186.231V80.688H197.487V84.44H186.231V88.22H197.907V92ZM209.128 92H204.928V77.02H197.956V73.24H216.1V77.02H209.128V92ZM230.802 92H226.574V85.784L218.258 73.24H223.438L227.022 78.728L228.59 81.248H228.898L230.466 78.728L234.05 73.24H239.258L230.802 85.812V92ZM248.597 92.28C242.381 92.28 238.517 88.472 238.517 82.62C238.517 76.768 242.381 72.96 248.597 72.96C254.953 72.96 258.789 76.768 258.789 82.62C258.789 88.472 254.953 92.28 248.597 92.28ZM248.597 88.248C252.713 88.248 254.309 86.792 254.309 82.62C254.309 78.448 252.713 76.992 248.597 76.992C244.481 76.992 242.969 78.448 242.969 82.62C242.969 86.792 244.481 88.248 248.597 88.248ZM268.573 92.28C262.469 92.28 259.361 89.2 259.361 84.16V73.24H263.561V83.852C263.561 87.044 264.765 88.192 268.573 88.192C272.409 88.192 273.585 87.044 273.585 83.852V73.24H277.785V84.16C277.785 89.2 274.705 92.28 268.573 92.28ZM125.16 126.28C119.476 126.28 116.284 124.04 116.284 119.672V119.504H120.484V120.008C120.484 121.744 121.352 122.444 125.16 122.444C128.52 122.444 129.304 121.94 129.304 120.68C129.304 119.532 128.66 119.112 126.728 118.776L121.464 118.02C118.104 117.488 116.116 115.808 116.116 112.756C116.116 109.928 118.412 106.96 124.712 106.96C130.48 106.96 133.168 109.62 133.168 113.568V113.736H128.94V113.344C128.94 111.552 128.016 110.796 124.292 110.796C121.268 110.796 120.344 111.384 120.344 112.588C120.344 113.68 120.96 114.072 122.528 114.352L127.792 115.192C131.992 115.864 133.504 117.908 133.504 120.484C133.504 123.536 131.124 126.28 125.16 126.28ZM144.538 126H140.338V111.02H133.366V107.24H151.51V111.02H144.538V126ZM155.34 126H150.636L158.84 107.24H164.832L173.092 126H168.276L166.512 121.856H157.132L155.34 126ZM160.52 113.988L158.756 118.076H164.888L163.124 113.988L161.976 111.076H161.668L160.52 113.988ZM177.152 126H172.952V107.24H183.312C187.932 107.24 190.564 109.284 190.564 112.868C190.564 115.92 188.8 117.74 185.272 118.076V118.3C186.952 118.748 187.596 119.644 188.296 120.96L191.012 126H186.14L183.564 121.128C182.808 119.672 182.108 119.196 179.924 119.196H177.152V126ZM177.152 111.02V116.032H183.284C185.272 116.032 186.168 115.472 186.168 113.512C186.168 111.664 185.272 111.02 183.284 111.02H177.152ZM201.663 126H197.463V111.02H190.491V107.24H208.635V111.02H201.663V126ZM224.897 126H209.021V107.24H224.897V111.02H213.221V114.688H224.477V118.44H213.221V122.22H224.897V126ZM234.942 126H225.898V107.24H234.942C240.962 107.24 244.77 110.74 244.77 116.62C244.77 122.5 240.962 126 234.942 126ZM234.942 111.02H230.098V122.22H234.942C238.75 122.22 240.29 121.128 240.29 116.62C240.29 112.112 238.75 111.02 234.942 111.02Z" fill="white"/>
</svg>
