<svg width="332" height="87" viewBox="0 0 332 87" fill="none" xmlns="http://www.w3.org/2000/svg">
<g clip-path="url(#clip0_1117_2983)">
<rect width="332" height="87" fill="url(#paint0_linear_1117_2983)" fill-opacity="0.02"/>
<rect width="332" height="87" fill="white" fill-opacity="0.04"/>
<rect x="0.5" y="0.5" width="331" height="86" stroke="white" stroke-opacity="0.08"/>
<g clip-path="url(#clip1_1117_2983)">
<path d="M-10.6997 48.002H-12.0559L-9.69062 42.5934H-7.9631L-5.58171 48.002H-6.97018L-7.47875 46.8072H-10.183L-10.6997 48.002ZM-9.20627 44.5388L-9.71484 45.7174H-7.94696L-8.45553 44.5388L-8.7865 43.6993H-8.8753L-9.20627 44.5388ZM-2.5199 48.002H-3.73077V42.5934H-2.43917L-0.501767 45.1524L0.240903 46.2906H0.329701L0.273194 45.2008V42.5934H1.48407V48.002H0.192469L-1.80144 45.4187L-2.48761 44.4016H-2.56833L-2.5199 45.3945V48.002ZM6.86509 48.002H2.28798V42.5934H6.86509V43.6832H3.49886V44.7407H6.74401V45.8224H3.49886V46.9122H6.86509V48.002ZM10.4151 48.002H8.61494L7.33948 42.5934H8.69566L9.34953 45.6609L9.5352 46.8476H9.624L9.87425 45.6609L10.7784 42.5934H12.5785L13.4746 45.6609L13.7248 46.8476H13.8136L13.9993 45.6609L14.6532 42.5934H15.9771L14.6935 48.002H12.8934L12.0861 45.2977L11.7067 43.7397H11.6179L11.2385 45.2977L10.4151 48.002ZM20.4175 48.0827C18.7788 48.0827 17.8585 47.4369 17.8585 46.1776V46.1291H19.0694V46.2744C19.0694 46.7749 19.3197 46.9767 20.4175 46.9767C21.3862 46.9767 21.6122 46.8314 21.6122 46.4682C21.6122 46.1372 21.4266 46.0161 20.8696 45.9192L19.3519 45.7013C18.3832 45.5479 17.8101 45.0636 17.8101 44.1837C17.8101 43.3683 18.472 42.5126 20.2884 42.5126C21.9513 42.5126 22.7263 43.2795 22.7263 44.4178V44.4662H21.5073V44.3532C21.5073 43.8365 21.2409 43.6186 20.1673 43.6186C19.2954 43.6186 19.029 43.7881 19.029 44.1352C19.029 44.45 19.2066 44.5631 19.6587 44.6438L21.1763 44.886C22.3872 45.0797 22.8231 45.669 22.8231 46.4117C22.8231 47.2916 22.137 48.0827 20.4175 48.0827ZM28.0548 48.002H23.4777V42.5934H28.0548V43.6832H24.6886V44.7407H27.9337V45.8224H24.6886V46.9122H28.0548V48.002ZM29.7562 48.002H28.4L30.7653 42.5934H32.4928L34.8742 48.002H33.4857L32.9771 46.8072H30.2729L29.7562 48.002ZM31.2496 44.5388L30.7411 45.7174H32.5089L32.0004 44.5388L31.6694 43.6993H31.5806L31.2496 44.5388ZM37.7722 48.0827C36.1334 48.0827 35.2132 47.4369 35.2132 46.1776V46.1291H36.424V46.2744C36.424 46.7749 36.6743 46.9767 37.7722 46.9767C38.7409 46.9767 38.9669 46.8314 38.9669 46.4682C38.9669 46.1372 38.7812 46.0161 38.2242 45.9192L36.7066 45.7013C35.7379 45.5479 35.1647 45.0636 35.1647 44.1837C35.1647 43.3683 35.8267 42.5126 37.643 42.5126C39.3059 42.5126 40.0809 43.2795 40.0809 44.4178V44.4662H38.8619V44.3532C38.8619 43.8365 38.5956 43.6186 37.5219 43.6186C36.6501 43.6186 36.3837 43.7881 36.3837 44.1352C36.3837 44.45 36.5613 44.5631 37.0133 44.6438L38.531 44.886C39.7418 45.0797 40.1778 45.669 40.1778 46.4117C40.1778 47.2916 39.4916 48.0827 37.7722 48.0827ZM43.6173 48.0827C41.8252 48.0827 40.7112 46.9848 40.7112 45.2977C40.7112 43.6105 41.8252 42.5126 43.6173 42.5126C45.4498 42.5126 46.5557 43.6105 46.5557 45.2977C46.5557 46.9848 45.4498 48.0827 43.6173 48.0827ZM43.6173 46.9202C44.804 46.9202 45.2641 46.5005 45.2641 45.2977C45.2641 44.0949 44.804 43.6751 43.6173 43.6751C42.4307 43.6751 41.9948 44.0949 41.9948 45.2977C41.9948 46.5005 42.4307 46.9202 43.6173 46.9202ZM48.4561 48.002H47.2452V42.5934H48.5369L50.4743 45.1524L51.2169 46.2906H51.3057L51.2492 45.2008V42.5934H52.4601V48.002H51.1685L49.1746 45.4187L48.4884 44.4016H48.4077L48.4561 45.3945V48.002ZM55.8819 48.002H54.671V42.5934H55.8819V48.002ZM59.1312 48.0827C57.4925 48.0827 56.5722 47.4369 56.5722 46.1776V46.1291H57.7831V46.2744C57.7831 46.7749 58.0333 46.9767 59.1312 46.9767C60.0999 46.9767 60.3259 46.8314 60.3259 46.4682C60.3259 46.1372 60.1403 46.0161 59.5833 45.9192L58.0656 45.7013C57.0969 45.5479 56.5238 45.0636 56.5238 44.1837C56.5238 43.3683 57.1857 42.5126 59.002 42.5126C60.665 42.5126 61.4399 43.2795 61.4399 44.4178V44.4662H60.221V44.3532C60.221 43.8365 59.9546 43.6186 58.881 43.6186C58.0091 43.6186 57.7427 43.7881 57.7427 44.1352C57.7427 44.45 57.9203 44.5631 58.3724 44.6438L59.89 44.886C61.1009 45.0797 61.5368 45.669 61.5368 46.4117C61.5368 47.2916 60.8506 48.0827 59.1312 48.0827ZM64.8093 48.002H63.5984V42.5934H64.8093V44.7407H67.6346V42.5934H68.8455V48.002H67.6346V45.8304H64.8093V48.002ZM74.2337 48.002H69.6566V42.5934H74.2337V43.6832H70.8674V44.7407H74.1126V45.8224H70.8674V46.9122H74.2337V48.002ZM76.153 48.002H74.9422V42.5934H77.929C79.261 42.5934 80.0198 43.1827 80.0198 44.2159C80.0198 45.0958 79.5112 45.6206 78.4941 45.7174V45.782C78.9784 45.9112 79.1641 46.1695 79.3659 46.5489L80.1489 48.002H78.7443L78.0016 46.5973C77.7837 46.1776 77.5819 46.0403 76.9522 46.0403H76.153V48.002ZM76.153 43.6832V45.1281H77.9209C78.4941 45.1281 78.7524 44.9667 78.7524 44.4016C78.7524 43.8688 78.4941 43.6832 77.9209 43.6832H76.153ZM85.27 48.002H80.6929V42.5934H85.27V43.6832H81.9038V44.7407H85.1489V45.8224H81.9038V46.9122H85.27V48.002ZM87.4557 46.226H86.2368C86.2368 45.5641 86.0673 43.78 86.0673 43.1584V42.5934H87.6253V43.1584C87.6253 43.78 87.4557 45.5721 87.4557 46.226ZM87.5365 48.002H86.1561V46.6861H87.5365V48.002Z" fill="white"/>
<rect x="-25.9181" y="26.0989" width="128.805" height="37.8053" stroke="url(#paint1_linear_1117_2983)" stroke-opacity="0.32" stroke-width="0.896946"/>
<rect x="-25.9181" y="26.0989" width="128.805" height="37.8053" stroke="url(#paint2_linear_1117_2983)" stroke-opacity="0.32" stroke-width="0.896946"/>
<rect x="-4.39137" y="71.843" width="128.805" height="37.8053" stroke="url(#paint3_linear_1117_2983)" stroke-opacity="0.32" stroke-width="0.896946"/>
<rect x="-4.39137" y="71.843" width="128.805" height="37.8053" stroke="url(#paint4_linear_1117_2983)" stroke-opacity="0.32" stroke-width="0.896946"/>
<rect x="-98.2158" y="-22.3357" width="128.805" height="37.8053" stroke="url(#paint5_linear_1117_2983)" stroke-opacity="0.32" stroke-width="0.896946"/>
<rect x="-98.2158" y="-22.3357" width="128.805" height="37.8053" stroke="url(#paint6_linear_1117_2983)" stroke-opacity="0.32" stroke-width="0.896946"/>
<rect x="38.6621" y="-22.3357" width="128.805" height="37.8053" stroke="url(#paint7_linear_1117_2983)" stroke-opacity="0.32" stroke-width="0.896946"/>
<rect x="38.6621" y="-22.3357" width="128.805" height="37.8053" stroke="url(#paint8_linear_1117_2983)" stroke-opacity="0.32" stroke-width="0.896946"/>
<path d="M121.064 48.002H119.707L122.073 42.5934H123.8L126.182 48.002H124.793L124.285 46.8072H121.58L121.064 48.002ZM122.557 44.5388L122.048 45.7174H123.816L123.308 44.5388L122.977 43.6993H122.888L122.557 44.5388ZM129.243 48.002H128.033V42.5934H129.324L131.262 45.1524L132.004 46.2906H132.093L132.036 45.2008V42.5934H133.247V48.002H131.956L129.962 45.4187L129.276 44.4016H129.195L129.243 45.3945V48.002ZM138.628 48.002H134.051V42.5934H138.628V43.6832H135.262V44.7407H138.507V45.8224H135.262V46.9122H138.628V48.002ZM142.178 48.002H140.378L139.103 42.5934H140.459L141.113 45.6609L141.299 46.8476H141.387L141.638 45.6609L142.542 42.5934H144.342L145.238 45.6609L145.488 46.8476H145.577L145.763 45.6609L146.416 42.5934H147.74L146.457 48.002H144.657L143.849 45.2977L143.47 43.7397H143.381L143.002 45.2977L142.178 48.002ZM152.181 48.0827C150.542 48.0827 149.622 47.4369 149.622 46.1776V46.1291H150.833V46.2744C150.833 46.7749 151.083 46.9767 152.181 46.9767C153.15 46.9767 153.376 46.8314 153.376 46.4682C153.376 46.1372 153.19 46.0161 152.633 45.9192L151.115 45.7013C150.147 45.5479 149.573 45.0636 149.573 44.1837C149.573 43.3683 150.235 42.5126 152.052 42.5126C153.715 42.5126 154.49 43.2795 154.49 44.4178V44.4662H153.271V44.3532C153.271 43.8365 153.004 43.6186 151.931 43.6186C151.059 43.6186 150.792 43.7881 150.792 44.1352C150.792 44.45 150.97 44.5631 151.422 44.6438L152.94 44.886C154.151 45.0797 154.586 45.669 154.586 46.4117C154.586 47.2916 153.9 48.0827 152.181 48.0827ZM159.818 48.002H155.241V42.5934H159.818V43.6832H156.452V44.7407H159.697V45.8224H156.452V46.9122H159.818V48.002ZM161.52 48.002H160.163L162.529 42.5934H164.256L166.637 48.002H165.249L164.74 46.8072H162.036L161.52 48.002ZM163.013 44.5388L162.504 45.7174H164.272L163.764 44.5388L163.433 43.6993H163.344L163.013 44.5388ZM169.535 48.0827C167.897 48.0827 166.976 47.4369 166.976 46.1776V46.1291H168.187V46.2744C168.187 46.7749 168.438 46.9767 169.535 46.9767C170.504 46.9767 170.73 46.8314 170.73 46.4682C170.73 46.1372 170.545 46.0161 169.988 45.9192L168.47 45.7013C167.501 45.5479 166.928 45.0636 166.928 44.1837C166.928 43.3683 167.59 42.5126 169.406 42.5126C171.069 42.5126 171.844 43.2795 171.844 44.4178V44.4662H170.625V44.3532C170.625 43.8365 170.359 43.6186 169.285 43.6186C168.413 43.6186 168.147 43.7881 168.147 44.1352C168.147 44.45 168.325 44.5631 168.777 44.6438L170.294 44.886C171.505 45.0797 171.941 45.669 171.941 46.4117C171.941 47.2916 171.255 48.0827 169.535 48.0827ZM175.381 48.0827C173.589 48.0827 172.475 46.9848 172.475 45.2977C172.475 43.6105 173.589 42.5126 175.381 42.5126C177.213 42.5126 178.319 43.6105 178.319 45.2977C178.319 46.9848 177.213 48.0827 175.381 48.0827ZM175.381 46.9202C176.567 46.9202 177.027 46.5005 177.027 45.2977C177.027 44.0949 176.567 43.6751 175.381 43.6751C174.194 43.6751 173.758 44.0949 173.758 45.2977C173.758 46.5005 174.194 46.9202 175.381 46.9202ZM180.219 48.002H179.009V42.5934H180.3L182.238 45.1524L182.98 46.2906H183.069L183.013 45.2008V42.5934H184.223V48.002H182.932L180.938 45.4187L180.252 44.4016H180.171L180.219 45.3945V48.002ZM187.645 48.002H186.434V42.5934H187.645V48.002ZM190.895 48.0827C189.256 48.0827 188.336 47.4369 188.336 46.1776V46.1291H189.546V46.2744C189.546 46.7749 189.797 46.9767 190.895 46.9767C191.863 46.9767 192.089 46.8314 192.089 46.4682C192.089 46.1372 191.904 46.0161 191.347 45.9192L189.829 45.7013C188.86 45.5479 188.287 45.0636 188.287 44.1837C188.287 43.3683 188.949 42.5126 190.765 42.5126C192.428 42.5126 193.203 43.2795 193.203 44.4178V44.4662H191.984V44.3532C191.984 43.8365 191.718 43.6186 190.644 43.6186C189.772 43.6186 189.506 43.7881 189.506 44.1352C189.506 44.45 189.684 44.5631 190.136 44.6438L191.653 44.886C192.864 45.0797 193.3 45.669 193.3 46.4117C193.3 47.2916 192.614 48.0827 190.895 48.0827ZM196.573 48.002H195.362V42.5934H196.573V44.7407H199.398V42.5934H200.609V48.002H199.398V45.8304H196.573V48.002ZM205.997 48.002H201.42V42.5934H205.997V43.6832H202.631V44.7407H205.876V45.8224H202.631V46.9122H205.997V48.002ZM207.916 48.002H206.705V42.5934H209.692C211.024 42.5934 211.783 43.1827 211.783 44.2159C211.783 45.0958 211.275 45.6206 210.257 45.7174V45.782C210.742 45.9112 210.927 46.1695 211.129 46.5489L211.912 48.002H210.508L209.765 46.5973C209.547 46.1776 209.345 46.0403 208.716 46.0403H207.916V48.002ZM207.916 43.6832V45.1281H209.684C210.257 45.1281 210.516 44.9667 210.516 44.4016C210.516 43.8688 210.257 43.6832 209.684 43.6832H207.916ZM217.033 48.002H212.456V42.5934H217.033V43.6832H213.667V44.7407H216.912V45.8224H213.667V46.9122H217.033V48.002ZM219.219 46.226H218C218 45.5641 217.831 43.78 217.831 43.1584V42.5934H219.389V43.1584C219.389 43.78 219.219 45.5721 219.219 46.226ZM219.3 48.002H217.919V46.6861H219.3V48.002Z" fill="white"/>
<rect x="105.845" y="26.0989" width="128.805" height="37.8053" stroke="url(#paint9_linear_1117_2983)" stroke-opacity="0.32" stroke-width="0.896946"/>
<rect x="105.845" y="26.0989" width="128.805" height="37.8053" stroke="url(#paint10_linear_1117_2983)" stroke-opacity="0.32" stroke-width="0.896946"/>
<path d="M257.942 48.002H256.585L258.951 42.5934H260.678L263.06 48.002H261.671L261.162 46.8072H258.458L257.942 48.002ZM259.435 44.5388L258.926 45.7174H260.694L260.186 44.5388L259.855 43.6993H259.766L259.435 44.5388ZM266.121 48.002H264.91V42.5934H266.202L268.139 45.1524L268.882 46.2906H268.971L268.914 45.2008V42.5934H270.125V48.002H268.834L266.84 45.4187L266.154 44.4016H266.073L266.121 45.3945V48.002ZM275.506 48.002H270.929V42.5934H275.506V43.6832H272.14V44.7407H275.385V45.8224H272.14V46.9122H275.506V48.002ZM279.056 48.002H277.256L275.981 42.5934H277.337L277.991 45.6609L278.176 46.8476H278.265L278.515 45.6609L279.42 42.5934H281.22L282.116 45.6609L282.366 46.8476H282.455L282.641 45.6609L283.294 42.5934H284.618L283.335 48.002H281.535L280.727 45.2977L280.348 43.7397H280.259L279.88 45.2977L279.056 48.002ZM289.059 48.0827C287.42 48.0827 286.5 47.4369 286.5 46.1776V46.1291H287.711V46.2744C287.711 46.7749 287.961 46.9767 289.059 46.9767C290.027 46.9767 290.253 46.8314 290.253 46.4682C290.253 46.1372 290.068 46.0161 289.511 45.9192L287.993 45.7013C287.024 45.5479 286.451 45.0636 286.451 44.1837C286.451 43.3683 287.113 42.5126 288.93 42.5126C290.593 42.5126 291.367 43.2795 291.367 44.4178V44.4662H290.149V44.3532C290.149 43.8365 289.882 43.6186 288.809 43.6186C287.937 43.6186 287.67 43.7881 287.67 44.1352C287.67 44.45 287.848 44.5631 288.3 44.6438L289.818 44.886C291.028 45.0797 291.464 45.669 291.464 46.4117C291.464 47.2916 290.778 48.0827 289.059 48.0827ZM296.696 48.002H292.119V42.5934H296.696V43.6832H293.33V44.7407H296.575V45.8224H293.33V46.9122H296.696V48.002ZM298.397 48.002H297.041L299.407 42.5934H301.134L303.515 48.002H302.127L301.618 46.8072H298.914L298.397 48.002ZM299.891 44.5388L299.382 45.7174H301.15L300.642 44.5388L300.311 43.6993H300.222L299.891 44.5388ZM306.413 48.0827C304.775 48.0827 303.854 47.4369 303.854 46.1776V46.1291H305.065V46.2744C305.065 46.7749 305.316 46.9767 306.413 46.9767C307.382 46.9767 307.608 46.8314 307.608 46.4682C307.608 46.1372 307.422 46.0161 306.865 45.9192L305.348 45.7013C304.379 45.5479 303.806 45.0636 303.806 44.1837C303.806 43.3683 304.468 42.5126 306.284 42.5126C307.947 42.5126 308.722 43.2795 308.722 44.4178V44.4662H307.503V44.3532C307.503 43.8365 307.237 43.6186 306.163 43.6186C305.291 43.6186 305.025 43.7881 305.025 44.1352C305.025 44.45 305.203 44.5631 305.655 44.6438L307.172 44.886C308.383 45.0797 308.819 45.669 308.819 46.4117C308.819 47.2916 308.133 48.0827 306.413 48.0827ZM312.259 48.0827C310.466 48.0827 309.352 46.9848 309.352 45.2977C309.352 43.6105 310.466 42.5126 312.259 42.5126C314.091 42.5126 315.197 43.6105 315.197 45.2977C315.197 46.9848 314.091 48.0827 312.259 48.0827ZM312.259 46.9202C313.445 46.9202 313.905 46.5005 313.905 45.2977C313.905 44.0949 313.445 43.6751 312.259 43.6751C311.072 43.6751 310.636 44.0949 310.636 45.2977C310.636 46.5005 311.072 46.9202 312.259 46.9202ZM317.097 48.002H315.886V42.5934H317.178L319.115 45.1524L319.858 46.2906H319.947L319.89 45.2008V42.5934H321.101V48.002H319.81L317.816 45.4187L317.13 44.4016H317.049L317.097 45.3945V48.002ZM324.523 48.002H323.312V42.5934H324.523V48.002ZM327.772 48.0827C326.134 48.0827 325.213 47.4369 325.213 46.1776V46.1291H326.424V46.2744C326.424 46.7749 326.675 46.9767 327.772 46.9767C328.741 46.9767 328.967 46.8314 328.967 46.4682C328.967 46.1372 328.781 46.0161 328.224 45.9192L326.707 45.7013C325.738 45.5479 325.165 45.0636 325.165 44.1837C325.165 43.3683 325.827 42.5126 327.643 42.5126C329.306 42.5126 330.081 43.2795 330.081 44.4178V44.4662H328.862V44.3532C328.862 43.8365 328.596 43.6186 327.522 43.6186C326.65 43.6186 326.384 43.7881 326.384 44.1352C326.384 44.45 326.562 44.5631 327.014 44.6438L328.531 44.886C329.742 45.0797 330.178 45.669 330.178 46.4117C330.178 47.2916 329.492 48.0827 327.772 48.0827ZM333.451 48.002H332.24V42.5934H333.451V44.7407H336.276V42.5934H337.487V48.002H336.276V45.8304H333.451V48.002ZM342.875 48.002H338.298V42.5934H342.875V43.6832H339.509V44.7407H342.754V45.8224H339.509V46.9122H342.875V48.002ZM344.794 48.002H343.583V42.5934H346.57C347.902 42.5934 348.661 43.1827 348.661 44.2159C348.661 45.0958 348.152 45.6206 347.135 45.7174V45.782C347.62 45.9112 347.805 46.1695 348.007 46.5489L348.79 48.002H347.386L346.643 46.5973C346.425 46.1776 346.223 46.0403 345.593 46.0403H344.794V48.002ZM344.794 43.6832V45.1281H346.562C347.135 45.1281 347.394 44.9667 347.394 44.4016C347.394 43.8688 347.135 43.6832 346.562 43.6832H344.794ZM353.911 48.002H349.334V42.5934H353.911V43.6832H350.545V44.7407H353.79V45.8224H350.545V46.9122H353.911V48.002ZM356.097 46.226H354.878C354.878 45.5641 354.709 43.78 354.709 43.1584V42.5934H356.267V43.1584C356.267 43.78 356.097 45.5721 356.097 46.226ZM356.178 48.002H354.797V46.6861H356.178V48.002Z" fill="white"/>
<rect x="242.723" y="26.0989" width="128.805" height="37.8053" stroke="url(#paint11_linear_1117_2983)" stroke-opacity="0.32" stroke-width="0.896946"/>
<rect x="242.723" y="26.0989" width="128.805" height="37.8053" stroke="url(#paint12_linear_1117_2983)" stroke-opacity="0.32" stroke-width="0.896946"/>
<rect x="127.372" y="71.843" width="128.805" height="37.8053" stroke="url(#paint13_linear_1117_2983)" stroke-opacity="0.32" stroke-width="0.896946"/>
<rect x="127.372" y="71.843" width="128.805" height="37.8053" stroke="url(#paint14_linear_1117_2983)" stroke-opacity="0.32" stroke-width="0.896946"/>
<rect x="264.25" y="71.843" width="128.805" height="37.8053" stroke="url(#paint15_linear_1117_2983)" stroke-opacity="0.32" stroke-width="0.896946"/>
<rect x="264.25" y="71.843" width="128.805" height="37.8053" stroke="url(#paint16_linear_1117_2983)" stroke-opacity="0.32" stroke-width="0.896946"/>
<rect x="170.426" y="-22.3357" width="128.805" height="37.8053" stroke="url(#paint17_linear_1117_2983)" stroke-opacity="0.32" stroke-width="0.896946"/>
<rect x="170.426" y="-22.3357" width="128.805" height="37.8053" stroke="url(#paint18_linear_1117_2983)" stroke-opacity="0.32" stroke-width="0.896946"/>
<rect x="307.303" y="-22.3357" width="128.805" height="37.8053" stroke="url(#paint19_linear_1117_2983)" stroke-opacity="0.32" stroke-width="0.896946"/>
<rect x="307.303" y="-22.3357" width="128.805" height="37.8053" stroke="url(#paint20_linear_1117_2983)" stroke-opacity="0.32" stroke-width="0.896946"/>
<rect x="-477.907" y="-129.598" width="1566.59" height="343.922" fill="url(#paint21_radial_1117_2983)"/>
<rect x="-477.907" y="-129.598" width="1566.59" height="343.922" fill="url(#paint22_radial_1117_2983)"/>
<rect x="-477.907" y="-129.598" width="1566.59" height="343.922" fill="url(#paint23_radial_1117_2983)"/>
<rect x="-477.907" y="-129.598" width="1566.59" height="343.922" fill="url(#paint24_radial_1117_2983)"/>
</g>
</g>
<defs>
<linearGradient id="paint0_linear_1117_2983" x1="193.295" y1="-24.5182" x2="193.576" y2="89.9707" gradientUnits="userSpaceOnUse">
<stop stop-color="white"/>
<stop offset="1" stop-color="white" stop-opacity="0"/>
</linearGradient>
<linearGradient id="paint1_linear_1117_2983" x1="-26.3666" y1="25.6504" x2="3.54294" y2="40.0174" gradientUnits="userSpaceOnUse">
<stop stop-color="#FCFCFC"/>
<stop offset="1" stop-color="#FCFCFC" stop-opacity="0"/>
</linearGradient>
<linearGradient id="paint2_linear_1117_2983" x1="103.336" y1="64.3526" x2="73.9618" y2="49.8811" gradientUnits="userSpaceOnUse">
<stop stop-color="#FCFCFC"/>
<stop offset="1" stop-color="#FCFCFC" stop-opacity="0"/>
</linearGradient>
<linearGradient id="paint3_linear_1117_2983" x1="-4.83984" y1="71.3945" x2="25.0697" y2="85.7616" gradientUnits="userSpaceOnUse">
<stop stop-color="#FCFCFC"/>
<stop offset="1" stop-color="#FCFCFC" stop-opacity="0"/>
</linearGradient>
<linearGradient id="paint4_linear_1117_2983" x1="124.862" y1="110.097" x2="95.4886" y2="95.6252" gradientUnits="userSpaceOnUse">
<stop stop-color="#FCFCFC"/>
<stop offset="1" stop-color="#FCFCFC" stop-opacity="0"/>
</linearGradient>
<linearGradient id="paint5_linear_1117_2983" x1="-98.6643" y1="-22.7842" x2="-68.7548" y2="-8.41712" gradientUnits="userSpaceOnUse">
<stop stop-color="#FCFCFC"/>
<stop offset="1" stop-color="#FCFCFC" stop-opacity="0"/>
</linearGradient>
<linearGradient id="paint6_linear_1117_2983" x1="31.038" y1="15.9181" x2="1.66412" y2="1.44653" gradientUnits="userSpaceOnUse">
<stop stop-color="#FCFCFC"/>
<stop offset="1" stop-color="#FCFCFC" stop-opacity="0"/>
</linearGradient>
<linearGradient id="paint7_linear_1117_2983" x1="38.2136" y1="-22.7842" x2="68.1231" y2="-8.41712" gradientUnits="userSpaceOnUse">
<stop stop-color="#FCFCFC"/>
<stop offset="1" stop-color="#FCFCFC" stop-opacity="0"/>
</linearGradient>
<linearGradient id="paint8_linear_1117_2983" x1="167.916" y1="15.9181" x2="138.542" y2="1.44653" gradientUnits="userSpaceOnUse">
<stop stop-color="#FCFCFC"/>
<stop offset="1" stop-color="#FCFCFC" stop-opacity="0"/>
</linearGradient>
<linearGradient id="paint9_linear_1117_2983" x1="105.397" y1="25.6504" x2="135.306" y2="40.0174" gradientUnits="userSpaceOnUse">
<stop stop-color="#FCFCFC"/>
<stop offset="1" stop-color="#FCFCFC" stop-opacity="0"/>
</linearGradient>
<linearGradient id="paint10_linear_1117_2983" x1="235.099" y1="64.3526" x2="205.725" y2="49.8811" gradientUnits="userSpaceOnUse">
<stop stop-color="#FCFCFC"/>
<stop offset="1" stop-color="#FCFCFC" stop-opacity="0"/>
</linearGradient>
<linearGradient id="paint11_linear_1117_2983" x1="242.275" y1="25.6504" x2="272.184" y2="40.0174" gradientUnits="userSpaceOnUse">
<stop stop-color="#FCFCFC"/>
<stop offset="1" stop-color="#FCFCFC" stop-opacity="0"/>
</linearGradient>
<linearGradient id="paint12_linear_1117_2983" x1="371.977" y1="64.3526" x2="342.603" y2="49.8811" gradientUnits="userSpaceOnUse">
<stop stop-color="#FCFCFC"/>
<stop offset="1" stop-color="#FCFCFC" stop-opacity="0"/>
</linearGradient>
<linearGradient id="paint13_linear_1117_2983" x1="126.924" y1="71.3945" x2="156.833" y2="85.7616" gradientUnits="userSpaceOnUse">
<stop stop-color="#FCFCFC"/>
<stop offset="1" stop-color="#FCFCFC" stop-opacity="0"/>
</linearGradient>
<linearGradient id="paint14_linear_1117_2983" x1="256.626" y1="110.097" x2="227.252" y2="95.6252" gradientUnits="userSpaceOnUse">
<stop stop-color="#FCFCFC"/>
<stop offset="1" stop-color="#FCFCFC" stop-opacity="0"/>
</linearGradient>
<linearGradient id="paint15_linear_1117_2983" x1="263.802" y1="71.3945" x2="293.711" y2="85.7616" gradientUnits="userSpaceOnUse">
<stop stop-color="#FCFCFC"/>
<stop offset="1" stop-color="#FCFCFC" stop-opacity="0"/>
</linearGradient>
<linearGradient id="paint16_linear_1117_2983" x1="393.504" y1="110.097" x2="364.13" y2="95.6252" gradientUnits="userSpaceOnUse">
<stop stop-color="#FCFCFC"/>
<stop offset="1" stop-color="#FCFCFC" stop-opacity="0"/>
</linearGradient>
<linearGradient id="paint17_linear_1117_2983" x1="169.977" y1="-22.7842" x2="199.887" y2="-8.41712" gradientUnits="userSpaceOnUse">
<stop stop-color="#FCFCFC"/>
<stop offset="1" stop-color="#FCFCFC" stop-opacity="0"/>
</linearGradient>
<linearGradient id="paint18_linear_1117_2983" x1="299.679" y1="15.9181" x2="270.305" y2="1.44653" gradientUnits="userSpaceOnUse">
<stop stop-color="#FCFCFC"/>
<stop offset="1" stop-color="#FCFCFC" stop-opacity="0"/>
</linearGradient>
<linearGradient id="paint19_linear_1117_2983" x1="306.855" y1="-22.7842" x2="336.764" y2="-8.41712" gradientUnits="userSpaceOnUse">
<stop stop-color="#FCFCFC"/>
<stop offset="1" stop-color="#FCFCFC" stop-opacity="0"/>
</linearGradient>
<linearGradient id="paint20_linear_1117_2983" x1="436.557" y1="15.9181" x2="407.183" y2="1.44653" gradientUnits="userSpaceOnUse">
<stop stop-color="#FCFCFC"/>
<stop offset="1" stop-color="#FCFCFC" stop-opacity="0"/>
</linearGradient>
<radialGradient id="paint21_radial_1117_2983" cx="0" cy="0" r="1" gradientUnits="userSpaceOnUse" gradientTransform="translate(-263.061 12.8844) rotate(4.48905) scale(338.975 83.4202)">
<stop/>
<stop offset="1" stop-opacity="0"/>
</radialGradient>
<radialGradient id="paint22_radial_1117_2983" cx="0" cy="0" r="1" gradientUnits="userSpaceOnUse" gradientTransform="translate(580.659 12.8844) rotate(169.171) scale(230.134 85.7395)">
<stop/>
<stop offset="1" stop-opacity="0"/>
</radialGradient>
<radialGradient id="paint23_radial_1117_2983" cx="0" cy="0" r="1" gradientUnits="userSpaceOnUse" gradientTransform="translate(670.178 67.9119) rotate(-175.278) scale(435.647 108.442)">
<stop/>
<stop offset="1" stop-opacity="0"/>
</radialGradient>
<radialGradient id="paint24_radial_1117_2983" cx="0" cy="0" r="1" gradientUnits="userSpaceOnUse" gradientTransform="translate(-305.582 77.2469) rotate(-4.2198) scale(339.695 82.5495)">
<stop/>
<stop offset="1" stop-opacity="0"/>
</radialGradient>
<clipPath id="clip0_1117_2983">
<rect width="332" height="87" fill="white"/>
</clipPath>
<clipPath id="clip1_1117_2983">
<rect width="1206" height="132.569" fill="white" transform="translate(-437 -22.7842)"/>
</clipPath>
</defs>
</svg>
