<svg width="269" height="126" viewBox="0 0 269 126" fill="none" xmlns="http://www.w3.org/2000/svg">
<g clip-path="url(#clip0_1117_3407)">
<rect width="269" height="126" fill="url(#paint0_linear_1117_3407)" fill-opacity="0.02"/>
<rect width="269" height="126" fill="white" fill-opacity="0.04"/>
<rect x="0.5" y="0.5" width="268" height="125" stroke="white" stroke-opacity="0.08"/>
<g filter="url(#filter0_f_1117_3407)">
<rect x="25.3379" y="87.751" width="43.9888" height="16" transform="rotate(-29.9927 25.3379 87.751)" fill="white" fill-opacity="0.32"/>
</g>
<g filter="url(#filter1_f_1117_3407)">
<rect x="212.658" y="78.2666" width="25.47" height="16" transform="rotate(-39.9527 212.658 78.2666)" fill="white" fill-opacity="0.2"/>
</g>
<g filter="url(#filter2_f_1117_3407)">
<rect x="180" y="107" width="57" height="16" transform="rotate(-180 180 107)" fill="white" fill-opacity="0.18"/>
</g>
<g filter="url(#filter3_f_1117_3407)">
<rect x="152" y="48" width="33" height="16" transform="rotate(-180 152 48)" fill="white" fill-opacity="0.24"/>
</g>
<mask id="path-8-inside-1_1117_3407" fill="white">
<path fill-rule="evenodd" clip-rule="evenodd" d="M159.975 43.5265C156.77 54.3646 146.741 62.273 134.864 62.273C123.281 62.273 113.455 54.7519 110.003 44.3272C102.152 47.8001 94.8665 52.9253 88.6818 59.6945H41.2439C27.0762 59.6945 15.5909 71.1797 15.5909 85.3475C15.5909 99.5152 27.0761 111 41.2439 111H227.756C241.924 111 253.409 99.5152 253.409 85.3475C253.409 71.1797 241.924 59.6945 227.756 59.6945H210.864H183.227L181.837 58.2636C175.426 51.6658 167.959 46.7562 159.975 43.5265Z"/>
</mask>
<path fill-rule="evenodd" clip-rule="evenodd" d="M159.975 43.5265C156.77 54.3646 146.741 62.273 134.864 62.273C123.281 62.273 113.455 54.7519 110.003 44.3272C102.152 47.8001 94.8665 52.9253 88.6818 59.6945H41.2439C27.0762 59.6945 15.5909 71.1797 15.5909 85.3475C15.5909 99.5152 27.0761 111 41.2439 111H227.756C241.924 111 253.409 99.5152 253.409 85.3475C253.409 71.1797 241.924 59.6945 227.756 59.6945H210.864H183.227L181.837 58.2636C175.426 51.6658 167.959 46.7562 159.975 43.5265Z" fill="#7C7878" fill-opacity="0.08"/>
<path d="M159.975 43.5265L160.35 42.5995L159.328 42.1862L159.016 43.243L159.975 43.5265ZM110.003 44.3272L110.953 44.0129L110.607 42.967L109.599 43.4127L110.003 44.3272ZM88.6818 59.6945V60.6945H89.1227L89.4201 60.369L88.6818 59.6945ZM183.227 59.6945L182.51 60.3914L182.805 60.6945H183.227V59.6945ZM181.837 58.2636L182.554 57.5667V57.5667L181.837 58.2636ZM159.016 43.243C155.934 53.6679 146.285 61.273 134.864 61.273V63.273C147.196 63.273 157.607 55.0614 160.934 43.81L159.016 43.243ZM134.864 61.273C123.725 61.273 114.273 54.0405 110.953 44.0129L109.054 44.6415C112.637 55.4633 122.837 63.273 134.864 63.273V61.273ZM89.4201 60.369C95.5097 53.7039 102.681 48.6596 110.408 45.2417L109.599 43.4127C101.623 46.9406 94.2234 52.1466 87.9436 59.02L89.4201 60.369ZM41.2439 60.6945H88.6818V58.6945H41.2439V60.6945ZM16.5909 85.3475C16.5909 71.732 27.6284 60.6945 41.2439 60.6945V58.6945C26.5239 58.6945 14.5909 70.6275 14.5909 85.3475H16.5909ZM41.2439 110C27.6284 110 16.5909 98.9629 16.5909 85.3475H14.5909C14.5909 100.067 26.5238 112 41.2439 112V110ZM227.756 110H41.2439V112H227.756V110ZM252.409 85.3475C252.409 98.9629 241.372 110 227.756 110V112C242.476 112 254.409 100.067 254.409 85.3475H252.409ZM227.756 60.6945C241.372 60.6945 252.409 71.732 252.409 85.3475H254.409C254.409 70.6275 242.476 58.6945 227.756 58.6945V60.6945ZM210.864 60.6945H227.756V58.6945H210.864V60.6945ZM183.227 60.6945H210.864V58.6945H183.227V60.6945ZM181.12 58.9605L182.51 60.3914L183.944 58.9977L182.554 57.5667L181.12 58.9605ZM159.6 44.4535C167.457 47.6321 174.808 52.4642 181.12 58.9605L182.554 57.5667C176.045 50.8675 168.46 45.8804 160.35 42.5995L159.6 44.4535Z" fill="white" fill-opacity="0.1" mask="url(#path-8-inside-1_1117_3407)"/>
<path d="M156.682 36.8182C156.682 48.868 146.913 58.6364 134.863 58.6364C122.814 58.6364 113.045 48.868 113.045 36.8182C113.045 24.7683 122.814 15 134.863 15C146.913 15 156.682 24.7683 156.682 36.8182ZM116.232 36.8182C116.232 47.108 124.574 55.4496 134.863 55.4496C145.153 55.4496 153.495 47.108 153.495 36.8182C153.495 26.5284 145.153 18.1868 134.863 18.1868C124.574 18.1868 116.232 26.5284 116.232 36.8182Z" fill="#7C7878" fill-opacity="0.08"/>
<circle cx="134.864" cy="36.8186" r="15.2727" fill="#7C7878" fill-opacity="0.08"/>
<mask id="path-12-inside-2_1117_3407" fill="white">
<path d="M118.955 29.6369C120.181 26.9203 122.082 24.563 124.478 22.7895C126.873 21.016 129.683 19.8855 132.639 19.5056C135.595 19.1258 138.599 19.5092 141.365 20.6194C144.131 21.7297 146.567 23.5297 148.44 25.848L147.612 26.5168C145.853 24.3399 143.566 22.6496 140.969 21.6071C138.372 20.5645 135.551 20.2045 132.775 20.5612C129.999 20.9179 127.36 21.9795 125.111 23.6448C122.862 25.3102 121.076 27.5238 119.925 30.0747L118.955 29.6369Z"/>
</mask>
<path d="M118.955 29.6369C120.181 26.9203 122.082 24.563 124.478 22.7895C126.873 21.016 129.683 19.8855 132.639 19.5056C135.595 19.1258 138.599 19.5092 141.365 20.6194C144.131 21.7297 146.567 23.5297 148.44 25.848L147.612 26.5168C145.853 24.3399 143.566 22.6496 140.969 21.6071C138.372 20.5645 135.551 20.2045 132.775 20.5612C129.999 20.9179 127.36 21.9795 125.111 23.6448C122.862 25.3102 121.076 27.5238 119.925 30.0747L118.955 29.6369Z" stroke="white" stroke-opacity="0.16" stroke-width="1.87013" mask="url(#path-12-inside-2_1117_3407)"/>
<mask id="path-13-inside-3_1117_3407" fill="white">
<path d="M144.704 51.234C141.67 53.3049 138.06 54.3659 134.389 54.2659C130.717 54.1659 127.17 52.9101 124.253 50.6773C121.337 48.4444 119.199 45.3483 118.144 41.8297C117.089 38.3112 117.172 34.5496 118.379 31.0805L119.384 31.4303C118.25 34.6879 118.173 38.2202 119.163 41.5242C120.154 44.8282 122.161 47.7355 124.9 49.8322C127.639 51.929 130.97 53.1082 134.418 53.2021C137.866 53.2959 141.255 52.2997 144.104 50.355L144.704 51.234Z"/>
</mask>
<path d="M144.704 51.234C141.67 53.3049 138.06 54.3659 134.389 54.2659C130.717 54.1659 127.17 52.9101 124.253 50.6773C121.337 48.4444 119.199 45.3483 118.144 41.8297C117.089 38.3112 117.172 34.5496 118.379 31.0805L119.384 31.4303C118.25 34.6879 118.173 38.2202 119.163 41.5242C120.154 44.8282 122.161 47.7355 124.9 49.8322C127.639 51.929 130.97 53.1082 134.418 53.2021C137.866 53.2959 141.255 52.2997 144.104 50.355L144.704 51.234Z" stroke="white" stroke-opacity="0.16" stroke-width="1.87013" mask="url(#path-13-inside-3_1117_3407)"/>
<mask id="path-14-inside-4_1117_3407" fill="white">
<path d="M149.344 27.0721C151.8 30.7219 152.788 35.1648 152.109 39.5115C151.43 43.8583 149.135 47.7883 145.682 50.5152L145.023 49.6801C148.265 47.1194 150.42 43.429 151.058 39.3473C151.695 35.2655 150.768 31.0936 148.461 27.6663L149.344 27.0721Z"/>
</mask>
<path d="M149.344 27.0721C151.8 30.7219 152.788 35.1648 152.109 39.5115C151.43 43.8583 149.135 47.7883 145.682 50.5152L145.023 49.6801C148.265 47.1194 150.42 43.429 151.058 39.3473C151.695 35.2655 150.768 31.0936 148.461 27.6663L149.344 27.0721Z" stroke="white" stroke-opacity="0.16" stroke-width="1.87013" mask="url(#path-14-inside-4_1117_3407)"/>
<path d="M130.536 43.3992C130.403 43.5083 130.26 43.5143 130.109 43.4174C129.957 43.3204 129.912 43.1871 129.973 43.0174L131.336 38.5628L127.791 36.0174C127.645 35.9204 127.6 35.7871 127.654 35.6174C127.709 35.4477 127.821 35.3628 127.991 35.3628H132.391L133.791 30.7083C133.815 30.6113 133.86 30.5446 133.927 30.5083C133.994 30.4719 134.063 30.4537 134.136 30.4537C134.209 30.4537 134.279 30.4719 134.345 30.5083C134.412 30.5446 134.457 30.6113 134.482 30.7083L135.882 35.3628H140.282C140.451 35.3628 140.563 35.4477 140.618 35.6174C140.673 35.7871 140.627 35.9204 140.482 36.0174L136.936 38.5628L138.3 43.0174C138.36 43.1871 138.315 43.3204 138.163 43.4174C138.012 43.5143 137.87 43.5083 137.736 43.3992L134.136 40.6719L130.536 43.3992ZM132.391 40.1992L134.136 38.8537L135.882 40.1992L135.227 37.981L136.863 36.8174H134.827L134.136 34.5628L133.445 36.8174H131.409L133.045 37.981L132.391 40.1992ZM140.754 43.3992L139.682 42.581L138.609 39.1446L140.863 37.5446H142.227C142.397 37.5446 142.512 37.6295 142.573 37.7992C142.633 37.9689 142.591 38.1022 142.445 38.1992L140.318 39.7265L141.336 42.9992C141.397 43.1689 141.348 43.3052 141.191 43.4083C141.033 43.5113 140.888 43.5083 140.754 43.3992ZM136.973 33.9083L136.427 32.0537L136.827 30.7083C136.851 30.6113 136.897 30.5416 136.963 30.4992C137.03 30.4568 137.1 30.4355 137.173 30.4355C137.245 30.4355 137.315 30.4598 137.382 30.5083C137.448 30.5568 137.494 30.6234 137.518 30.7083L138.5 33.9083H136.973Z" fill="#FCFCFC"/>
<rect x="27.2273" y="70.2725" width="75.6363" height="29.0909" rx="14.5455" fill="#7C7878" fill-opacity="0.24"/>
<rect x="27.4273" y="70.4725" width="75.2363" height="28.6909" rx="14.3455" stroke="white" stroke-opacity="0.16" stroke-width="0.4"/>
<path d="M41.2426 86.0303C41.2426 84.8889 41.5809 83.7929 42.2577 82.7424C42.9345 81.6919 43.8638 80.7727 45.0456 79.9849C45.2678 79.8333 45.4976 79.8258 45.735 79.9621C45.9724 80.0985 46.091 80.303 46.091 80.5758V81.3636C46.091 81.7071 46.2097 81.995 46.4471 82.2273C46.6845 82.4596 46.9749 82.5758 47.3183 82.5758C47.49 82.5758 47.6542 82.5379 47.8107 82.4621C47.9673 82.3864 48.1062 82.2778 48.2274 82.1364C48.3082 82.0354 48.4117 81.9722 48.538 81.947C48.6643 81.9217 48.783 81.9495 48.8941 82.0303C49.5304 82.4849 50.0304 83.0657 50.3941 83.7727C50.7577 84.4798 50.9395 85.2323 50.9395 86.0303C50.9395 86.9192 50.7223 87.7298 50.288 88.4621C49.8537 89.1944 49.283 89.7727 48.5759 90.197C48.7476 89.9545 48.8814 89.6894 48.9774 89.4015C49.0734 89.1136 49.1213 88.8081 49.1213 88.4848C49.1213 88.0808 49.0456 87.6995 48.8941 87.3409C48.7426 86.9823 48.5254 86.6616 48.2426 86.3788L46.091 84.2727L43.9547 86.3788C43.6617 86.6717 43.4395 86.995 43.288 87.3485C43.1365 87.702 43.0607 88.0808 43.0607 88.4848C43.0607 88.8081 43.1087 89.1136 43.2047 89.4015C43.3006 89.6894 43.4345 89.9545 43.6062 90.197C42.8991 89.7727 42.3284 89.1944 41.8941 88.4621C41.4597 87.7298 41.2426 86.9192 41.2426 86.0303ZM46.091 85.9697L47.3789 87.2273C47.5506 87.399 47.6819 87.5909 47.7729 87.803C47.8638 88.0152 47.9092 88.2424 47.9092 88.4848C47.9092 88.9798 47.7325 89.4015 47.3789 89.75C47.0254 90.0985 46.5961 90.2727 46.091 90.2727C45.586 90.2727 45.1567 90.0985 44.8032 89.75C44.4496 89.4015 44.2729 88.9798 44.2729 88.4848C44.2729 88.2525 44.3183 88.0278 44.4092 87.8106C44.5001 87.5934 44.6314 87.399 44.8032 87.2273L46.091 85.9697Z" fill="#FCFCFC"/>
<path d="M58.9863 86.8184H58.0045V83.3165H56.3747V82.4329H60.6161V83.3165H58.9863V86.8184ZM62.0809 86.8184H61.0991V82.4329H63.5209C64.6009 82.4329 65.2162 82.9107 65.2162 83.7485C65.2162 84.462 64.8038 84.8875 63.9791 84.966V85.0184C64.3718 85.1231 64.5223 85.3325 64.686 85.6402L65.3209 86.8184H64.182L63.5798 85.6795C63.4031 85.3391 63.2394 85.2278 62.7289 85.2278H62.0809V86.8184ZM62.0809 83.3165V84.4882H63.5143C63.9791 84.4882 64.1885 84.3573 64.1885 83.8991C64.1885 83.4671 63.9791 83.3165 63.5143 83.3165H62.0809ZM69.4732 86.8184H65.7619V82.4329H69.4732V83.3165H66.7438V84.174H69.375V85.0511H66.7438V85.9347H69.4732V86.8184ZM71.0295 86.8184H70.0477V82.4329H71.0949L72.6659 84.5078L73.268 85.4307H73.34L73.2942 84.5471V82.4329H74.276V86.8184H73.2288L71.612 84.7238L71.0557 83.8991H70.9902L71.0295 84.7042V86.8184ZM77.0944 86.8184H74.9802V82.4329H77.0944C78.5017 82.4329 79.3919 83.2511 79.3919 84.6256C79.3919 86.0002 78.5017 86.8184 77.0944 86.8184ZM77.0944 83.3165H75.962V85.9347H77.0944C77.9846 85.9347 78.3446 85.6795 78.3446 84.6256C78.3446 83.5718 77.9846 83.3165 77.0944 83.3165ZM80.9305 86.8184H79.9487V82.4329H80.9305V86.8184ZM82.5572 86.8184H81.5753V82.4329H82.6226L84.1935 84.5078L84.7957 85.4307H84.8677L84.8219 84.5471V82.4329H85.8037V86.8184H84.7564L83.1397 84.7238L82.5833 83.8991H82.5179L82.5572 84.7042V86.8184ZM88.5239 86.8838C87.1821 86.8838 86.3574 85.9936 86.3574 84.6256C86.3574 83.2576 87.2868 82.3675 88.7923 82.3675C90.1668 82.3675 91.0374 83.0089 91.0374 84.0627V84.1151H89.9443V84.0627C89.9443 83.5522 89.6104 83.31 88.7661 83.31C87.7712 83.31 87.3981 83.6504 87.3981 84.6256C87.3981 85.6009 87.7581 85.9413 88.7203 85.9413C89.7283 85.9413 90.0359 85.7842 90.0621 85.2278H88.5763V84.5013H91.0439V86.8184H90.1341V85.8758H90.0817C89.9312 86.4518 89.473 86.8838 88.5239 86.8838Z" fill="#FCFCFC"/>
<rect x="108.682" y="70.2734" width="40.4848" height="29.0909" rx="14.5455" fill="#7C7878" fill-opacity="0.08"/>
<path d="M124.076 87.8487V89.0608H133.773V87.8487H124.076ZM124.076 90.273C123.742 90.273 123.457 90.1543 123.22 89.9169C122.982 89.6795 122.864 89.3942 122.864 89.0608V82.3942C122.864 82.0608 122.982 81.7755 123.22 81.5381C123.457 81.3007 123.742 81.1821 124.076 81.1821H125.409C125.359 81.0911 125.326 80.9952 125.311 80.8942C125.295 80.7932 125.288 80.6871 125.288 80.576C125.288 80.0709 125.465 79.6417 125.818 79.2881C126.172 78.9346 126.601 78.7578 127.106 78.7578C127.409 78.7578 127.689 78.8361 127.947 78.9927C128.205 79.1492 128.429 79.3437 128.621 79.576L128.924 79.9699L129.227 79.576C129.409 79.3336 129.631 79.1366 129.894 78.9851C130.157 78.8336 130.439 78.7578 130.742 78.7578C131.247 78.7578 131.677 78.9346 132.03 79.2881C132.384 79.6417 132.561 80.0709 132.561 80.576C132.561 80.6871 132.553 80.7932 132.538 80.8942C132.523 80.9952 132.49 81.0911 132.439 81.1821H133.773C134.106 81.1821 134.391 81.3007 134.629 81.5381C134.866 81.7755 134.985 82.0608 134.985 82.3942V89.0608C134.985 89.3942 134.866 89.6795 134.629 89.9169C134.391 90.1543 134.106 90.273 133.773 90.273H124.076ZM124.076 86.0305H133.773V82.3942H130.682L131.606 83.6518C131.697 83.773 131.725 83.9119 131.689 84.0684C131.654 84.225 131.581 84.3588 131.47 84.4699C131.338 84.5709 131.192 84.6063 131.03 84.576C130.869 84.5457 130.737 84.4649 130.636 84.3336L128.924 82.0305L127.212 84.3487C127.101 84.4901 126.962 84.5735 126.795 84.5987C126.629 84.624 126.49 84.581 126.379 84.4699C126.237 84.3689 126.154 84.2376 126.129 84.076C126.104 83.9144 126.141 83.7679 126.242 83.6366L127.136 82.3942H124.076V86.0305ZM127.106 81.1821C127.278 81.1821 127.422 81.124 127.538 81.0078C127.654 80.8917 127.712 80.7477 127.712 80.576C127.712 80.4043 127.654 80.2603 127.538 80.1442C127.422 80.028 127.278 79.9699 127.106 79.9699C126.934 79.9699 126.79 80.028 126.674 80.1442C126.558 80.2603 126.5 80.4043 126.5 80.576C126.5 80.7477 126.558 80.8917 126.674 81.0078C126.79 81.124 126.934 81.1821 127.106 81.1821ZM130.742 81.1821C130.914 81.1821 131.058 81.124 131.174 81.0078C131.29 80.8917 131.348 80.7477 131.348 80.576C131.348 80.4043 131.29 80.2603 131.174 80.1442C131.058 80.028 130.914 79.9699 130.742 79.9699C130.571 79.9699 130.427 80.028 130.311 80.1442C130.194 80.2603 130.136 80.4043 130.136 80.576C130.136 80.7477 130.194 80.8917 130.311 81.0078C130.427 81.124 130.571 81.1821 130.742 81.1821Z" fill="#FCFCFC"/>
<rect x="154.985" y="70.2734" width="40.4848" height="29.0909" rx="14.5455" fill="#7C7878" fill-opacity="0.08"/>
<g clip-path="url(#clip1_1117_3407)">
<path d="M173.258 91.137C172.793 91.137 172.376 91.0158 172.008 90.7734C171.639 90.531 171.354 90.1976 171.152 89.7734C170.99 89.9855 170.785 90.1497 170.538 90.2658C170.29 90.382 170.035 90.4401 169.773 90.4401C169.258 90.4401 168.826 90.2633 168.477 89.9098C168.129 89.5562 167.955 89.1269 167.955 88.6219C167.955 88.1875 168.096 87.7961 168.379 87.4476C168.662 87.0992 169.02 86.8997 169.455 86.8492C169.313 86.6471 169.205 86.4325 169.129 86.2052C169.053 85.978 169.015 85.7381 169.015 85.4855C169.015 85.0815 169.119 84.7027 169.326 84.3492C169.533 83.9956 169.823 83.7077 170.197 83.4855C170.248 83.6673 170.316 83.8618 170.402 84.0689C170.487 84.2759 170.586 84.4552 170.697 84.6067C170.556 84.7179 170.444 84.8517 170.364 85.0083C170.283 85.1648 170.242 85.329 170.242 85.5007C170.242 86.0663 170.475 86.4148 170.939 86.5461C171.404 86.6774 171.843 86.7835 172.258 86.8643L172.545 87.3492C172.434 87.6724 172.338 87.9476 172.258 88.1749C172.177 88.4022 172.136 88.6067 172.136 88.7886C172.136 89.0916 172.245 89.3567 172.462 89.584C172.679 89.8113 172.944 89.9249 173.258 89.9249C173.581 89.9249 173.856 89.8012 174.083 89.5537C174.311 89.3062 174.503 88.9982 174.659 88.6295C174.816 88.2608 174.944 87.8694 175.045 87.4552C175.147 87.0411 175.227 86.6673 175.288 86.334C175.318 86.1623 175.404 86.0259 175.545 85.9249C175.687 85.8239 175.838 85.7987 176 85.8492C176.172 85.8997 176.301 86.0032 176.386 86.1598C176.472 86.3163 176.495 86.4805 176.455 86.6522C176.364 87.1168 176.248 87.6118 176.106 88.137C175.965 88.6623 175.775 89.1471 175.538 89.5916C175.301 90.036 174.998 90.4047 174.629 90.6976C174.26 90.9906 173.803 91.137 173.258 91.137ZM169.773 89.228C169.944 89.228 170.088 89.1699 170.205 89.0537C170.321 88.9375 170.379 88.7936 170.379 88.6219C170.379 88.4502 170.321 88.3062 170.205 88.1901C170.088 88.0739 169.944 88.0158 169.773 88.0158C169.601 88.0158 169.457 88.0739 169.341 88.1901C169.225 88.3062 169.167 88.4502 169.167 88.6219C169.167 88.7936 169.225 88.9375 169.341 89.0537C169.457 89.1699 169.601 89.228 169.773 89.228ZM174.515 86.3946C174.384 86.5259 174.225 86.584 174.038 86.5689C173.851 86.5537 173.687 86.4805 173.545 86.3492C172.768 85.6421 172.147 85.0007 171.682 84.4249C171.217 83.8492 170.985 83.228 170.985 82.5613C170.985 81.9047 171.21 81.3517 171.659 80.9022C172.109 80.4527 172.662 80.228 173.318 80.228C173.359 80.228 173.394 80.2305 173.424 80.2355C173.455 80.2406 173.49 80.2431 173.53 80.2431C173.49 80.1421 173.46 80.0411 173.439 79.9401C173.419 79.8391 173.409 79.733 173.409 79.6219C173.409 79.1168 173.586 78.6875 173.939 78.334C174.293 77.9805 174.722 77.8037 175.227 77.8037C175.732 77.8037 176.162 77.9805 176.515 78.334C176.869 78.6875 177.045 79.1168 177.045 79.6219C177.045 79.733 177.035 79.8365 177.015 79.9325C176.995 80.0285 176.965 80.1269 176.924 80.228H177.136C177.742 80.228 178.258 80.4224 178.682 80.8113C179.106 81.2002 179.359 81.6825 179.439 82.2583C179.258 82.228 179.053 82.2128 178.826 82.2128C178.599 82.2128 178.389 82.2229 178.197 82.2431C178.126 82.0108 177.998 81.8189 177.811 81.6673C177.624 81.5158 177.399 81.4401 177.136 81.4401C176.783 81.4401 176.508 81.5436 176.311 81.7507C176.114 81.9578 175.843 82.2583 175.5 82.6522H174.939C174.586 82.2381 174.311 81.9325 174.114 81.7355C173.917 81.5386 173.652 81.4401 173.318 81.4401C172.995 81.4401 172.727 81.5461 172.515 81.7583C172.303 81.9704 172.197 82.2381 172.197 82.5613C172.197 82.9855 172.397 83.4274 172.795 83.887C173.194 84.3466 173.732 84.8845 174.409 85.5007C174.551 85.6219 174.634 85.7709 174.659 85.9476C174.684 86.1244 174.636 86.2734 174.515 86.3946ZM175.227 80.228C175.399 80.228 175.543 80.1699 175.659 80.0537C175.775 79.9375 175.833 79.7936 175.833 79.6219C175.833 79.4502 175.775 79.3062 175.659 79.1901C175.543 79.0739 175.399 79.0158 175.227 79.0158C175.056 79.0158 174.912 79.0739 174.795 79.1901C174.679 79.3062 174.621 79.4502 174.621 79.6219C174.621 79.7936 174.679 79.9375 174.795 80.0537C174.912 80.1699 175.056 80.228 175.227 80.228ZM177.182 91.137C176.96 91.137 176.74 91.1067 176.523 91.0461C176.306 90.9855 176.096 90.8896 175.894 90.7583C176.005 90.6168 176.116 90.4502 176.227 90.2583C176.338 90.0663 176.439 89.8896 176.53 89.728C176.641 89.7987 176.753 89.8492 176.864 89.8795C176.975 89.9098 177.086 89.9249 177.197 89.9249C177.52 89.9249 177.79 89.8113 178.008 89.584C178.225 89.3567 178.333 89.0865 178.333 88.7734C178.333 88.5815 178.293 88.3744 178.212 88.1522C178.131 87.93 178.035 87.6572 177.924 87.334L178.212 86.8492C178.636 86.7684 179.078 86.6623 179.538 86.531C179.998 86.3997 180.227 86.0512 180.227 85.4855C180.227 85.0815 180.078 84.7886 179.78 84.6067C179.482 84.4249 179.157 84.334 178.803 84.334C178.45 84.334 178.04 84.3946 177.576 84.5158C177.111 84.637 176.581 84.7936 175.985 84.9855C175.813 85.036 175.647 85.0285 175.485 84.9628C175.323 84.8971 175.217 84.7785 175.167 84.6067C175.116 84.435 175.141 84.2709 175.242 84.1143C175.343 83.9577 175.48 83.8542 175.652 83.8037C176.288 83.6017 176.864 83.4375 177.379 83.3113C177.894 83.185 178.374 83.1219 178.818 83.1219C179.515 83.1219 180.126 83.329 180.652 83.7431C181.177 84.1572 181.439 84.7381 181.439 85.4855C181.439 85.7381 181.402 85.978 181.326 86.2052C181.25 86.4325 181.141 86.6471 181 86.8492C181.434 86.8997 181.793 87.0992 182.076 87.4476C182.359 87.7961 182.5 88.1875 182.5 88.6219C182.5 89.1269 182.326 89.5562 181.977 89.9098C181.629 90.2633 181.197 90.4401 180.682 90.4401C180.419 90.4401 180.164 90.382 179.917 90.2658C179.669 90.1497 179.465 89.9855 179.303 89.7734C179.101 90.1976 178.816 90.531 178.447 90.7734C178.078 91.0158 177.657 91.137 177.182 91.137ZM180.697 89.228C180.869 89.228 181.01 89.1699 181.121 89.0537C181.232 88.9375 181.288 88.7936 181.288 88.6219C181.288 88.4502 181.23 88.3037 181.114 88.1825C180.998 88.0613 180.854 88.0007 180.682 88.0007C180.51 88.0007 180.366 88.0588 180.25 88.1749C180.134 88.2911 180.076 88.435 180.076 88.6067C180.076 88.7785 180.136 88.9249 180.258 89.0461C180.379 89.1673 180.525 89.228 180.697 89.228Z" fill="#FCFCFC"/>
</g>
<rect x="201.288" y="70.2734" width="40.4848" height="29.0909" rx="14.5455" fill="#7C7878" fill-opacity="0.08"/>
<path d="M221.53 84.8182C220.864 84.8182 220.293 84.5808 219.818 84.1061C219.343 83.6313 219.106 83.0606 219.106 82.394C219.106 81.7273 219.343 81.1566 219.818 80.6818C220.293 80.2071 220.864 79.9697 221.53 79.9697C222.197 79.9697 222.768 80.2071 223.242 80.6818C223.717 81.1566 223.955 81.7273 223.955 82.394C223.955 83.0606 223.717 83.6313 223.242 84.1061C222.768 84.5808 222.197 84.8182 221.53 84.8182ZM225.167 89.6667H217.894C217.561 89.6667 217.275 89.548 217.038 89.3106C216.801 89.0733 216.682 88.7879 216.682 88.4546V87.9697C216.682 87.6263 216.77 87.3106 216.947 87.0228C217.124 86.7349 217.359 86.5152 217.652 86.3637C218.278 86.0505 218.914 85.8157 219.561 85.6591C220.207 85.5026 220.864 85.4243 221.53 85.4243C222.197 85.4243 222.854 85.5026 223.5 85.6591C224.147 85.8157 224.783 86.0505 225.409 86.3637C225.702 86.5152 225.937 86.7349 226.114 87.0228C226.29 87.3106 226.379 87.6263 226.379 87.9697V88.4546C226.379 88.7879 226.26 89.0733 226.023 89.3106C225.785 89.548 225.5 89.6667 225.167 89.6667ZM217.894 88.4546H225.167V87.9697C225.167 87.8586 225.139 87.7576 225.083 87.6667C225.028 87.5758 224.955 87.5051 224.864 87.4546C224.318 87.1818 223.768 86.9773 223.212 86.8409C222.657 86.7046 222.096 86.6364 221.53 86.6364C220.965 86.6364 220.404 86.7046 219.849 86.8409C219.293 86.9773 218.742 87.1818 218.197 87.4546C218.106 87.5051 218.033 87.5758 217.977 87.6667C217.922 87.7576 217.894 87.8586 217.894 87.9697V88.4546ZM221.53 83.6061C221.864 83.6061 222.149 83.4874 222.386 83.25C222.624 83.0127 222.742 82.7273 222.742 82.394C222.742 82.0606 222.624 81.7753 222.386 81.5379C222.149 81.3005 221.864 81.1818 221.53 81.1818C221.197 81.1818 220.912 81.3005 220.674 81.5379C220.437 81.7753 220.318 82.0606 220.318 82.394C220.318 82.7273 220.437 83.0127 220.674 83.25C220.912 83.4874 221.197 83.6061 221.53 83.6061Z" fill="#FCFCFC"/>
</g>
<defs>
<filter id="filter0_f_1117_3407" x="-6.66211" y="33.7617" width="110.096" height="99.8467" filterUnits="userSpaceOnUse" color-interpolation-filters="sRGB">
<feFlood flood-opacity="0" result="BackgroundImageFix"/>
<feBlend mode="normal" in="SourceGraphic" in2="BackgroundImageFix" result="shape"/>
<feGaussianBlur stdDeviation="16" result="effect1_foregroundBlur_1117_3407"/>
</filter>
<filter id="filter1_f_1117_3407" x="180.658" y="29.9111" width="93.7992" height="92.6211" filterUnits="userSpaceOnUse" color-interpolation-filters="sRGB">
<feFlood flood-opacity="0" result="BackgroundImageFix"/>
<feBlend mode="normal" in="SourceGraphic" in2="BackgroundImageFix" result="shape"/>
<feGaussianBlur stdDeviation="16" result="effect1_foregroundBlur_1117_3407"/>
</filter>
<filter id="filter2_f_1117_3407" x="91" y="59" width="121" height="80" filterUnits="userSpaceOnUse" color-interpolation-filters="sRGB">
<feFlood flood-opacity="0" result="BackgroundImageFix"/>
<feBlend mode="normal" in="SourceGraphic" in2="BackgroundImageFix" result="shape"/>
<feGaussianBlur stdDeviation="16" result="effect1_foregroundBlur_1117_3407"/>
</filter>
<filter id="filter3_f_1117_3407" x="87" y="0" width="97" height="80" filterUnits="userSpaceOnUse" color-interpolation-filters="sRGB">
<feFlood flood-opacity="0" result="BackgroundImageFix"/>
<feBlend mode="normal" in="SourceGraphic" in2="BackgroundImageFix" result="shape"/>
<feGaussianBlur stdDeviation="16" result="effect1_foregroundBlur_1117_3407"/>
</filter>
<linearGradient id="paint0_linear_1117_3407" x1="156.616" y1="-35.5091" x2="157.343" y2="130.3" gradientUnits="userSpaceOnUse">
<stop stop-color="white"/>
<stop offset="1" stop-color="white" stop-opacity="0"/>
</linearGradient>
<clipPath id="clip0_1117_3407">
<rect width="269" height="126" fill="white"/>
</clipPath>
<clipPath id="clip1_1117_3407">
<rect width="14.5455" height="14.5455" fill="white" transform="translate(167.955 77.5459)"/>
</clipPath>
</defs>
</svg>
