<svg width="9" height="9" viewBox="0 0 9 9" fill="none" xmlns="http://www.w3.org/2000/svg">
<mask id="path-1-inside-1_1177_5377" fill="white">
<path d="M8.01664 3.9838L4.96983 6.35159H6.06065L6.89336 8.9043L4.31206 6.85504L1.74838 8.84483L2.64061 6.07905L3.54825 5.38443H2.45878L0.677734 3.9838H3.32463L4.30599 0.904297L5.07856 3.43475L4.32865 3.9838L4.32477 3.98664"/>
</mask>
<path d="M4.32865 7.9838H6.17264V-0.016202H4.32865V7.9838ZM6.17264 7.9838H8.01664V-0.016202H6.17264V7.9838ZM4.96983 6.35159L0.0608166 0.0348243L-18.3616 14.3516H4.96983V6.35159ZM6.06065 6.35159L13.6662 3.87059L11.8659 -1.64841H6.06065V6.35159ZM6.89336 8.9043L1.9192 15.1699L22.7456 31.7037L14.4989 6.42329L6.89336 8.9043ZM4.31206 6.85504L9.28622 0.589439L4.36787 -3.31516L-0.593038 0.535223L4.31206 6.85504ZM1.74838 8.84483L-5.86526 6.38869L-13.8234 31.0577L6.65347 15.1646L1.74838 8.84483ZM2.64061 6.07905L-2.22134 -0.274018L-4.20582 1.24468L-4.97302 3.62291L2.64061 6.07905ZM3.54825 5.38443L8.4102 11.7375L27.1652 -2.61557H3.54825V5.38443ZM2.45878 5.38443L-2.4865 11.6729L-0.310053 13.3844H2.45878V5.38443ZM0.677734 3.9838V-4.0162H-22.4367L-4.26755 10.2722L0.677734 3.9838ZM3.32463 3.9838V11.9838H9.17161L10.9469 6.41285L3.32463 3.9838ZM4.30599 0.904297L11.9573 -1.43173L4.4696 -25.9568L-3.31633 -1.52476L4.30599 0.904297ZM5.07856 3.43475L9.80448 9.88965L14.3891 6.53307L12.7299 1.09873L5.07856 3.43475ZM4.32865 3.9838L9.05445 10.4388L9.05457 10.4387L4.32865 3.9838ZM3.10762 -2.33297L0.0608166 0.0348243L9.87885 12.6684L12.9257 10.3006L3.10762 -2.33297ZM4.96983 14.3516H6.06065V-1.64841H4.96983V14.3516ZM-1.54492 8.8326L-0.7122 11.3853L14.4989 6.42329L13.6662 3.87059L-1.54492 8.8326ZM11.8675 2.6387L9.28622 0.589439L-0.662105 13.1206L1.9192 15.1699L11.8675 2.6387ZM-0.593038 0.535223L-3.15672 2.52501L6.65347 15.1646L9.21715 13.1748L-0.593038 0.535223ZM9.36201 11.301L10.2542 8.53518L-4.97302 3.62291L-5.86526 6.38869L9.36201 11.301ZM7.50256 12.4321L8.4102 11.7375L-1.3137 -0.96863L-2.22134 -0.274018L7.50256 12.4321ZM3.54825 -2.61557H2.45878V13.3844H3.54825V-2.61557ZM7.40406 -0.903983L5.62302 -2.30462L-4.26755 10.2722L-2.4865 11.6729L7.40406 -0.903983ZM0.677734 11.9838H3.32463V-4.0162H0.677734V11.9838ZM10.9469 6.41285L11.9283 3.33335L-3.31633 -1.52476L-4.29769 1.55475L10.9469 6.41285ZM-3.34535 3.24032L-2.57278 5.77078L12.7299 1.09873L11.9573 -1.43173L-3.34535 3.24032ZM0.352641 -3.02014L-0.39727 -2.4711L9.05457 10.4387L9.80448 9.88965L0.352641 -3.02014ZM-0.397153 -2.47118L-0.401034 -2.46834L9.05057 10.4416L9.05445 10.4388L-0.397153 -2.47118Z" fill="white" fill-opacity="0.24" mask="url(#path-1-inside-1_1177_5377)"/>
</svg>
