<svg width="480" height="156" viewBox="0 0 480 156" fill="none" xmlns="http://www.w3.org/2000/svg">
<g clip-path="url(#clip0_1271_65359)">
<path d="M-114.551 84.6208C-116.507 84.6208 -117.606 83.8498 -117.606 82.3463V82.2884H-116.16V82.4619C-116.16 83.0595 -115.861 83.3004 -114.551 83.3004C-113.394 83.3004 -113.124 83.1269 -113.124 82.6932C-113.124 82.2981 -113.346 82.1535 -114.011 82.0378L-115.823 81.7776C-116.979 81.5945 -117.664 81.0162 -117.664 79.9657C-117.664 78.9923 -116.873 77.9707 -114.705 77.9707C-112.719 77.9707 -111.794 78.8862 -111.794 80.2452V80.303H-113.249V80.1681C-113.249 79.5513 -113.567 79.291 -114.849 79.291C-115.89 79.291 -116.208 79.4934 -116.208 79.9079C-116.208 80.2837 -115.996 80.4187 -115.456 80.5151L-113.645 80.8042C-112.199 81.0355 -111.678 81.7391 -111.678 82.6258C-111.678 83.6763 -112.498 84.6208 -114.551 84.6208ZM-109.451 84.5244H-110.897V78.067H-109.451V80.6307H-106.078V78.067H-104.632V84.5244H-106.078V81.9318H-109.451V84.5244ZM-100.339 84.6208C-102.479 84.6208 -103.809 83.31 -103.809 81.2957C-103.809 79.2814 -102.479 77.9707 -100.339 77.9707C-98.1511 77.9707 -96.8308 79.2814 -96.8308 81.2957C-96.8308 83.31 -98.1511 84.6208 -100.339 84.6208ZM-100.339 83.2329C-98.9222 83.2329 -98.3728 82.7318 -98.3728 81.2957C-98.3728 79.8597 -98.9222 79.3585 -100.339 79.3585C-101.756 79.3585 -102.276 79.8597 -102.276 81.2957C-102.276 82.7318 -101.756 83.2329 -100.339 83.2329ZM-92.615 84.5244H-94.7643L-96.287 78.067H-94.6679L-93.8872 81.7294L-93.6655 83.1462H-93.5595L-93.2607 81.7294L-92.1813 78.067H-90.032L-88.9622 81.7294L-88.6635 83.1462H-88.5575L-88.3358 81.7294L-87.5551 78.067H-85.9745L-87.5069 84.5244H-89.6562L-90.62 81.2957L-91.0729 79.4356H-91.179L-91.6319 81.2957L-92.615 84.5244ZM-79.7767 84.5244H-81.232V82.3848L-84.0944 78.067H-82.3114L-81.0778 79.9561L-80.5381 80.8235H-80.432L-79.8923 79.9561L-78.6587 78.067H-76.866L-79.7767 82.3944V84.5244ZM-73.0731 84.6208C-75.2127 84.6208 -76.5428 83.31 -76.5428 81.2957C-76.5428 79.2814 -75.2127 77.9707 -73.0731 77.9707C-70.8853 77.9707 -69.5649 79.2814 -69.5649 81.2957C-69.5649 83.31 -70.8853 84.6208 -73.0731 84.6208ZM-73.0731 83.2329C-71.6564 83.2329 -71.107 82.7318 -71.107 81.2957C-71.107 79.8597 -71.6564 79.3585 -73.0731 79.3585C-74.4899 79.3585 -75.0104 79.8597 -75.0104 81.2957C-75.0104 82.7318 -74.4899 83.2329 -73.0731 83.2329ZM-65.6191 84.6208C-67.7201 84.6208 -68.7899 83.5606 -68.7899 81.8258V78.067H-67.3442V81.7198C-67.3442 82.8185 -66.9298 83.2137 -65.6191 83.2137C-64.2987 83.2137 -63.8939 82.8185 -63.8939 81.7198V78.067H-62.4482V81.8258C-62.4482 83.5606 -63.5084 84.6208 -65.6191 84.6208ZM-60.0819 84.5244H-61.5276V78.067H-57.9616C-56.3714 78.067 -55.4654 78.7706 -55.4654 80.0042C-55.4654 81.0548 -56.0726 81.6812 -57.287 81.7969V81.874C-56.7087 82.0282 -56.487 82.3366 -56.2461 82.7896L-55.3112 84.5244H-56.9882L-57.8749 82.8474C-58.1351 82.3463 -58.376 82.1824 -59.1278 82.1824H-60.0819V84.5244ZM-60.0819 79.3681V81.0933H-57.9712C-57.287 81.0933 -56.9785 80.9006 -56.9785 80.2259C-56.9785 79.5898 -57.287 79.3681 -57.9712 79.3681H-60.0819ZM-50.052 84.6208C-52.0085 84.6208 -53.1072 83.8498 -53.1072 82.3463V82.2884H-51.6615V82.4619C-51.6615 83.0595 -51.3627 83.3004 -50.052 83.3004C-48.8954 83.3004 -48.6256 83.1269 -48.6256 82.6932C-48.6256 82.2981 -48.8472 82.1535 -49.5123 82.0378L-51.3242 81.7776C-52.4807 81.5945 -53.165 81.0162 -53.165 79.9657C-53.165 78.9923 -52.3747 77.9707 -50.2062 77.9707C-48.2208 77.9707 -47.2955 78.8862 -47.2955 80.2452V80.303H-48.7509V80.1681C-48.7509 79.5513 -49.0689 79.291 -50.3508 79.291C-51.3916 79.291 -51.7097 79.4934 -51.7097 79.9079C-51.7097 80.2837 -51.4977 80.4187 -50.9579 80.5151L-49.146 80.8042C-47.7003 81.0355 -47.1799 81.7391 -47.1799 82.6258C-47.1799 83.6763 -47.9991 84.6208 -50.052 84.6208ZM-40.9337 84.5244H-46.3984V78.067H-40.9337V79.3681H-44.9527V80.6307H-41.0783V81.9222H-44.9527V83.2233H-40.9337V84.5244ZM-34.7966 84.5244H-40.0878V78.067H-38.6422V83.2233H-34.7966V84.5244ZM-32.5763 84.5244H-34.022V78.067H-28.5573V79.3681H-32.5763V80.8235H-28.7019V82.1149H-32.5763V84.5244ZM-22.4743 84.5244H-23.92V79.3681H-26.3198V78.067H-20.0745V79.3681H-22.4743V84.5244ZM-16.0383 84.6208C-18.1779 84.6208 -19.5079 83.31 -19.5079 81.2957C-19.5079 79.2814 -18.1779 77.9707 -16.0383 77.9707C-13.8505 77.9707 -12.5301 79.2814 -12.5301 81.2957C-12.5301 83.31 -13.8505 84.6208 -16.0383 84.6208ZM-16.0383 83.2329C-14.6215 83.2329 -14.0722 82.7318 -14.0722 81.2957C-14.0722 79.8597 -14.6215 79.3585 -16.0383 79.3585C-17.4551 79.3585 -17.9755 79.8597 -17.9755 81.2957C-17.9755 82.7318 -17.4551 83.2329 -16.0383 83.2329ZM-6.43211 84.5244H-7.8778V79.3681H-10.2776V78.067H-4.03228V79.3681H-6.43211V84.5244ZM-1.8755 84.5244H-3.32119V78.067H-1.8755V80.6307H1.49776V78.067H2.94344V84.5244H1.49776V81.9318H-1.8755V84.5244ZM9.37643 84.5244H3.91175V78.067H9.37643V79.3681H5.35743V80.6307H9.23186V81.9222H5.35743V83.2233H9.37643V84.5244ZM15.2947 84.5244H13.1455L11.6227 78.067H13.2418L14.0225 81.7294L14.2442 83.1462H14.3502L14.649 81.7294L15.7284 78.067H17.8777L18.9475 81.7294L19.2462 83.1462H19.3522L19.5739 81.7294L20.3546 78.067H21.9352L20.4028 84.5244H18.2535L17.2897 81.2957L16.8368 79.4356H16.7307L16.2778 81.2957L15.2947 84.5244ZM25.952 84.6208C23.8124 84.6208 22.4824 83.31 22.4824 81.2957C22.4824 79.2814 23.8124 77.9707 25.952 77.9707C28.1398 77.9707 29.4602 79.2814 29.4602 81.2957C29.4602 83.31 28.1398 84.6208 25.952 84.6208ZM25.952 83.2329C27.3688 83.2329 27.9181 82.7318 27.9181 81.2957C27.9181 79.8597 27.3688 79.3585 25.952 79.3585C24.5352 79.3585 24.0148 79.8597 24.0148 81.2957C24.0148 82.7318 24.5352 83.2329 25.952 83.2329ZM31.7291 84.5244H30.2834V78.067H33.8494C35.4397 78.067 36.3457 78.7706 36.3457 80.0042C36.3457 81.0548 35.7385 81.6812 34.5241 81.7969V81.874C35.1024 82.0282 35.324 82.3366 35.565 82.7896L36.4999 84.5244H34.8229L33.9362 82.8474C33.676 82.3463 33.435 82.1824 32.6833 82.1824H31.7291V84.5244ZM31.7291 79.3681V81.0933H33.8398C34.5241 81.0933 34.8325 80.9006 34.8325 80.2259C34.8325 79.5898 34.5241 79.3681 33.8398 79.3681H31.7291ZM42.4405 84.5244H37.1493V78.067H38.595V83.2233H42.4405V84.5244ZM46.4053 84.5244H43.2922V78.067H46.4053C48.4774 78.067 49.7882 79.2718 49.7882 81.2957C49.7882 83.3197 48.4774 84.5244 46.4053 84.5244ZM46.4053 79.3681H44.7379V83.2233H46.4053C47.716 83.2233 48.2461 82.8474 48.2461 81.2957C48.2461 79.744 47.716 79.3681 46.4053 79.3681Z" fill="white"/>
<rect x="-134.465" y="58.9261" width="201.197" height="45.1972" stroke="url(#paint0_linear_1271_65359)" stroke-opacity="0.32" stroke-width="1.07088"/>
<rect x="-134.465" y="58.9261" width="201.197" height="45.1972" stroke="url(#paint1_linear_1271_65359)" stroke-opacity="0.32" stroke-width="1.07088"/>
<path d="M96.2845 84.6208C94.328 84.6208 93.2293 83.8498 93.2293 82.3463V82.2884H94.675V82.4619C94.675 83.0595 94.9738 83.3004 96.2845 83.3004C97.4411 83.3004 97.7109 83.1269 97.7109 82.6932C97.7109 82.2981 97.4892 82.1535 96.8242 82.0378L95.0123 81.7776C93.8558 81.5945 93.1715 81.0162 93.1715 79.9657C93.1715 78.9923 93.9618 77.9707 96.1303 77.9707C98.1157 77.9707 99.0409 78.8862 99.0409 80.2452V80.303H97.5856V80.1681C97.5856 79.5513 97.2676 79.291 95.9857 79.291C94.9448 79.291 94.6268 79.4934 94.6268 79.9079C94.6268 80.2837 94.8388 80.4187 95.3785 80.5151L97.1905 80.8042C98.6361 81.0355 99.1566 81.7391 99.1566 82.6258C99.1566 83.6763 98.3374 84.6208 96.2845 84.6208ZM101.384 84.5244H99.9381V78.067H101.384V80.6307H104.757V78.067H106.203V84.5244H104.757V81.9318H101.384V84.5244ZM110.496 84.6208C108.356 84.6208 107.026 83.31 107.026 81.2957C107.026 79.2814 108.356 77.9707 110.496 77.9707C112.684 77.9707 114.004 79.2814 114.004 81.2957C114.004 83.31 112.684 84.6208 110.496 84.6208ZM110.496 83.2329C111.913 83.2329 112.462 82.7318 112.462 81.2957C112.462 79.8597 111.913 79.3585 110.496 79.3585C109.079 79.3585 108.559 79.8597 108.559 81.2957C108.559 82.7318 109.079 83.2329 110.496 83.2329ZM118.22 84.5244H116.071L114.548 78.067H116.167L116.948 81.7294L117.17 83.1462H117.276L117.574 81.7294L118.654 78.067H120.803L121.873 81.7294L122.172 83.1462H122.278L122.499 81.7294L123.28 78.067H124.861L123.328 84.5244H121.179L120.215 81.2957L119.762 79.4356H119.656L119.203 81.2957L118.22 84.5244ZM131.058 84.5244H129.603V82.3848L126.741 78.067H128.524L129.757 79.9561L130.297 80.8235H130.403L130.943 79.9561L132.176 78.067H133.969L131.058 82.3944V84.5244ZM137.762 84.6208C135.622 84.6208 134.292 83.31 134.292 81.2957C134.292 79.2814 135.622 77.9707 137.762 77.9707C139.95 77.9707 141.27 79.2814 141.27 81.2957C141.27 83.31 139.95 84.6208 137.762 84.6208ZM137.762 83.2329C139.179 83.2329 139.728 82.7318 139.728 81.2957C139.728 79.8597 139.179 79.3585 137.762 79.3585C136.345 79.3585 135.825 79.8597 135.825 81.2957C135.825 82.7318 136.345 83.2329 137.762 83.2329ZM145.216 84.6208C143.115 84.6208 142.045 83.5606 142.045 81.8258V78.067H143.491V81.7198C143.491 82.8185 143.905 83.2137 145.216 83.2137C146.536 83.2137 146.941 82.8185 146.941 81.7198V78.067H148.387V81.8258C148.387 83.5606 147.327 84.6208 145.216 84.6208ZM150.753 84.5244H149.307V78.067H152.873C154.464 78.067 155.37 78.7706 155.37 80.0042C155.37 81.0548 154.762 81.6812 153.548 81.7969V81.874C154.126 82.0282 154.348 82.3366 154.589 82.7896L155.524 84.5244H153.847L152.96 82.8474C152.7 82.3463 152.459 82.1824 151.707 82.1824H150.753V84.5244ZM150.753 79.3681V81.0933H152.864C153.548 81.0933 153.856 80.9006 153.856 80.2259C153.856 79.5898 153.548 79.3681 152.864 79.3681H150.753ZM160.783 84.6208C158.827 84.6208 157.728 83.8498 157.728 82.3463V82.2884H159.174V82.4619C159.174 83.0595 159.472 83.3004 160.783 83.3004C161.94 83.3004 162.209 83.1269 162.209 82.6932C162.209 82.2981 161.988 82.1535 161.323 82.0378L159.511 81.7776C158.354 81.5945 157.67 81.0162 157.67 79.9657C157.67 78.9923 158.46 77.9707 160.629 77.9707C162.614 77.9707 163.539 78.8862 163.539 80.2452V80.303H162.084V80.1681C162.084 79.5513 161.766 79.291 160.484 79.291C159.443 79.291 159.125 79.4934 159.125 79.9079C159.125 80.2837 159.337 80.4187 159.877 80.5151L161.689 80.8042C163.135 81.0355 163.655 81.7391 163.655 82.6258C163.655 83.6763 162.836 84.6208 160.783 84.6208ZM169.901 84.5244H164.437V78.067H169.901V79.3681H165.882V80.6307H169.757V81.9222H165.882V83.2233H169.901V84.5244ZM176.038 84.5244H170.747V78.067H172.193V83.2233H176.038V84.5244ZM178.259 84.5244H176.813V78.067H182.278V79.3681H178.259V80.8235H182.133V82.1149H178.259V84.5244ZM188.361 84.5244H186.915V79.3681H184.515V78.067H190.761V79.3681H188.361V84.5244ZM194.797 84.6208C192.657 84.6208 191.327 83.31 191.327 81.2957C191.327 79.2814 192.657 77.9707 194.797 77.9707C196.985 77.9707 198.305 79.2814 198.305 81.2957C198.305 83.31 196.985 84.6208 194.797 84.6208ZM194.797 83.2329C196.214 83.2329 196.763 82.7318 196.763 81.2957C196.763 79.8597 196.214 79.3585 194.797 79.3585C193.38 79.3585 192.86 79.8597 192.86 81.2957C192.86 82.7318 193.38 83.2329 194.797 83.2329ZM204.403 84.5244H202.957V79.3681H200.557V78.067H206.803V79.3681H204.403V84.5244ZM208.96 84.5244H207.514V78.067H208.96V80.6307H212.333V78.067H213.778V84.5244H212.333V81.9318H208.96V84.5244ZM220.211 84.5244H214.747V78.067H220.211V79.3681H216.192V80.6307H220.067V81.9222H216.192V83.2233H220.211V84.5244ZM226.13 84.5244H223.98L222.458 78.067H224.077L224.858 81.7294L225.079 83.1462H225.185L225.484 81.7294L226.563 78.067H228.713L229.782 81.7294L230.081 83.1462H230.187L230.409 81.7294L231.19 78.067H232.77L231.238 84.5244H229.089L228.125 81.2957L227.672 79.4356H227.566L227.113 81.2957L226.13 84.5244ZM236.787 84.6208C234.647 84.6208 233.317 83.31 233.317 81.2957C233.317 79.2814 234.647 77.9707 236.787 77.9707C238.975 77.9707 240.295 79.2814 240.295 81.2957C240.295 83.31 238.975 84.6208 236.787 84.6208ZM236.787 83.2329C238.204 83.2329 238.753 82.7318 238.753 81.2957C238.753 79.8597 238.204 79.3585 236.787 79.3585C235.37 79.3585 234.85 79.8597 234.85 81.2957C234.85 82.7318 235.37 83.2329 236.787 83.2329ZM242.564 84.5244H241.118V78.067H244.684C246.275 78.067 247.181 78.7706 247.181 80.0042C247.181 81.0548 246.574 81.6812 245.359 81.7969V81.874C245.937 82.0282 246.159 82.3366 246.4 82.7896L247.335 84.5244H245.658L244.771 82.8474C244.511 82.3463 244.27 82.1824 243.518 82.1824H242.564V84.5244ZM242.564 79.3681V81.0933H244.675C245.359 81.0933 245.668 80.9006 245.668 80.2259C245.668 79.5898 245.359 79.3681 244.675 79.3681H242.564ZM253.276 84.5244H247.984V78.067H249.43V83.2233H253.276V84.5244ZM257.24 84.5244H254.127V78.067H257.24C259.312 78.067 260.623 79.2718 260.623 81.2957C260.623 83.3197 259.312 84.5244 257.24 84.5244ZM257.24 79.3681H255.573V83.2233H257.24C258.551 83.2233 259.081 82.8474 259.081 81.2957C259.081 79.744 258.551 79.3681 257.24 79.3681Z" fill="white"/>
<rect x="76.3705" y="58.9261" width="201.197" height="45.1972" stroke="url(#paint2_linear_1271_65359)" stroke-opacity="0.32" stroke-width="1.07088"/>
<rect x="76.3705" y="58.9261" width="201.197" height="45.1972" stroke="url(#paint3_linear_1271_65359)" stroke-opacity="0.32" stroke-width="1.07088"/>
<path d="M307.12 84.6208C305.163 84.6208 304.064 83.8498 304.064 82.3463V82.2884H305.51V82.4619C305.51 83.0595 305.809 83.3004 307.12 83.3004C308.276 83.3004 308.546 83.1269 308.546 82.6932C308.546 82.2981 308.324 82.1535 307.659 82.0378L305.847 81.7776C304.691 81.5945 304.007 81.0162 304.007 79.9657C304.007 78.9923 304.797 77.9707 306.965 77.9707C308.951 77.9707 309.876 78.8862 309.876 80.2452V80.303H308.421V80.1681C308.421 79.5513 308.103 79.291 306.821 79.291C305.78 79.291 305.462 79.4934 305.462 79.9079C305.462 80.2837 305.674 80.4187 306.214 80.5151L308.026 80.8042C309.471 81.0355 309.992 81.7391 309.992 82.6258C309.992 83.6763 309.172 84.6208 307.12 84.6208ZM312.219 84.5244H310.773V78.067H312.219V80.6307H315.592V78.067H317.038V84.5244H315.592V81.9318H312.219V84.5244ZM321.331 84.6208C319.192 84.6208 317.862 83.31 317.862 81.2957C317.862 79.2814 319.192 77.9707 321.331 77.9707C323.519 77.9707 324.839 79.2814 324.839 81.2957C324.839 83.31 323.519 84.6208 321.331 84.6208ZM321.331 83.2329C322.748 83.2329 323.297 82.7318 323.297 81.2957C323.297 79.8597 322.748 79.3585 321.331 79.3585C319.914 79.3585 319.394 79.8597 319.394 81.2957C319.394 82.7318 319.914 83.2329 321.331 83.2329ZM329.055 84.5244H326.906L325.383 78.067H327.002L327.783 81.7294L328.005 83.1462H328.111L328.409 81.7294L329.489 78.067H331.638L332.708 81.7294L333.007 83.1462H333.113L333.334 81.7294L334.115 78.067H335.696L334.163 84.5244H332.014L331.05 81.2957L330.597 79.4356H330.491L330.038 81.2957L329.055 84.5244ZM341.893 84.5244H340.438V82.3848L337.576 78.067H339.359L340.592 79.9561L341.132 80.8235H341.238L341.778 79.9561L343.011 78.067H344.804L341.893 82.3944V84.5244ZM348.597 84.6208C346.457 84.6208 345.127 83.31 345.127 81.2957C345.127 79.2814 346.457 77.9707 348.597 77.9707C350.785 77.9707 352.105 79.2814 352.105 81.2957C352.105 83.31 350.785 84.6208 348.597 84.6208ZM348.597 83.2329C350.014 83.2329 350.563 82.7318 350.563 81.2957C350.563 79.8597 350.014 79.3585 348.597 79.3585C347.18 79.3585 346.66 79.8597 346.66 81.2957C346.66 82.7318 347.18 83.2329 348.597 83.2329ZM356.051 84.6208C353.95 84.6208 352.88 83.5606 352.88 81.8258V78.067H354.326V81.7198C354.326 82.8185 354.74 83.2137 356.051 83.2137C357.371 83.2137 357.776 82.8185 357.776 81.7198V78.067H359.222V81.8258C359.222 83.5606 358.162 84.6208 356.051 84.6208ZM361.588 84.5244H360.142V78.067H363.708C365.299 78.067 366.205 78.7706 366.205 80.0042C366.205 81.0548 365.598 81.6812 364.383 81.7969V81.874C364.961 82.0282 365.183 82.3366 365.424 82.7896L366.359 84.5244H364.682L363.795 82.8474C363.535 82.3463 363.294 82.1824 362.542 82.1824H361.588V84.5244ZM361.588 79.3681V81.0933H363.699C364.383 81.0933 364.692 80.9006 364.692 80.2259C364.692 79.5898 364.383 79.3681 363.699 79.3681H361.588ZM371.618 84.6208C369.662 84.6208 368.563 83.8498 368.563 82.3463V82.2884H370.009V82.4619C370.009 83.0595 370.307 83.3004 371.618 83.3004C372.775 83.3004 373.045 83.1269 373.045 82.6932C373.045 82.2981 372.823 82.1535 372.158 82.0378L370.346 81.7776C369.189 81.5945 368.505 81.0162 368.505 79.9657C368.505 78.9923 369.295 77.9707 371.464 77.9707C373.449 77.9707 374.375 78.8862 374.375 80.2452V80.303H372.919V80.1681C372.919 79.5513 372.601 79.291 371.319 79.291C370.278 79.291 369.96 79.4934 369.96 79.9079C369.96 80.2837 370.172 80.4187 370.712 80.5151L372.524 80.8042C373.97 81.0355 374.49 81.7391 374.49 82.6258C374.49 83.6763 373.671 84.6208 371.618 84.6208ZM380.736 84.5244H375.272V78.067H380.736V79.3681H376.717V80.6307H380.592V81.9222H376.717V83.2233H380.736V84.5244ZM386.873 84.5244H381.582V78.067H383.028V83.2233H386.873V84.5244ZM389.094 84.5244H387.648V78.067H393.113V79.3681H389.094V80.8235H392.968V82.1149H389.094V84.5244ZM399.196 84.5244H397.75V79.3681H395.35V78.067H401.596V79.3681H399.196V84.5244ZM405.632 84.6208C403.492 84.6208 402.162 83.31 402.162 81.2957C402.162 79.2814 403.492 77.9707 405.632 77.9707C407.82 77.9707 409.14 79.2814 409.14 81.2957C409.14 83.31 407.82 84.6208 405.632 84.6208ZM405.632 83.2329C407.049 83.2329 407.598 82.7318 407.598 81.2957C407.598 79.8597 407.049 79.3585 405.632 79.3585C404.215 79.3585 403.695 79.8597 403.695 81.2957C403.695 82.7318 404.215 83.2329 405.632 83.2329ZM415.238 84.5244H413.792V79.3681H411.392V78.067H417.638V79.3681H415.238V84.5244ZM419.795 84.5244H418.349V78.067H419.795V80.6307H423.168V78.067H424.614V84.5244H423.168V81.9318H419.795V84.5244ZM431.047 84.5244H425.582V78.067H431.047V79.3681H427.028V80.6307H430.902V81.9222H427.028V83.2233H431.047V84.5244ZM436.965 84.5244H434.816L433.293 78.067H434.912L435.693 81.7294L435.914 83.1462H436.02L436.319 81.7294L437.398 78.067H439.548L440.618 81.7294L440.916 83.1462H441.022L441.244 81.7294L442.025 78.067H443.605L442.073 84.5244H439.924L438.96 81.2957L438.507 79.4356H438.401L437.948 81.2957L436.965 84.5244ZM447.622 84.6208C445.482 84.6208 444.152 83.31 444.152 81.2957C444.152 79.2814 445.482 77.9707 447.622 77.9707C449.81 77.9707 451.13 79.2814 451.13 81.2957C451.13 83.31 449.81 84.6208 447.622 84.6208ZM447.622 83.2329C449.039 83.2329 449.588 82.7318 449.588 81.2957C449.588 79.8597 449.039 79.3585 447.622 79.3585C446.205 79.3585 445.685 79.8597 445.685 81.2957C445.685 82.7318 446.205 83.2329 447.622 83.2329ZM453.399 84.5244H451.954V78.067H455.52C457.11 78.067 458.016 78.7706 458.016 80.0042C458.016 81.0548 457.409 81.6812 456.194 81.7969V81.874C456.772 82.0282 456.994 82.3366 457.235 82.7896L458.17 84.5244H456.493L455.606 82.8474C455.346 82.3463 455.105 82.1824 454.353 82.1824H453.399V84.5244ZM453.399 79.3681V81.0933H455.51C456.194 81.0933 456.503 80.9006 456.503 80.2259C456.503 79.5898 456.194 79.3681 455.51 79.3681H453.399ZM464.111 84.5244H458.819V78.067H460.265V83.2233H464.111V84.5244ZM468.075 84.5244H464.962V78.067H468.075C470.148 78.067 471.458 79.2718 471.458 81.2957C471.458 83.3197 470.148 84.5244 468.075 84.5244ZM468.075 79.3681H466.408V83.2233H468.075C469.386 83.2233 469.916 82.8474 469.916 81.2957C469.916 79.744 469.386 79.3681 468.075 79.3681Z" fill="white"/>
<rect x="287.206" y="58.9261" width="201.197" height="45.1972" stroke="url(#paint4_linear_1271_65359)" stroke-opacity="0.32" stroke-width="1.07088"/>
<rect x="287.206" y="58.9261" width="201.197" height="45.1972" stroke="url(#paint5_linear_1271_65359)" stroke-opacity="0.32" stroke-width="1.07088"/>
<path d="M-88.8494 139.236C-90.8059 139.236 -91.9046 138.465 -91.9046 136.961V136.904H-90.4589V137.077C-90.4589 137.675 -90.1602 137.916 -88.8494 137.916C-87.6929 137.916 -87.423 137.742 -87.423 137.308C-87.423 136.913 -87.6447 136.769 -88.3097 136.653L-90.1216 136.393C-91.2782 136.21 -91.9625 135.631 -91.9625 134.581C-91.9625 133.608 -91.1722 132.586 -89.0036 132.586C-87.0182 132.586 -86.093 133.501 -86.093 134.86V134.918H-87.5483V134.783C-87.5483 134.166 -87.8664 133.906 -89.1482 133.906C-90.1891 133.906 -90.5071 134.109 -90.5071 134.523C-90.5071 134.899 -90.2951 135.034 -89.7554 135.13L-87.9435 135.419C-86.4978 135.651 -85.9773 136.354 -85.9773 137.241C-85.9773 138.292 -86.7966 139.236 -88.8494 139.236ZM-83.7502 139.14H-85.1958V132.682H-83.7502V135.246H-80.3769V132.682H-78.9312V139.14H-80.3769V136.547H-83.7502V139.14ZM-74.6378 139.236C-76.7774 139.236 -78.1075 137.925 -78.1075 135.911C-78.1075 133.897 -76.7774 132.586 -74.6378 132.586C-72.45 132.586 -71.1296 133.897 -71.1296 135.911C-71.1296 137.925 -72.45 139.236 -74.6378 139.236ZM-74.6378 137.848C-73.2211 137.848 -72.6717 137.347 -72.6717 135.911C-72.6717 134.475 -73.2211 133.974 -74.6378 133.974C-76.0546 133.974 -76.575 134.475 -76.575 135.911C-76.575 137.347 -76.0546 137.848 -74.6378 137.848ZM-66.9139 139.14H-69.0631L-70.5859 132.682H-68.9668L-68.1861 136.345L-67.9644 137.761H-67.8584L-67.5596 136.345L-66.4802 132.682H-64.3309L-63.2611 136.345L-62.9624 137.761H-62.8563L-62.6347 136.345L-61.854 132.682H-60.2734L-61.8058 139.14H-63.9551L-64.9188 135.911L-65.3718 134.051H-65.4778L-65.9308 135.911L-66.9139 139.14ZM-54.0756 139.14H-55.5309V137L-58.3933 132.682H-56.6103L-55.3767 134.571L-54.8369 135.439H-54.7309L-54.1912 134.571L-52.9576 132.682H-51.1649L-54.0756 137.01V139.14ZM-47.372 139.236C-49.5116 139.236 -50.8417 137.925 -50.8417 135.911C-50.8417 133.897 -49.5116 132.586 -47.372 132.586C-45.1842 132.586 -43.8638 133.897 -43.8638 135.911C-43.8638 137.925 -45.1842 139.236 -47.372 139.236ZM-47.372 137.848C-45.9553 137.848 -45.4059 137.347 -45.4059 135.911C-45.4059 134.475 -45.9553 133.974 -47.372 133.974C-48.7888 133.974 -49.3092 134.475 -49.3092 135.911C-49.3092 137.347 -48.7888 137.848 -47.372 137.848ZM-39.9179 139.236C-42.019 139.236 -43.0888 138.176 -43.0888 136.441V132.682H-41.6431V136.335C-41.6431 137.434 -41.2287 137.829 -39.9179 137.829C-38.5976 137.829 -38.1928 137.434 -38.1928 136.335V132.682H-36.7471V136.441C-36.7471 138.176 -37.8072 139.236 -39.9179 139.236ZM-34.3808 139.14H-35.8265V132.682H-32.2605C-30.6702 132.682 -29.7643 133.386 -29.7643 134.619C-29.7643 135.67 -30.3715 136.296 -31.5858 136.412V136.489C-31.0076 136.643 -30.7859 136.952 -30.545 137.405L-29.6101 139.14H-31.2871L-32.1738 137.463C-32.434 136.961 -32.6749 136.798 -33.4267 136.798H-34.3808V139.14ZM-34.3808 133.983V135.709H-32.2701C-31.5858 135.709 -31.2774 135.516 -31.2774 134.841C-31.2774 134.205 -31.5858 133.983 -32.2701 133.983H-34.3808ZM-24.3509 139.236C-26.3074 139.236 -27.4061 138.465 -27.4061 136.961V136.904H-25.9604V137.077C-25.9604 137.675 -25.6616 137.916 -24.3509 137.916C-23.1943 137.916 -22.9245 137.742 -22.9245 137.308C-22.9245 136.913 -23.1461 136.769 -23.8112 136.653L-25.6231 136.393C-26.7796 136.21 -27.4639 135.631 -27.4639 134.581C-27.4639 133.608 -26.6736 132.586 -24.5051 132.586C-22.5197 132.586 -21.5944 133.501 -21.5944 134.86V134.918H-23.0498V134.783C-23.0498 134.166 -23.3678 133.906 -24.6496 133.906C-25.6905 133.906 -26.0086 134.109 -26.0086 134.523C-26.0086 134.899 -25.7966 135.034 -25.2568 135.13L-23.4449 135.419C-21.9992 135.651 -21.4788 136.354 -21.4788 137.241C-21.4788 138.292 -22.298 139.236 -24.3509 139.236ZM-15.2326 139.14H-20.6973V132.682H-15.2326V133.983H-19.2516V135.246H-15.3772V136.537H-19.2516V137.839H-15.2326V139.14ZM-9.09553 139.14H-14.3867V132.682H-12.941V137.839H-9.09553V139.14ZM-6.8752 139.14H-8.32088V132.682H-2.8562V133.983H-6.8752V135.439H-3.00077V136.73H-6.8752V139.14ZM3.22681 139.14H1.78113V133.983H-0.618709V132.682H5.62664V133.983H3.22681V139.14ZM9.66281 139.236C7.5232 139.236 6.19317 137.925 6.19317 135.911C6.19317 133.897 7.5232 132.586 9.66281 132.586C11.8506 132.586 13.171 133.897 13.171 135.911C13.171 137.925 11.8506 139.236 9.66281 139.236ZM9.66281 137.848C11.0796 137.848 11.6289 137.347 11.6289 135.911C11.6289 134.475 11.0796 133.974 9.66281 133.974C8.24604 133.974 7.7256 134.475 7.7256 135.911C7.7256 137.347 8.24604 137.848 9.66281 137.848ZM19.269 139.14H17.8233V133.983H15.4235V132.682H21.6688V133.983H19.269V139.14ZM23.8256 139.14H22.3799V132.682H23.8256V135.246H27.1989V132.682H28.6446V139.14H27.1989V136.547H23.8256V139.14ZM35.0775 139.14H29.6129V132.682H35.0775V133.983H31.0585V135.246H34.933V136.537H31.0585V137.839H35.0775V139.14ZM40.9958 139.14H38.8466L37.3238 132.682H38.9429L39.7236 136.345L39.9453 137.761H40.0513L40.3501 136.345L41.4295 132.682H43.5788L44.6486 136.345L44.9473 137.761H45.0534L45.275 136.345L46.0557 132.682H47.6363L46.1039 139.14H43.9546L42.9909 135.911L42.5379 134.051H42.4319L41.9789 135.911L40.9958 139.14ZM51.6531 139.236C49.5135 139.236 48.1835 137.925 48.1835 135.911C48.1835 133.897 49.5135 132.586 51.6531 132.586C53.8409 132.586 55.1613 133.897 55.1613 135.911C55.1613 137.925 53.8409 139.236 51.6531 139.236ZM51.6531 137.848C53.0699 137.848 53.6193 137.347 53.6193 135.911C53.6193 134.475 53.0699 133.974 51.6531 133.974C50.2364 133.974 49.7159 134.475 49.7159 135.911C49.7159 137.347 50.2364 137.848 51.6531 137.848ZM57.4302 139.14H55.9845V132.682H59.5505C61.1408 132.682 62.0468 133.386 62.0468 134.619C62.0468 135.67 61.4396 136.296 60.2252 136.412V136.489C60.8035 136.643 61.0251 136.952 61.2661 137.405L62.201 139.14H60.524L59.6373 137.463C59.3771 136.961 59.1361 136.798 58.3844 136.798H57.4302V139.14ZM57.4302 133.983V135.709H59.5409C60.2252 135.709 60.5336 135.516 60.5336 134.841C60.5336 134.205 60.2252 133.983 59.5409 133.983H57.4302ZM68.1416 139.14H62.8504V132.682H64.2961V137.839H68.1416V139.14ZM72.1064 139.14H68.9933V132.682H72.1064C74.1785 132.682 75.4893 133.887 75.4893 135.911C75.4893 137.935 74.1785 139.14 72.1064 139.14ZM72.1064 133.983H70.439V137.839H72.1064C73.4171 137.839 73.9472 137.463 73.9472 135.911C73.9472 134.359 73.4171 133.983 72.1064 133.983Z" fill="white"/>
<rect x="-108.764" y="113.541" width="201.197" height="45.1972" stroke="url(#paint6_linear_1271_65359)" stroke-opacity="0.32" stroke-width="1.07088"/>
<rect x="-108.764" y="113.541" width="201.197" height="45.1972" stroke="url(#paint7_linear_1271_65359)" stroke-opacity="0.32" stroke-width="1.07088"/>
<path d="M121.986 139.236C120.029 139.236 118.93 138.465 118.93 136.961V136.904H120.376V137.077C120.376 137.675 120.675 137.916 121.986 137.916C123.142 137.916 123.412 137.742 123.412 137.308C123.412 136.913 123.19 136.769 122.525 136.653L120.713 136.393C119.557 136.21 118.873 135.631 118.873 134.581C118.873 133.608 119.663 132.586 121.831 132.586C123.817 132.586 124.742 133.501 124.742 134.86V134.918H123.287V134.783C123.287 134.166 122.969 133.906 121.687 133.906C120.646 133.906 120.328 134.109 120.328 134.523C120.328 134.899 120.54 135.034 121.08 135.13L122.892 135.419C124.337 135.651 124.858 136.354 124.858 137.241C124.858 138.292 124.038 139.236 121.986 139.236ZM127.085 139.14H125.639V132.682H127.085V135.246H130.458V132.682H131.904V139.14H130.458V136.547H127.085V139.14ZM136.197 139.236C134.058 139.236 132.728 137.925 132.728 135.911C132.728 133.897 134.058 132.586 136.197 132.586C138.385 132.586 139.705 133.897 139.705 135.911C139.705 137.925 138.385 139.236 136.197 139.236ZM136.197 137.848C137.614 137.848 138.163 137.347 138.163 135.911C138.163 134.475 137.614 133.974 136.197 133.974C134.78 133.974 134.26 134.475 134.26 135.911C134.26 137.347 134.78 137.848 136.197 137.848ZM143.921 139.14H141.772L140.249 132.682H141.868L142.649 136.345L142.871 137.761H142.977L143.275 136.345L144.355 132.682H146.504L147.574 136.345L147.873 137.761H147.979L148.2 136.345L148.981 132.682H150.562L149.029 139.14H146.88L145.916 135.911L145.463 134.051H145.357L144.904 135.911L143.921 139.14ZM156.759 139.14H155.304V137L152.442 132.682H154.225L155.458 134.571L155.998 135.439H156.104L156.644 134.571L157.877 132.682H159.67L156.759 137.01V139.14ZM163.463 139.236C161.323 139.236 159.993 137.925 159.993 135.911C159.993 133.897 161.323 132.586 163.463 132.586C165.651 132.586 166.971 133.897 166.971 135.911C166.971 137.925 165.651 139.236 163.463 139.236ZM163.463 137.848C164.88 137.848 165.429 137.347 165.429 135.911C165.429 134.475 164.88 133.974 163.463 133.974C162.046 133.974 161.526 134.475 161.526 135.911C161.526 137.347 162.046 137.848 163.463 137.848ZM170.917 139.236C168.816 139.236 167.746 138.176 167.746 136.441V132.682H169.192V136.335C169.192 137.434 169.606 137.829 170.917 137.829C172.237 137.829 172.642 137.434 172.642 136.335V132.682H174.088V136.441C174.088 138.176 173.028 139.236 170.917 139.236ZM176.454 139.14H175.009V132.682H178.575C180.165 132.682 181.071 133.386 181.071 134.619C181.071 135.67 180.464 136.296 179.249 136.412V136.489C179.827 136.643 180.049 136.952 180.29 137.405L181.225 139.14H179.548L178.661 137.463C178.401 136.961 178.16 136.798 177.408 136.798H176.454V139.14ZM176.454 133.983V135.709H178.565C179.249 135.709 179.558 135.516 179.558 134.841C179.558 134.205 179.249 133.983 178.565 133.983H176.454ZM186.484 139.236C184.528 139.236 183.429 138.465 183.429 136.961V136.904H184.875V137.077C184.875 137.675 185.173 137.916 186.484 137.916C187.641 137.916 187.911 137.742 187.911 137.308C187.911 136.913 187.689 136.769 187.024 136.653L185.212 136.393C184.055 136.21 183.371 135.631 183.371 134.581C183.371 133.608 184.161 132.586 186.33 132.586C188.315 132.586 189.241 133.501 189.241 134.86V134.918H187.785V134.783C187.785 134.166 187.467 133.906 186.185 133.906C185.144 133.906 184.826 134.109 184.826 134.523C184.826 134.899 185.038 135.034 185.578 135.13L187.39 135.419C188.836 135.651 189.356 136.354 189.356 137.241C189.356 138.292 188.537 139.236 186.484 139.236ZM195.602 139.14H190.138V132.682H195.602V133.983H191.583V135.246H195.458V136.537H191.583V137.839H195.602V139.14ZM201.74 139.14H196.448V132.682H197.894V137.839H201.74V139.14ZM203.96 139.14H202.514V132.682H207.979V133.983H203.96V135.439H207.834V136.73H203.96V139.14ZM214.062 139.14H212.616V133.983H210.216V132.682H216.462V133.983H214.062V139.14ZM220.498 139.236C218.358 139.236 217.028 137.925 217.028 135.911C217.028 133.897 218.358 132.586 220.498 132.586C222.686 132.586 224.006 133.897 224.006 135.911C224.006 137.925 222.686 139.236 220.498 139.236ZM220.498 137.848C221.915 137.848 222.464 137.347 222.464 135.911C222.464 134.475 221.915 133.974 220.498 133.974C219.081 133.974 218.561 134.475 218.561 135.911C218.561 137.347 219.081 137.848 220.498 137.848ZM230.104 139.14H228.658V133.983H226.259V132.682H232.504V133.983H230.104V139.14ZM234.661 139.14H233.215V132.682H234.661V135.246H238.034V132.682H239.48V139.14H238.034V136.547H234.661V139.14ZM245.913 139.14H240.448V132.682H245.913V133.983H241.894V135.246H245.768V136.537H241.894V137.839H245.913V139.14ZM251.831 139.14H249.682L248.159 132.682H249.778L250.559 136.345L250.78 137.761H250.886L251.185 136.345L252.265 132.682H254.414L255.484 136.345L255.782 137.761H255.888L256.11 136.345L256.891 132.682H258.471L256.939 139.14H254.79L253.826 135.911L253.373 134.051H253.267L252.814 135.911L251.831 139.14ZM262.488 139.236C260.349 139.236 259.019 137.925 259.019 135.911C259.019 133.897 260.349 132.586 262.488 132.586C264.676 132.586 265.996 133.897 265.996 135.911C265.996 137.925 264.676 139.236 262.488 139.236ZM262.488 137.848C263.905 137.848 264.454 137.347 264.454 135.911C264.454 134.475 263.905 133.974 262.488 133.974C261.071 133.974 260.551 134.475 260.551 135.911C260.551 137.347 261.071 137.848 262.488 137.848ZM268.265 139.14H266.82V132.682H270.386C271.976 132.682 272.882 133.386 272.882 134.619C272.882 135.67 272.275 136.296 271.06 136.412V136.489C271.639 136.643 271.86 136.952 272.101 137.405L273.036 139.14H271.359L270.472 137.463C270.212 136.961 269.971 136.798 269.219 136.798H268.265V139.14ZM268.265 133.983V135.709H270.376C271.06 135.709 271.369 135.516 271.369 134.841C271.369 134.205 271.06 133.983 270.376 133.983H268.265ZM278.977 139.14H273.685V132.682H275.131V137.839H278.977V139.14ZM282.941 139.14H279.828V132.682H282.941C285.014 132.682 286.324 133.887 286.324 135.911C286.324 137.935 285.014 139.14 282.941 139.14ZM282.941 133.983H281.274V137.839H282.941C284.252 137.839 284.782 137.463 284.782 135.911C284.782 134.359 284.252 133.983 282.941 133.983Z" fill="white"/>
<rect x="102.072" y="113.541" width="201.197" height="45.1972" stroke="url(#paint8_linear_1271_65359)" stroke-opacity="0.32" stroke-width="1.07088"/>
<rect x="102.072" y="113.541" width="201.197" height="45.1972" stroke="url(#paint9_linear_1271_65359)" stroke-opacity="0.32" stroke-width="1.07088"/>
<path d="M332.821 139.236C330.864 139.236 329.765 138.465 329.765 136.961V136.904H331.211V137.077C331.211 137.675 331.51 137.916 332.821 137.916C333.977 137.916 334.247 137.742 334.247 137.308C334.247 136.913 334.025 136.769 333.36 136.653L331.548 136.393C330.392 136.21 329.708 135.631 329.708 134.581C329.708 133.608 330.498 132.586 332.666 132.586C334.652 132.586 335.577 133.501 335.577 134.86V134.918H334.122V134.783C334.122 134.166 333.804 133.906 332.522 133.906C331.481 133.906 331.163 134.109 331.163 134.523C331.163 134.899 331.375 135.034 331.915 135.13L333.727 135.419C335.172 135.651 335.693 136.354 335.693 137.241C335.693 138.292 334.874 139.236 332.821 139.236ZM337.92 139.14H336.474V132.682H337.92V135.246H341.293V132.682H342.739V139.14H341.293V136.547H337.92V139.14ZM347.032 139.236C344.893 139.236 343.563 137.925 343.563 135.911C343.563 133.897 344.893 132.586 347.032 132.586C349.22 132.586 350.54 133.897 350.54 135.911C350.54 137.925 349.22 139.236 347.032 139.236ZM347.032 137.848C348.449 137.848 348.998 137.347 348.998 135.911C348.998 134.475 348.449 133.974 347.032 133.974C345.615 133.974 345.095 134.475 345.095 135.911C345.095 137.347 345.615 137.848 347.032 137.848ZM354.756 139.14H352.607L351.084 132.682H352.703L353.484 136.345L353.706 137.761H353.812L354.11 136.345L355.19 132.682H357.339L358.409 136.345L358.708 137.761H358.814L359.035 136.345L359.816 132.682H361.397L359.864 139.14H357.715L356.751 135.911L356.298 134.051H356.192L355.739 135.911L354.756 139.14ZM367.595 139.14H366.139V137L363.277 132.682H365.06L366.293 134.571L366.833 135.439H366.939L367.479 134.571L368.713 132.682H370.505L367.595 137.01V139.14ZM374.298 139.236C372.158 139.236 370.828 137.925 370.828 135.911C370.828 133.897 372.158 132.586 374.298 132.586C376.486 132.586 377.806 133.897 377.806 135.911C377.806 137.925 376.486 139.236 374.298 139.236ZM374.298 137.848C375.715 137.848 376.264 137.347 376.264 135.911C376.264 134.475 375.715 133.974 374.298 133.974C372.881 133.974 372.361 134.475 372.361 135.911C372.361 137.347 372.881 137.848 374.298 137.848ZM381.752 139.236C379.651 139.236 378.581 138.176 378.581 136.441V132.682H380.027V136.335C380.027 137.434 380.441 137.829 381.752 137.829C383.073 137.829 383.477 137.434 383.477 136.335V132.682H384.923V136.441C384.923 138.176 383.863 139.236 381.752 139.236ZM387.289 139.14H385.844V132.682H389.41C391 132.682 391.906 133.386 391.906 134.619C391.906 135.67 391.299 136.296 390.084 136.412V136.489C390.662 136.643 390.884 136.952 391.125 137.405L392.06 139.14H390.383L389.496 137.463C389.236 136.961 388.995 136.798 388.243 136.798H387.289V139.14ZM387.289 133.983V135.709H389.4C390.084 135.709 390.393 135.516 390.393 134.841C390.393 134.205 390.084 133.983 389.4 133.983H387.289ZM397.319 139.236C395.363 139.236 394.264 138.465 394.264 136.961V136.904H395.71V137.077C395.71 137.675 396.008 137.916 397.319 137.916C398.476 137.916 398.746 137.742 398.746 137.308C398.746 136.913 398.524 136.769 397.859 136.653L396.047 136.393C394.89 136.21 394.206 135.631 394.206 134.581C394.206 133.608 394.996 132.586 397.165 132.586C399.15 132.586 400.076 133.501 400.076 134.86V134.918H398.62V134.783C398.62 134.166 398.302 133.906 397.02 133.906C395.98 133.906 395.661 134.109 395.661 134.523C395.661 134.899 395.874 135.034 396.413 135.13L398.225 135.419C399.671 135.651 400.191 136.354 400.191 137.241C400.191 138.292 399.372 139.236 397.319 139.236ZM406.437 139.14H400.973V132.682H406.437V133.983H402.418V135.246H406.293V136.537H402.418V137.839H406.437V139.14ZM412.575 139.14H407.283V132.682H408.729V137.839H412.575V139.14ZM414.795 139.14H413.349V132.682H418.814V133.983H414.795V135.439H418.669V136.73H414.795V139.14ZM424.897 139.14H423.451V133.983H421.051V132.682H427.297V133.983H424.897V139.14ZM431.333 139.236C429.193 139.236 427.863 137.925 427.863 135.911C427.863 133.897 429.193 132.586 431.333 132.586C433.521 132.586 434.841 133.897 434.841 135.911C434.841 137.925 433.521 139.236 431.333 139.236ZM431.333 137.848C432.75 137.848 433.299 137.347 433.299 135.911C433.299 134.475 432.75 133.974 431.333 133.974C429.916 133.974 429.396 134.475 429.396 135.911C429.396 137.347 429.916 137.848 431.333 137.848ZM440.939 139.14H439.493V133.983H437.094V132.682H443.339V133.983H440.939V139.14ZM445.496 139.14H444.05V132.682H445.496V135.246H448.869V132.682H450.315V139.14H448.869V136.547H445.496V139.14ZM456.748 139.14H451.283V132.682H456.748V133.983H452.729V135.246H456.603V136.537H452.729V137.839H456.748V139.14ZM462.666 139.14H460.517L458.994 132.682H460.613L461.394 136.345L461.615 137.761H461.721L462.02 136.345L463.1 132.682H465.249L466.319 136.345L466.617 137.761H466.723L466.945 136.345L467.726 132.682H469.306L467.774 139.14H465.625L464.661 135.911L464.208 134.051H464.102L463.649 135.911L462.666 139.14ZM473.323 139.236C471.184 139.236 469.854 137.925 469.854 135.911C469.854 133.897 471.184 132.586 473.323 132.586C475.511 132.586 476.831 133.897 476.831 135.911C476.831 137.925 475.511 139.236 473.323 139.236ZM473.323 137.848C474.74 137.848 475.289 137.347 475.289 135.911C475.289 134.475 474.74 133.974 473.323 133.974C471.906 133.974 471.386 134.475 471.386 135.911C471.386 137.347 471.906 137.848 473.323 137.848ZM479.1 139.14H477.655V132.682H481.221C482.811 132.682 483.717 133.386 483.717 134.619C483.717 135.67 483.11 136.296 481.895 136.412V136.489C482.474 136.643 482.695 136.952 482.936 137.405L483.871 139.14H482.194L481.307 137.463C481.047 136.961 480.806 136.798 480.054 136.798H479.1V139.14ZM479.1 133.983V135.709H481.211C481.895 135.709 482.204 135.516 482.204 134.841C482.204 134.205 481.895 133.983 481.211 133.983H479.1ZM489.812 139.14H484.52V132.682H485.966V137.839H489.812V139.14ZM493.776 139.14H490.663V132.682H493.776C495.849 132.682 497.159 133.887 497.159 135.911C497.159 137.935 495.849 139.14 493.776 139.14ZM493.776 133.983H492.109V137.839H493.776C495.087 137.839 495.617 137.463 495.617 135.911C495.617 134.359 495.087 133.983 493.776 133.983Z" fill="white"/>
<rect x="312.907" y="113.541" width="201.197" height="45.1972" stroke="url(#paint10_linear_1271_65359)" stroke-opacity="0.32" stroke-width="1.07088"/>
<rect x="312.907" y="113.541" width="201.197" height="45.1972" stroke="url(#paint11_linear_1271_65359)" stroke-opacity="0.32" stroke-width="1.07088"/>
<path d="M-37.4475 26.7936C-39.404 26.7936 -40.5027 26.0226 -40.5027 24.5191V24.4613H-39.057V24.6348C-39.057 25.2323 -38.7583 25.4733 -37.4475 25.4733C-36.291 25.4733 -36.0211 25.2998 -36.0211 24.8661C-36.0211 24.4709 -36.2428 24.3263 -36.9078 24.2107L-38.7197 23.9505C-39.8763 23.7673 -40.5605 23.1891 -40.5605 22.1385C-40.5605 21.1651 -39.7702 20.1435 -37.6017 20.1435C-35.6163 20.1435 -34.6911 21.0591 -34.6911 22.418V22.4759H-36.1464V22.3409C-36.1464 21.7241 -36.4644 21.4639 -37.7463 21.4639C-38.7872 21.4639 -39.1052 21.6663 -39.1052 22.0807C-39.1052 22.4566 -38.8932 22.5915 -38.3535 22.6879L-36.5415 22.977C-35.0959 23.2084 -34.5754 23.9119 -34.5754 24.7986C-34.5754 25.8491 -35.3946 26.7936 -37.4475 26.7936ZM-32.3482 26.6973H-33.7939V20.2399H-32.3482V22.8036H-28.975V20.2399H-27.5293V26.6973H-28.975V24.1047H-32.3482V26.6973ZM-23.2359 26.7936C-25.3755 26.7936 -26.7056 25.4829 -26.7056 23.4686C-26.7056 21.4543 -25.3755 20.1435 -23.2359 20.1435C-21.0481 20.1435 -19.7277 21.4543 -19.7277 23.4686C-19.7277 25.4829 -21.0481 26.7936 -23.2359 26.7936ZM-23.2359 25.4058C-21.8191 25.4058 -21.2698 24.9046 -21.2698 23.4686C-21.2698 22.0325 -21.8191 21.5314 -23.2359 21.5314C-24.6527 21.5314 -25.1731 22.0325 -25.1731 23.4686C-25.1731 24.9046 -24.6527 25.4058 -23.2359 25.4058ZM-15.512 26.6973H-17.6612L-19.184 20.2399H-17.5648L-16.7842 23.9023L-16.5625 25.319H-16.4565L-16.1577 23.9023L-15.0783 20.2399H-12.929L-11.8592 23.9023L-11.5604 25.319H-11.4544L-11.2328 23.9023L-10.4521 20.2399H-8.87147L-10.4039 26.6973H-12.5531L-13.5169 23.4686L-13.9699 21.6085H-14.0759L-14.5289 23.4686L-15.512 26.6973ZM-2.67363 26.6973H-4.12896V24.5577L-6.99141 20.2399H-5.2084L-3.97475 22.1289L-3.43503 22.9963H-3.32901L-2.78929 22.1289L-1.55564 20.2399H0.237007L-2.67363 24.5673V26.6973ZM4.02989 26.7936C1.89028 26.7936 0.560253 25.4829 0.560253 23.4686C0.560253 21.4543 1.89028 20.1435 4.02989 20.1435C6.21769 20.1435 7.53808 21.4543 7.53808 23.4686C7.53808 25.4829 6.21769 26.7936 4.02989 26.7936ZM4.02989 25.4058C5.44666 25.4058 5.99602 24.9046 5.99602 23.4686C5.99602 22.0325 5.44666 21.5314 4.02989 21.5314C2.61312 21.5314 2.09268 22.0325 2.09268 23.4686C2.09268 24.9046 2.61312 25.4058 4.02989 25.4058ZM11.484 26.7936C9.38291 26.7936 8.31311 25.7335 8.31311 23.9987V20.2399H9.75879V23.8926C9.75879 24.9914 10.1732 25.3865 11.484 25.3865C12.8044 25.3865 13.2092 24.9914 13.2092 23.8926V20.2399H14.6548V23.9987C14.6548 25.7335 13.5947 26.7936 11.484 26.7936ZM17.0211 26.6973H15.5754V20.2399H19.1414C20.7317 20.2399 21.6376 20.9434 21.6376 22.1771C21.6376 23.2276 21.0304 23.8541 19.8161 23.9697V24.0468C20.3943 24.2011 20.616 24.5095 20.857 24.9624L21.7918 26.6973H20.1148L19.2282 25.0203C18.9679 24.5191 18.727 24.3553 17.9752 24.3553H17.0211V26.6973ZM17.0211 21.541V23.2662H19.1318C19.8161 23.2662 20.1245 23.0734 20.1245 22.3988C20.1245 21.7627 19.8161 21.541 19.1318 21.541H17.0211ZM27.051 26.7936C25.0946 26.7936 23.9958 26.0226 23.9958 24.5191V24.4613H25.4415V24.6348C25.4415 25.2323 25.7403 25.4733 27.051 25.4733C28.2076 25.4733 28.4775 25.2998 28.4775 24.8661C28.4775 24.4709 28.2558 24.3263 27.5908 24.2107L25.7788 23.9505C24.6223 23.7673 23.938 23.1891 23.938 22.1385C23.938 21.1651 24.7283 20.1435 26.8968 20.1435C28.8822 20.1435 29.8075 21.0591 29.8075 22.418V22.4759H28.3522V22.3409C28.3522 21.7241 28.0341 21.4639 26.7523 21.4639C25.7114 21.4639 25.3933 21.6663 25.3933 22.0807C25.3933 22.4566 25.6054 22.5915 26.1451 22.6879L27.957 22.977C29.4027 23.2084 29.9231 23.9119 29.9231 24.7986C29.9231 25.8491 29.1039 26.7936 27.051 26.7936ZM36.1693 26.6973H30.7046V20.2399H36.1693V21.541H32.1503V22.8036H36.0247V24.095H32.1503V25.3962H36.1693V26.6973ZM42.3064 26.6973H37.0152V20.2399H38.4609V25.3962H42.3064V26.6973ZM44.5267 26.6973H43.081V20.2399H48.5457V21.541H44.5267V22.9963H48.4011V24.2878H44.5267V26.6973ZM54.6287 26.6973H53.183V21.541H50.7832V20.2399H57.0286V21.541H54.6287V26.6973ZM61.0647 26.7936C58.9251 26.7936 57.5951 25.4829 57.5951 23.4686C57.5951 21.4543 58.9251 20.1435 61.0647 20.1435C63.2525 20.1435 64.5729 21.4543 64.5729 23.4686C64.5729 25.4829 63.2525 26.7936 61.0647 26.7936ZM61.0647 25.4058C62.4815 25.4058 63.0309 24.9046 63.0309 23.4686C63.0309 22.0325 62.4815 21.5314 61.0647 21.5314C59.648 21.5314 59.1275 22.0325 59.1275 23.4686C59.1275 24.9046 59.648 25.4058 61.0647 25.4058ZM70.6709 26.6973H69.2252V21.541H66.8254V20.2399H73.0707V21.541H70.6709V26.6973ZM75.2275 26.6973H73.7818V20.2399H75.2275V22.8036H78.6008V20.2399H80.0465V26.6973H78.6008V24.1047H75.2275V26.6973ZM86.4795 26.6973H81.0148V20.2399H86.4795V21.541H82.4605V22.8036H86.3349V24.095H82.4605V25.3962H86.4795V26.6973ZM92.3977 26.6973H90.2485L88.7257 20.2399H90.3449L91.1255 23.9023L91.3472 25.319H91.4532L91.752 23.9023L92.8314 20.2399H94.9807L96.0505 23.9023L96.3493 25.319H96.4553L96.6769 23.9023L97.4576 20.2399H99.0382L97.5058 26.6973H95.3566L94.3928 23.4686L93.9398 21.6085H93.8338L93.3808 23.4686L92.3977 26.6973ZM103.055 26.7936C100.915 26.7936 99.5854 25.4829 99.5854 23.4686C99.5854 21.4543 100.915 20.1435 103.055 20.1435C105.243 20.1435 106.563 21.4543 106.563 23.4686C106.563 25.4829 105.243 26.7936 103.055 26.7936ZM103.055 25.4058C104.472 25.4058 105.021 24.9046 105.021 23.4686C105.021 22.0325 104.472 21.5314 103.055 21.5314C101.638 21.5314 101.118 22.0325 101.118 23.4686C101.118 24.9046 101.638 25.4058 103.055 25.4058ZM108.832 26.6973H107.386V20.2399H110.952C112.543 20.2399 113.449 20.9434 113.449 22.1771C113.449 23.2276 112.841 23.8541 111.627 23.9697V24.0468C112.205 24.2011 112.427 24.5095 112.668 24.9624L113.603 26.6973H111.926L111.039 25.0203C110.779 24.5191 110.538 24.3553 109.786 24.3553H108.832V26.6973ZM108.832 21.541V23.2662H110.943C111.627 23.2662 111.936 23.0734 111.936 22.3988C111.936 21.7627 111.627 21.541 110.943 21.541H108.832ZM119.544 26.6973H114.252V20.2399H115.698V25.3962H119.544V26.6973ZM123.508 26.6973H120.395V20.2399H123.508C125.58 20.2399 126.891 21.4446 126.891 23.4686C126.891 25.4925 125.58 26.6973 123.508 26.6973ZM123.508 21.541H121.841V25.3962H123.508C124.819 25.3962 125.349 25.0203 125.349 23.4686C125.349 21.9169 124.819 21.541 123.508 21.541Z" fill="white"/>
<rect x="-57.3615" y="1.09891" width="201.197" height="45.1972" stroke="url(#paint12_linear_1271_65359)" stroke-opacity="0.32" stroke-width="1.07088"/>
<rect x="-57.3615" y="1.09891" width="201.197" height="45.1972" stroke="url(#paint13_linear_1271_65359)" stroke-opacity="0.32" stroke-width="1.07088"/>
<path d="M173.388 26.7936C171.431 26.7936 170.332 26.0226 170.332 24.5191V24.4613H171.778V24.6348C171.778 25.2323 172.077 25.4733 173.388 25.4733C174.544 25.4733 174.814 25.2998 174.814 24.8661C174.814 24.4709 174.592 24.3263 173.927 24.2107L172.115 23.9505C170.959 23.7673 170.274 23.1891 170.274 22.1385C170.274 21.1651 171.065 20.1435 173.233 20.1435C175.219 20.1435 176.144 21.0591 176.144 22.418V22.4759H174.689V22.3409C174.689 21.7241 174.371 21.4639 173.089 21.4639C172.048 21.4639 171.73 21.6663 171.73 22.0807C171.73 22.4566 171.942 22.5915 172.482 22.6879L174.293 22.977C175.739 23.2084 176.26 23.9119 176.26 24.7986C176.26 25.8491 175.44 26.7936 173.388 26.7936ZM178.487 26.6973H177.041V20.2399H178.487V22.8036H181.86V20.2399H183.306V26.6973H181.86V24.1047H178.487V26.6973ZM187.599 26.7936C185.46 26.7936 184.129 25.4829 184.129 23.4686C184.129 21.4543 185.46 20.1435 187.599 20.1435C189.787 20.1435 191.107 21.4543 191.107 23.4686C191.107 25.4829 189.787 26.7936 187.599 26.7936ZM187.599 25.4058C189.016 25.4058 189.565 24.9046 189.565 23.4686C189.565 22.0325 189.016 21.5314 187.599 21.5314C186.182 21.5314 185.662 22.0325 185.662 23.4686C185.662 24.9046 186.182 25.4058 187.599 25.4058ZM195.323 26.6973H193.174L191.651 20.2399H193.27L194.051 23.9023L194.273 25.319H194.379L194.677 23.9023L195.757 20.2399H197.906L198.976 23.9023L199.275 25.319H199.381L199.602 23.9023L200.383 20.2399H201.964L200.431 26.6973H198.282L197.318 23.4686L196.865 21.6085H196.759L196.306 23.4686L195.323 26.6973ZM208.161 26.6973H206.706V24.5577L203.844 20.2399H205.627L206.86 22.1289L207.4 22.9963H207.506L208.046 22.1289L209.279 20.2399H211.072L208.161 24.5673V26.6973ZM214.865 26.7936C212.725 26.7936 211.395 25.4829 211.395 23.4686C211.395 21.4543 212.725 20.1435 214.865 20.1435C217.053 20.1435 218.373 21.4543 218.373 23.4686C218.373 25.4829 217.053 26.7936 214.865 26.7936ZM214.865 25.4058C216.282 25.4058 216.831 24.9046 216.831 23.4686C216.831 22.0325 216.282 21.5314 214.865 21.5314C213.448 21.5314 212.928 22.0325 212.928 23.4686C212.928 24.9046 213.448 25.4058 214.865 25.4058ZM222.319 26.7936C220.218 26.7936 219.148 25.7335 219.148 23.9987V20.2399H220.594V23.8926C220.594 24.9914 221.008 25.3865 222.319 25.3865C223.639 25.3865 224.044 24.9914 224.044 23.8926V20.2399H225.49V23.9987C225.49 25.7335 224.43 26.7936 222.319 26.7936ZM227.856 26.6973H226.41V20.2399H229.976C231.567 20.2399 232.473 20.9434 232.473 22.1771C232.473 23.2276 231.865 23.8541 230.651 23.9697V24.0468C231.229 24.2011 231.451 24.5095 231.692 24.9624L232.627 26.6973H230.95L230.063 25.0203C229.803 24.5191 229.562 24.3553 228.81 24.3553H227.856V26.6973ZM227.856 21.541V23.2662H229.967C230.651 23.2662 230.96 23.0734 230.96 22.3988C230.96 21.7627 230.651 21.541 229.967 21.541H227.856ZM237.886 26.7936C235.93 26.7936 234.831 26.0226 234.831 24.5191V24.4613H236.277V24.6348C236.277 25.2323 236.575 25.4733 237.886 25.4733C239.043 25.4733 239.312 25.2998 239.312 24.8661C239.312 24.4709 239.091 24.3263 238.426 24.2107L236.614 23.9505C235.457 23.7673 234.773 23.1891 234.773 22.1385C234.773 21.1651 235.563 20.1435 237.732 20.1435C239.717 20.1435 240.643 21.0591 240.643 22.418V22.4759H239.187V22.3409C239.187 21.7241 238.869 21.4639 237.587 21.4639C236.546 21.4639 236.228 21.6663 236.228 22.0807C236.228 22.4566 236.44 22.5915 236.98 22.6879L238.792 22.977C240.238 23.2084 240.758 23.9119 240.758 24.7986C240.758 25.8491 239.939 26.7936 237.886 26.7936ZM247.004 26.6973H241.54V20.2399H247.004V21.541H242.985V22.8036H246.86V24.095H242.985V25.3962H247.004V26.6973ZM253.141 26.6973H247.85V20.2399H249.296V25.3962H253.141V26.6973ZM255.362 26.6973H253.916V20.2399H259.381V21.541H255.362V22.9963H259.236V24.2878H255.362V26.6973ZM265.464 26.6973H264.018V21.541H261.618V20.2399H267.864V21.541H265.464V26.6973ZM271.9 26.7936C269.76 26.7936 268.43 25.4829 268.43 23.4686C268.43 21.4543 269.76 20.1435 271.9 20.1435C274.088 20.1435 275.408 21.4543 275.408 23.4686C275.408 25.4829 274.088 26.7936 271.9 26.7936ZM271.9 25.4058C273.317 25.4058 273.866 24.9046 273.866 23.4686C273.866 22.0325 273.317 21.5314 271.9 21.5314C270.483 21.5314 269.963 22.0325 269.963 23.4686C269.963 24.9046 270.483 25.4058 271.9 25.4058ZM281.506 26.6973H280.06V21.541H277.66V20.2399H283.906V21.541H281.506V26.6973ZM286.063 26.6973H284.617V20.2399H286.063V22.8036H289.436V20.2399H290.882V26.6973H289.436V24.1047H286.063V26.6973ZM297.314 26.6973H291.85V20.2399H297.314V21.541H293.295V22.8036H297.17V24.095H293.295V25.3962H297.314V26.6973ZM303.233 26.6973H301.084L299.561 20.2399H301.18L301.961 23.9023L302.182 25.319H302.288L302.587 23.9023L303.666 20.2399H305.816L306.886 23.9023L307.184 25.319H307.29L307.512 23.9023L308.293 20.2399H309.873L308.341 26.6973H306.192L305.228 23.4686L304.775 21.6085H304.669L304.216 23.4686L303.233 26.6973ZM313.89 26.7936C311.75 26.7936 310.42 25.4829 310.42 23.4686C310.42 21.4543 311.75 20.1435 313.89 20.1435C316.078 20.1435 317.398 21.4543 317.398 23.4686C317.398 25.4829 316.078 26.7936 313.89 26.7936ZM313.89 25.4058C315.307 25.4058 315.856 24.9046 315.856 23.4686C315.856 22.0325 315.307 21.5314 313.89 21.5314C312.473 21.5314 311.953 22.0325 311.953 23.4686C311.953 24.9046 312.473 25.4058 313.89 25.4058ZM319.667 26.6973H318.221V20.2399H321.788C323.378 20.2399 324.284 20.9434 324.284 22.1771C324.284 23.2276 323.677 23.8541 322.462 23.9697V24.0468C323.04 24.2011 323.262 24.5095 323.503 24.9624L324.438 26.6973H322.761L321.874 25.0203C321.614 24.5191 321.373 24.3553 320.621 24.3553H319.667V26.6973ZM319.667 21.541V23.2662H321.778C322.462 23.2662 322.771 23.0734 322.771 22.3988C322.771 21.7627 322.462 21.541 321.778 21.541H319.667ZM330.379 26.6973H325.087V20.2399H326.533V25.3962H330.379V26.6973ZM334.343 26.6973H331.23V20.2399H334.343C336.415 20.2399 337.726 21.4446 337.726 23.4686C337.726 25.4925 336.415 26.6973 334.343 26.6973ZM334.343 21.541H332.676V25.3962H334.343C335.654 25.3962 336.184 25.0203 336.184 23.4686C336.184 21.9169 335.654 21.541 334.343 21.541Z" fill="white"/>
<rect x="153.474" y="1.09891" width="201.197" height="45.1972" stroke="url(#paint14_linear_1271_65359)" stroke-opacity="0.32" stroke-width="1.07088"/>
<rect x="153.474" y="1.09891" width="201.197" height="45.1972" stroke="url(#paint15_linear_1271_65359)" stroke-opacity="0.32" stroke-width="1.07088"/>
<path d="M384.223 26.7936C382.266 26.7936 381.167 26.0226 381.167 24.5191V24.4613H382.613V24.6348C382.613 25.2323 382.912 25.4733 384.223 25.4733C385.379 25.4733 385.649 25.2998 385.649 24.8661C385.649 24.4709 385.427 24.3263 384.762 24.2107L382.95 23.9505C381.794 23.7673 381.11 23.1891 381.11 22.1385C381.11 21.1651 381.9 20.1435 384.068 20.1435C386.054 20.1435 386.979 21.0591 386.979 22.418V22.4759H385.524V22.3409C385.524 21.7241 385.206 21.4639 383.924 21.4639C382.883 21.4639 382.565 21.6663 382.565 22.0807C382.565 22.4566 382.777 22.5915 383.317 22.6879L385.129 22.977C386.574 23.2084 387.095 23.9119 387.095 24.7986C387.095 25.8491 386.275 26.7936 384.223 26.7936ZM389.322 26.6973H387.876V20.2399H389.322V22.8036H392.695V20.2399H394.141V26.6973H392.695V24.1047H389.322V26.6973ZM398.434 26.7936C396.295 26.7936 394.965 25.4829 394.965 23.4686C394.965 21.4543 396.295 20.1435 398.434 20.1435C400.622 20.1435 401.942 21.4543 401.942 23.4686C401.942 25.4829 400.622 26.7936 398.434 26.7936ZM398.434 25.4058C399.851 25.4058 400.4 24.9046 400.4 23.4686C400.4 22.0325 399.851 21.5314 398.434 21.5314C397.017 21.5314 396.497 22.0325 396.497 23.4686C396.497 24.9046 397.017 25.4058 398.434 25.4058ZM406.158 26.6973H404.009L402.486 20.2399H404.105L404.886 23.9023L405.108 25.319H405.214L405.512 23.9023L406.592 20.2399H408.741L409.811 23.9023L410.11 25.319H410.216L410.437 23.9023L411.218 20.2399H412.799L411.266 26.6973H409.117L408.153 23.4686L407.7 21.6085H407.594L407.141 23.4686L406.158 26.6973ZM418.996 26.6973H417.541V24.5577L414.679 20.2399H416.462L417.695 22.1289L418.235 22.9963H418.341L418.881 22.1289L420.114 20.2399H421.907L418.996 24.5673V26.6973ZM425.7 26.7936C423.56 26.7936 422.23 25.4829 422.23 23.4686C422.23 21.4543 423.56 20.1435 425.7 20.1435C427.888 20.1435 429.208 21.4543 429.208 23.4686C429.208 25.4829 427.888 26.7936 425.7 26.7936ZM425.7 25.4058C427.117 25.4058 427.666 24.9046 427.666 23.4686C427.666 22.0325 427.117 21.5314 425.7 21.5314C424.283 21.5314 423.763 22.0325 423.763 23.4686C423.763 24.9046 424.283 25.4058 425.7 25.4058ZM433.154 26.7936C431.053 26.7936 429.983 25.7335 429.983 23.9987V20.2399H431.429V23.8926C431.429 24.9914 431.843 25.3865 433.154 25.3865C434.474 25.3865 434.879 24.9914 434.879 23.8926V20.2399H436.325V23.9987C436.325 25.7335 435.265 26.7936 433.154 26.7936ZM438.691 26.6973H437.245V20.2399H440.812C442.402 20.2399 443.308 20.9434 443.308 22.1771C443.308 23.2276 442.701 23.8541 441.486 23.9697V24.0468C442.064 24.2011 442.286 24.5095 442.527 24.9624L443.462 26.6973H441.785L440.898 25.0203C440.638 24.5191 440.397 24.3553 439.645 24.3553H438.691V26.6973ZM438.691 21.541V23.2662H440.802C441.486 23.2662 441.795 23.0734 441.795 22.3988C441.795 21.7627 441.486 21.541 440.802 21.541H438.691ZM448.721 26.7936C446.765 26.7936 445.666 26.0226 445.666 24.5191V24.4613H447.112V24.6348C447.112 25.2323 447.41 25.4733 448.721 25.4733C449.878 25.4733 450.148 25.2998 450.148 24.8661C450.148 24.4709 449.926 24.3263 449.261 24.2107L447.449 23.9505C446.292 23.7673 445.608 23.1891 445.608 22.1385C445.608 21.1651 446.398 20.1435 448.567 20.1435C450.552 20.1435 451.478 21.0591 451.478 22.418V22.4759H450.022V22.3409C450.022 21.7241 449.704 21.4639 448.422 21.4639C447.381 21.4639 447.063 21.6663 447.063 22.0807C447.063 22.4566 447.275 22.5915 447.815 22.6879L449.627 22.977C451.073 23.2084 451.593 23.9119 451.593 24.7986C451.593 25.8491 450.774 26.7936 448.721 26.7936ZM457.839 26.6973H452.375V20.2399H457.839V21.541H453.82V22.8036H457.695V24.095H453.82V25.3962H457.839V26.6973ZM463.976 26.6973H458.685V20.2399H460.131V25.3962H463.976V26.6973ZM466.197 26.6973H464.751V20.2399H470.216V21.541H466.197V22.9963H470.071V24.2878H466.197V26.6973ZM476.299 26.6973H474.853V21.541H472.453V20.2399H478.699V21.541H476.299V26.6973ZM482.735 26.7936C480.595 26.7936 479.265 25.4829 479.265 23.4686C479.265 21.4543 480.595 20.1435 482.735 20.1435C484.923 20.1435 486.243 21.4543 486.243 23.4686C486.243 25.4829 484.923 26.7936 482.735 26.7936ZM482.735 25.4058C484.152 25.4058 484.701 24.9046 484.701 23.4686C484.701 22.0325 484.152 21.5314 482.735 21.5314C481.318 21.5314 480.798 22.0325 480.798 23.4686C480.798 24.9046 481.318 25.4058 482.735 25.4058ZM492.341 26.6973H490.895V21.541H488.495V20.2399H494.741V21.541H492.341V26.6973ZM496.898 26.6973H495.452V20.2399H496.898V22.8036H500.271V20.2399H501.717V26.6973H500.271V24.1047H496.898V26.6973ZM508.15 26.6973H502.685V20.2399H508.15V21.541H504.131V22.8036H508.005V24.095H504.131V25.3962H508.15V26.6973ZM514.068 26.6973H511.919L510.396 20.2399H512.015L512.796 23.9023L513.017 25.319H513.123L513.422 23.9023L514.502 20.2399H516.651L517.721 23.9023L518.019 25.319H518.125L518.347 23.9023L519.128 20.2399H520.708L519.176 26.6973H517.027L516.063 23.4686L515.61 21.6085H515.504L515.051 23.4686L514.068 26.6973ZM524.725 26.7936C522.586 26.7936 521.255 25.4829 521.255 23.4686C521.255 21.4543 522.586 20.1435 524.725 20.1435C526.913 20.1435 528.233 21.4543 528.233 23.4686C528.233 25.4829 526.913 26.7936 524.725 26.7936ZM524.725 25.4058C526.142 25.4058 526.691 24.9046 526.691 23.4686C526.691 22.0325 526.142 21.5314 524.725 21.5314C523.308 21.5314 522.788 22.0325 522.788 23.4686C522.788 24.9046 523.308 25.4058 524.725 25.4058ZM530.502 26.6973H529.057V20.2399H532.623C534.213 20.2399 535.119 20.9434 535.119 22.1771C535.119 23.2276 534.512 23.8541 533.297 23.9697V24.0468C533.875 24.2011 534.097 24.5095 534.338 24.9624L535.273 26.6973H533.596L532.709 25.0203C532.449 24.5191 532.208 24.3553 531.456 24.3553H530.502V26.6973ZM530.502 21.541V23.2662H532.613C533.297 23.2662 533.606 23.0734 533.606 22.3988C533.606 21.7627 533.297 21.541 532.613 21.541H530.502ZM541.214 26.6973H535.922V20.2399H537.368V25.3962H541.214V26.6973ZM545.178 26.6973H542.065V20.2399H545.178C547.251 20.2399 548.561 21.4446 548.561 23.4686C548.561 25.4925 547.251 26.6973 545.178 26.6973ZM545.178 21.541H543.511V25.3962H545.178C546.489 25.3962 547.019 25.0203 547.019 23.4686C547.019 21.9169 546.489 21.541 545.178 21.541Z" fill="white"/>
<rect x="364.309" y="1.09891" width="201.197" height="45.1972" stroke="url(#paint16_linear_1271_65359)" stroke-opacity="0.32" stroke-width="1.07088"/>
<rect x="364.309" y="1.09891" width="201.197" height="45.1972" stroke="url(#paint17_linear_1271_65359)" stroke-opacity="0.32" stroke-width="1.07088"/>
<circle cx="280.5" cy="80.0137" r="374.807" fill="url(#paint18_radial_1271_65359)"/>
<circle cx="280.5" cy="80.0137" r="374.807" fill="url(#paint19_radial_1271_65359)"/>
<circle cx="280.5" cy="80.0137" r="374.807" fill="url(#paint20_radial_1271_65359)"/>
<circle cx="280.5" cy="80.0137" r="374.807" fill="url(#paint21_radial_1271_65359)"/>
</g>
<defs>
<linearGradient id="paint0_linear_1271_65359" x1="-135" y1="58.3906" x2="-93.7791" y2="84.2198" gradientUnits="userSpaceOnUse">
<stop stop-color="#FCFCFC"/>
<stop offset="1" stop-color="#FCFCFC" stop-opacity="0"/>
</linearGradient>
<linearGradient id="paint1_linear_1271_65359" x1="67.268" y1="104.659" x2="26.9811" y2="78.7674" gradientUnits="userSpaceOnUse">
<stop stop-color="#FCFCFC"/>
<stop offset="1" stop-color="#FCFCFC" stop-opacity="0"/>
</linearGradient>
<linearGradient id="paint2_linear_1271_65359" x1="75.8351" y1="58.3906" x2="117.056" y2="84.2198" gradientUnits="userSpaceOnUse">
<stop stop-color="#FCFCFC"/>
<stop offset="1" stop-color="#FCFCFC" stop-opacity="0"/>
</linearGradient>
<linearGradient id="paint3_linear_1271_65359" x1="278.103" y1="104.659" x2="237.816" y2="78.7674" gradientUnits="userSpaceOnUse">
<stop stop-color="#FCFCFC"/>
<stop offset="1" stop-color="#FCFCFC" stop-opacity="0"/>
</linearGradient>
<linearGradient id="paint4_linear_1271_65359" x1="286.67" y1="58.3906" x2="327.891" y2="84.2198" gradientUnits="userSpaceOnUse">
<stop stop-color="#FCFCFC"/>
<stop offset="1" stop-color="#FCFCFC" stop-opacity="0"/>
</linearGradient>
<linearGradient id="paint5_linear_1271_65359" x1="488.938" y1="104.659" x2="448.651" y2="78.7674" gradientUnits="userSpaceOnUse">
<stop stop-color="#FCFCFC"/>
<stop offset="1" stop-color="#FCFCFC" stop-opacity="0"/>
</linearGradient>
<linearGradient id="paint6_linear_1271_65359" x1="-109.299" y1="113.006" x2="-68.0781" y2="138.835" gradientUnits="userSpaceOnUse">
<stop stop-color="#FCFCFC"/>
<stop offset="1" stop-color="#FCFCFC" stop-opacity="0"/>
</linearGradient>
<linearGradient id="paint7_linear_1271_65359" x1="92.9691" y1="159.274" x2="52.6821" y2="133.383" gradientUnits="userSpaceOnUse">
<stop stop-color="#FCFCFC"/>
<stop offset="1" stop-color="#FCFCFC" stop-opacity="0"/>
</linearGradient>
<linearGradient id="paint8_linear_1271_65359" x1="101.536" y1="113.006" x2="142.757" y2="138.835" gradientUnits="userSpaceOnUse">
<stop stop-color="#FCFCFC"/>
<stop offset="1" stop-color="#FCFCFC" stop-opacity="0"/>
</linearGradient>
<linearGradient id="paint9_linear_1271_65359" x1="303.804" y1="159.274" x2="263.517" y2="133.383" gradientUnits="userSpaceOnUse">
<stop stop-color="#FCFCFC"/>
<stop offset="1" stop-color="#FCFCFC" stop-opacity="0"/>
</linearGradient>
<linearGradient id="paint10_linear_1271_65359" x1="312.371" y1="113.006" x2="353.592" y2="138.835" gradientUnits="userSpaceOnUse">
<stop stop-color="#FCFCFC"/>
<stop offset="1" stop-color="#FCFCFC" stop-opacity="0"/>
</linearGradient>
<linearGradient id="paint11_linear_1271_65359" x1="514.639" y1="159.274" x2="474.352" y2="133.383" gradientUnits="userSpaceOnUse">
<stop stop-color="#FCFCFC"/>
<stop offset="1" stop-color="#FCFCFC" stop-opacity="0"/>
</linearGradient>
<linearGradient id="paint12_linear_1271_65359" x1="-57.897" y1="0.563477" x2="-16.6761" y2="26.3927" gradientUnits="userSpaceOnUse">
<stop stop-color="#FCFCFC"/>
<stop offset="1" stop-color="#FCFCFC" stop-opacity="0"/>
</linearGradient>
<linearGradient id="paint13_linear_1271_65359" x1="144.371" y1="46.8315" x2="104.084" y2="20.9403" gradientUnits="userSpaceOnUse">
<stop stop-color="#FCFCFC"/>
<stop offset="1" stop-color="#FCFCFC" stop-opacity="0"/>
</linearGradient>
<linearGradient id="paint14_linear_1271_65359" x1="152.938" y1="0.563477" x2="194.159" y2="26.3927" gradientUnits="userSpaceOnUse">
<stop stop-color="#FCFCFC"/>
<stop offset="1" stop-color="#FCFCFC" stop-opacity="0"/>
</linearGradient>
<linearGradient id="paint15_linear_1271_65359" x1="355.206" y1="46.8315" x2="314.919" y2="20.9403" gradientUnits="userSpaceOnUse">
<stop stop-color="#FCFCFC"/>
<stop offset="1" stop-color="#FCFCFC" stop-opacity="0"/>
</linearGradient>
<linearGradient id="paint16_linear_1271_65359" x1="363.773" y1="0.563477" x2="404.994" y2="26.3927" gradientUnits="userSpaceOnUse">
<stop stop-color="#FCFCFC"/>
<stop offset="1" stop-color="#FCFCFC" stop-opacity="0"/>
</linearGradient>
<linearGradient id="paint17_linear_1271_65359" x1="566.041" y1="46.8315" x2="525.754" y2="20.9403" gradientUnits="userSpaceOnUse">
<stop stop-color="#FCFCFC"/>
<stop offset="1" stop-color="#FCFCFC" stop-opacity="0"/>
</linearGradient>
<radialGradient id="paint18_radial_1271_65359" cx="0" cy="0" r="1" gradientUnits="userSpaceOnUse" gradientTransform="translate(8.49742 15.7611) rotate(19.6779) scale(171.731)">
<stop/>
<stop offset="1" stop-opacity="0"/>
</radialGradient>
<radialGradient id="paint19_radial_1271_65359" cx="0" cy="0" r="1" gradientUnits="userSpaceOnUse" gradientTransform="translate(412.218 15.7611) rotate(138.935) scale(143.453)">
<stop/>
<stop offset="1" stop-opacity="0"/>
</radialGradient>
<radialGradient id="paint20_radial_1271_65359" cx="0" cy="0" r="1" gradientUnits="userSpaceOnUse" gradientTransform="translate(455.053 135.699) rotate(-159.379) scale(221.971)">
<stop/>
<stop offset="1" stop-opacity="0"/>
</radialGradient>
<radialGradient id="paint21_radial_1271_65359" cx="0" cy="0" r="1" gradientUnits="userSpaceOnUse" gradientTransform="translate(-11.8492 156.046) rotate(-18.5768) scale(171.014)">
<stop/>
<stop offset="1" stop-opacity="0"/>
</radialGradient>
<clipPath id="clip0_1271_65359">
<rect width="831" height="158.49" fill="white" transform="translate(-135 0.563477)"/>
</clipPath>
</defs>
</svg>
