<svg width="400" height="122" viewBox="0 0 400 122" fill="none" xmlns="http://www.w3.org/2000/svg">
<g filter="url(#filter0_b_1271_65319)">
<g clip-path="url(#clip0_1271_65319)">
<rect width="400" height="122" fill="white" fill-opacity="0.08"/>
<path d="M29.1346 27.4229L29.4543 35.2186L32.288 27.949L30.0591 35.4262L35.0996 29.4706L30.5636 35.8189L37.2648 31.8227L30.9133 36.3542L38.549 34.7503L31.0703 36.974L38.813 37.9364L31.0175 37.6112L38.0282 41.0355L30.7607 38.1967L36.2796 43.7118L30.3276 38.6671L33.7568 45.6754L29.7653 38.9715L30.7331 46.7135L29.1346 39.0767L27.5362 46.7135L28.504 38.9715L24.5124 45.6754L27.9416 38.6671L21.9896 43.7118L27.5086 38.1967L20.2411 41.0355L27.2518 37.6112L19.4563 37.9364L27.199 36.974L19.7203 34.7503L27.3559 36.3542L21.0045 31.8227L27.7056 35.8189L23.1697 29.4706L28.2102 35.4262L25.9813 27.949L28.8149 35.2186L29.1346 27.4229Z" fill="#FCFCFC"/>
<path d="M48.8162 41.1348H47.3874V33.4833H43.8621V32.188H52.3282V33.4833H48.8162V41.1348ZM54.8544 41.2683C53.479 41.2683 52.611 40.6273 52.611 39.5324C52.611 38.5042 53.4389 37.97 54.7475 37.8231L57.7654 37.5027V37.1154C57.7654 36.0204 57.2847 35.6332 56.0161 35.6332C54.7876 35.6332 54.1867 36.0338 54.1867 37.0086V37.062H52.7579V37.0086C52.7579 35.4996 54.0131 34.3646 56.1229 34.3646C58.2328 34.3646 59.1808 35.513 59.1808 37.1021V41.1348H57.8589V39.4789H57.7654C57.4182 40.6006 56.3633 41.2683 54.8544 41.2683ZM54.0532 39.4389C54.0532 39.973 54.4137 40.2267 55.2416 40.2267C56.7505 40.2267 57.7654 39.6659 57.7654 38.3573L55.1615 38.651C54.4137 38.7445 54.0532 38.9181 54.0532 39.4389ZM61.6433 41.1348H60.2011V32.188H61.6433V41.1348ZM66.05 41.2683C63.8734 41.2683 62.4446 40.0398 62.4446 37.8231C62.4446 35.7534 63.86 34.3646 66.0233 34.3646C68.0797 34.3646 69.4818 35.4996 69.4818 37.516C69.4818 37.7564 69.4685 37.9433 69.4284 38.1436H63.7933C63.8467 39.4255 64.4743 40.1066 66.0099 40.1066C67.3987 40.1066 67.9729 39.6525 67.9729 38.8647V38.7579H69.415V38.878C69.415 40.2935 68.0263 41.2683 66.05 41.2683ZM65.9966 35.4996C64.5277 35.4996 63.8868 36.154 63.8066 37.3424H68.1198V37.3157C68.1198 36.0872 67.412 35.4996 65.9966 35.4996ZM71.7371 41.1348H70.2949V34.4981H71.6169V36.5546H71.7104C71.9107 35.4329 72.792 34.3646 74.4745 34.3646C76.3173 34.3646 77.2253 35.6065 77.2253 37.1421V41.1348H75.7831V37.5294C75.7831 36.2875 75.2223 35.6599 73.8469 35.6599C72.3914 35.6599 71.7371 36.4077 71.7371 37.8498V41.1348ZM82.5965 41.1348H81.0742C79.6454 41.1348 78.7641 40.5072 78.7641 38.8914V35.6999H77.6424V34.4981H78.7641V33.0426H80.1929V34.4981H82.5965V35.6999H80.1929V38.8113C80.1929 39.6258 80.5668 39.8395 81.3947 39.8395H82.5965V41.1348ZM88.9988 41.2683C86.3281 41.2683 84.9661 40.0932 84.9661 38.2104V38.1303H86.4082V38.3439C86.4082 39.4122 87.0358 39.9463 88.9988 39.9463C90.708 39.9463 91.3089 39.5724 91.3089 38.7312C91.3089 37.9567 90.8549 37.6629 89.7199 37.4492L87.5299 37.0887C86.021 36.8216 84.9527 36.1273 84.9527 34.6584C84.9527 33.3631 86.021 32.0545 88.7985 32.0545C91.4157 32.0545 92.6042 33.3631 92.6042 35.1124V35.1925H91.1754V35.0189C91.1754 33.924 90.5211 33.3765 88.665 33.3765C87.0358 33.3765 86.3949 33.7771 86.3949 34.5783C86.3949 35.3528 86.8489 35.6065 87.9038 35.8335L90.0804 36.2074C91.8698 36.5279 92.7511 37.3424 92.7511 38.651C92.7511 40.0131 91.6428 41.2683 88.9988 41.2683ZM94.95 41.1348H93.5078V32.188H94.95V36.5279H95.0301C95.2571 35.4062 96.0717 34.3646 97.7676 34.3646C99.597 34.3646 100.492 35.5664 100.492 37.1822V41.1348H99.0628V37.5294C99.0628 36.194 98.4619 35.6599 97.0865 35.6599C95.5108 35.6599 94.95 36.5145 94.95 37.9166V41.1348ZM104.913 41.2683C102.71 41.2683 101.228 39.8662 101.228 37.8231C101.228 35.7534 102.71 34.3646 104.913 34.3646C107.13 34.3646 108.612 35.7534 108.612 37.8231C108.612 39.8662 107.13 41.2683 104.913 41.2683ZM104.913 39.9864C106.529 39.9864 107.197 39.2252 107.197 37.8231C107.197 36.4077 106.529 35.6332 104.913 35.6332C103.311 35.6332 102.643 36.4077 102.643 37.8231C102.643 39.2252 103.311 39.9864 104.913 39.9864ZM112.57 41.1348H110.78L108.791 34.4981H110.286L111.395 38.2638L111.702 39.973H111.809L112.303 38.1303L113.691 34.4981H115.534L116.936 38.1303L117.43 39.973H117.537L117.844 38.2638L118.953 34.4981H120.421L118.405 41.1348H116.616L115.16 37.3157L114.653 35.6866H114.546L114.039 37.3157L112.57 41.1348ZM124.239 41.2683C122.049 41.2683 120.62 39.8662 120.62 37.8231C120.62 35.7534 122.049 34.3646 124.239 34.3646C126.228 34.3646 127.684 35.4863 127.684 37.1421V37.2756H126.255V37.1955C126.255 36.1673 125.507 35.6599 124.212 35.6599C122.716 35.6599 122.049 36.3676 122.049 37.8231C122.049 39.2519 122.716 39.973 124.212 39.973C125.507 39.973 126.255 39.4656 126.255 38.4374V38.3439H127.684V38.4908C127.684 40.1466 126.228 41.2683 124.239 41.2683ZM130.433 41.2683C129.057 41.2683 128.189 40.6273 128.189 39.5324C128.189 38.5042 129.017 37.97 130.326 37.8231L133.344 37.5027V37.1154C133.344 36.0204 132.863 35.6332 131.595 35.6332C130.366 35.6332 129.765 36.0338 129.765 37.0086V37.062H128.336V37.0086C128.336 35.4996 129.592 34.3646 131.701 34.3646C133.811 34.3646 134.759 35.513 134.759 37.1021V41.1348H133.437V39.4789H133.344C132.997 40.6006 131.942 41.2683 130.433 41.2683ZM129.632 39.4389C129.632 39.973 129.992 40.2267 130.82 40.2267C132.329 40.2267 133.344 39.6659 133.344 38.3573L130.74 38.651C129.992 38.7445 129.632 38.9181 129.632 39.4389ZM138.918 41.2683C136.781 41.2683 135.566 40.427 135.566 38.8914V38.8513H137.008V38.9582C137.008 39.8261 137.529 40.1066 138.918 40.1066C140.213 40.1066 140.6 39.8395 140.6 39.2519C140.6 38.7045 140.28 38.5309 139.332 38.3973L137.515 38.157C136.26 37.9967 135.499 37.4626 135.499 36.3543C135.499 35.1925 136.554 34.3646 138.597 34.3646C140.627 34.3646 141.855 35.1792 141.855 36.7549V36.7949H140.427V36.7148C140.427 35.927 140.026 35.513 138.557 35.513C137.342 35.513 136.915 35.7801 136.915 36.4077C136.915 36.9285 137.182 37.1154 138.183 37.2489L139.719 37.4626C141.294 37.6629 142.016 38.197 142.016 39.292C142.016 40.5339 140.787 41.2683 138.918 41.2683ZM146.127 41.2683C143.951 41.2683 142.522 40.0398 142.522 37.8231C142.522 35.7534 143.937 34.3646 146.101 34.3646C148.157 34.3646 149.559 35.4996 149.559 37.516C149.559 37.7564 149.546 37.9433 149.506 38.1436H143.871C143.924 39.4255 144.552 40.1066 146.087 40.1066C147.476 40.1066 148.05 39.6525 148.05 38.8647V38.7579H149.492V38.878C149.492 40.2935 148.104 41.2683 146.127 41.2683ZM146.074 35.4996C144.605 35.4996 143.964 36.154 143.884 37.3424H148.197V37.3157C148.197 36.0872 147.489 35.4996 146.074 35.4996ZM155.844 41.1348H154.402V32.188H155.844V41.1348ZM158.355 41.1348H156.913V34.4981H158.235V36.5546H158.328C158.529 35.4329 159.41 34.3646 161.092 34.3646C162.935 34.3646 163.843 35.6065 163.843 37.1421V41.1348H162.401V37.5294C162.401 36.2875 161.84 35.6599 160.465 35.6599C159.009 35.6599 158.355 36.4077 158.355 37.8498V41.1348ZM166.811 41.1348H165.369V35.6999H164.367V34.4981H165.382C165.542 33.0426 166.651 32.188 168.533 32.188H169.188V33.2563H168.306C167.251 33.2563 166.704 33.5367 166.784 34.4981H169.188V35.6999H166.811V41.1348ZM173.111 41.2683C170.907 41.2683 169.425 39.8662 169.425 37.8231C169.425 35.7534 170.907 34.3646 173.111 34.3646C175.327 34.3646 176.81 35.7534 176.81 37.8231C176.81 39.8662 175.327 41.2683 173.111 41.2683ZM173.111 39.9864C174.727 39.9864 175.394 39.2252 175.394 37.8231C175.394 36.4077 174.727 35.6332 173.111 35.6332C171.508 35.6332 170.841 36.4077 170.841 37.8231C170.841 39.2252 171.508 39.9864 173.111 39.9864ZM179.031 41.1348H177.589V34.4981H178.911V36.2875H179.005C179.205 35.2192 179.926 34.3646 181.288 34.3646C182.797 34.3646 183.451 35.4462 183.451 36.7015V37.5694H182.022V36.9819C182.022 36.0338 181.622 35.5931 180.634 35.5931C179.499 35.5931 179.031 36.2207 179.031 37.4092V41.1348ZM185.532 41.1348H184.09V34.4981H185.412V36.5012H185.492C185.666 35.3928 186.387 34.3646 188.043 34.3646C189.552 34.3646 190.366 35.286 190.553 36.5546H190.633C190.807 35.4195 191.555 34.3646 193.237 34.3646C194.96 34.3646 195.828 35.5397 195.828 37.1421V41.1348H194.399V37.5294C194.399 36.2207 193.878 35.6599 192.596 35.6599C191.181 35.6599 190.673 36.381 190.673 37.8498V41.1348H189.244V37.5294C189.244 36.2207 188.737 35.6599 187.455 35.6599C186.026 35.6599 185.532 36.381 185.532 37.8498V41.1348ZM198.8 41.2683C197.425 41.2683 196.557 40.6273 196.557 39.5324C196.557 38.5042 197.384 37.97 198.693 37.8231L201.711 37.5027V37.1154C201.711 36.0204 201.23 35.6332 199.962 35.6332C198.733 35.6332 198.132 36.0338 198.132 37.0086V37.062H196.703V37.0086C196.703 35.4996 197.959 34.3646 200.068 34.3646C202.178 34.3646 203.126 35.513 203.126 37.1021V41.1348H201.804V39.4789H201.711C201.364 40.6006 200.309 41.2683 198.8 41.2683ZM197.999 39.4389C197.999 39.973 198.359 40.2267 199.187 40.2267C200.696 40.2267 201.711 39.6659 201.711 38.3573L199.107 38.651C198.359 38.7445 197.999 38.9181 197.999 39.4389ZM208.5 41.1348H206.978C205.549 41.1348 204.667 40.5072 204.667 38.8914V35.6999H203.546V34.4981H204.667V33.0426H206.096V34.4981H208.5V35.6999H206.096V38.8113C206.096 39.6258 206.47 39.8395 207.298 39.8395H208.5V41.1348ZM210.577 33.7237H209.135V32.188H210.577V33.7237ZM210.577 41.1348H209.135V34.4981H210.577V41.1348ZM215.037 41.2683C212.834 41.2683 211.352 39.8662 211.352 37.8231C211.352 35.7534 212.834 34.3646 215.037 34.3646C217.254 34.3646 218.736 35.7534 218.736 37.8231C218.736 39.8662 217.254 41.2683 215.037 41.2683ZM215.037 39.9864C216.653 39.9864 217.321 39.2252 217.321 37.8231C217.321 36.4077 216.653 35.6332 215.037 35.6332C213.435 35.6332 212.767 36.4077 212.767 37.8231C212.767 39.2252 213.435 39.9864 215.037 39.9864ZM220.958 41.1348H219.516V34.4981H220.838V36.5546H220.931C221.131 35.4329 222.013 34.3646 223.695 34.3646C225.538 34.3646 226.446 35.6065 226.446 37.1421V41.1348H225.004V37.5294C225.004 36.2875 224.443 35.6599 223.068 35.6599C221.612 35.6599 220.958 36.4077 220.958 37.8498V41.1348ZM230.602 41.2683C228.465 41.2683 227.25 40.427 227.25 38.8914V38.8513H228.692V38.9582C228.692 39.8261 229.213 40.1066 230.602 40.1066C231.897 40.1066 232.284 39.8395 232.284 39.2519C232.284 38.7045 231.964 38.5309 231.016 38.3973L229.2 38.157C227.945 37.9967 227.183 37.4626 227.183 36.3543C227.183 35.1925 228.238 34.3646 230.281 34.3646C232.311 34.3646 233.54 35.1792 233.54 36.7549V36.7949H232.111V36.7148C232.111 35.927 231.71 35.513 230.241 35.513C229.026 35.513 228.599 35.7801 228.599 36.4077C228.599 36.9285 228.866 37.1154 229.868 37.2489L231.403 37.4626C232.979 37.6629 233.7 38.197 233.7 39.292C233.7 40.5339 232.471 41.2683 230.602 41.2683Z" fill="#FCFCFC"/>
<rect x="298.308" y="19.4229" width="82.2692" height="35.4231" rx="9.71153" fill="#F2F2F2" fill-opacity="0.16"/>
<path d="M335.267 41.1348H328.11V32.188H335.267V33.4833H329.552V35.9937H335.067V37.2756H329.552V39.8395H335.267V41.1348ZM339.048 41.2683C336.952 41.2683 335.79 39.8662 335.79 37.8231C335.79 35.7534 336.938 34.3646 338.955 34.3646C340.53 34.3646 341.425 35.1792 341.692 36.3009H341.772V32.188H343.214V41.1348H341.892V39.2252H341.799C341.518 40.5472 340.544 41.2683 339.048 41.2683ZM337.245 37.8231C337.245 39.4122 338.06 39.9463 339.489 39.9463C340.904 39.9463 341.772 39.2786 341.772 37.8899V37.7831C341.772 36.3676 340.944 35.6732 339.462 35.6732C338.073 35.6732 337.245 36.2207 337.245 37.8231ZM345.723 33.7237H344.281V32.188H345.723V33.7237ZM345.723 41.1348H344.281V34.4981H345.723V41.1348ZM351.144 41.1348H349.622C348.193 41.1348 347.312 40.5072 347.312 38.8914V35.6999H346.19V34.4981H347.312V33.0426H348.741V34.4981H351.144V35.6999H348.741V38.8113C348.741 39.6258 349.115 39.8395 349.943 39.8395H351.144V41.1348Z" fill="#FCFCFC"/>
<path d="M19.4231 74.2695H380.577" stroke="#EFEFEF" stroke-opacity="0.16" stroke-width="1.21394"/>
<path d="M26.22 95.4177V97.4074H24.1101V105.192H21.8534V97.4074H19.7436V95.4177H26.22ZM32.6068 105.179L32.3264 104.111H28.9213L28.6409 105.179H26.304L28.9347 95.4177H32.313L34.9437 105.179H32.6068ZM29.4421 102.201H31.8056L30.6172 97.7946L29.4421 102.201ZM38.0713 103.203H40.9689V105.192H38.0713H36.9496H35.8279V95.4177H38.0713V103.203ZM47.4096 97.3406H44.0446V99.2368H46.8221V101.16H44.0446V103.256H47.4096V105.192H41.7879V95.4177H42.4823H44.0446H47.4096V97.3406ZM53.5666 95.4177H55.8233V105.192H53.5666L51.2565 100.479V105.192H48.9997V95.4177H51.2565H51.2698L53.5666 100.332V95.4177ZM63.1399 95.4177V97.4074H61.0301V105.192H58.7734V97.4074H56.6635V95.4177H63.1399ZM71.4465 95.4177H73.7032V105.192H71.4465L69.1364 100.479V105.192H66.8797V95.4177H69.1364H69.1497L71.4465 100.332V95.4177ZM80.873 105.179L80.5925 104.111H77.1874L76.907 105.179H74.5702L77.2008 95.4177H80.5792L83.2098 105.179H80.873ZM77.7082 102.201H80.0718L78.8833 97.7946L77.7082 102.201ZM90.0897 95.4177H92.3464V105.192H90.0897V102.268L89.0748 105.192H87.379L86.3374 102.228V105.192H84.094V95.4177H86.3374L88.2336 101.4L90.0897 95.4177ZM99.5618 97.3406H96.1968V99.2368H98.9743V101.16H96.1968V103.256H99.5618V105.192H93.94V95.4177H94.6344H96.1968H99.5618V97.3406Z" fill="#FCFCFC"/>
<path d="M250.395 105.692H248.352L244.533 96.7456H246.242L249.34 104.237H249.447L252.518 96.7456H254.214L250.395 105.692ZM257.951 105.826C255.747 105.826 254.265 104.424 254.265 102.381C254.265 100.311 255.747 98.9222 257.951 98.9222C260.167 98.9222 261.649 100.311 261.649 102.381C261.649 104.424 260.167 105.826 257.951 105.826ZM257.951 104.544C259.566 104.544 260.234 103.783 260.234 102.381C260.234 100.965 259.566 100.191 257.951 100.191C256.348 100.191 255.681 100.965 255.681 102.381C255.681 103.783 256.348 104.544 257.951 104.544ZM265.781 105.826C263.591 105.826 262.162 104.424 262.162 102.381C262.162 100.311 263.591 98.9222 265.781 98.9222C267.77 98.9222 269.226 100.044 269.226 101.7V101.833H267.797V101.753C267.797 100.725 267.049 100.218 265.754 100.218C264.258 100.218 263.591 100.925 263.591 102.381C263.591 103.81 264.258 104.531 265.754 104.531C267.049 104.531 267.797 104.023 267.797 102.995V102.902H269.226V103.048C269.226 104.704 267.77 105.826 265.781 105.826ZM271.975 105.826C270.599 105.826 269.732 105.185 269.732 104.09C269.732 103.062 270.559 102.528 271.868 102.381L274.886 102.06V101.673C274.886 100.578 274.405 100.191 273.137 100.191C271.908 100.191 271.307 100.591 271.307 101.566V101.62H269.878V101.566C269.878 100.057 271.134 98.9222 273.243 98.9222C275.353 98.9222 276.301 100.071 276.301 101.66V105.692H274.979V104.037H274.886C274.539 105.158 273.484 105.826 271.975 105.826ZM271.174 103.997C271.174 104.531 271.534 104.784 272.362 104.784C273.871 104.784 274.886 104.224 274.886 102.915L272.282 103.209C271.534 103.302 271.174 103.476 271.174 103.997ZM278.764 105.692H277.322V96.7456H278.764V105.692ZM281.274 98.2813H279.832V96.7456H281.274V98.2813ZM281.274 105.692H279.832V99.0558H281.274V105.692ZM285.481 105.826C283.344 105.826 282.129 104.985 282.129 103.449V103.409H283.571V103.516C283.571 104.384 284.092 104.664 285.481 104.664C286.776 104.664 287.163 104.397 287.163 103.81C287.163 103.262 286.843 103.088 285.895 102.955L284.079 102.715C282.823 102.554 282.062 102.02 282.062 100.912C282.062 99.7501 283.117 98.9222 285.16 98.9222C287.19 98.9222 288.418 99.7368 288.418 101.312V101.353H286.99V101.272C286.99 100.485 286.589 100.071 285.12 100.071C283.905 100.071 283.478 100.338 283.478 100.965C283.478 101.486 283.745 101.673 284.746 101.807L286.282 102.02C287.858 102.221 288.579 102.755 288.579 103.85C288.579 105.091 287.35 105.826 285.481 105.826ZM293.705 105.692H292.183C290.754 105.692 289.873 105.065 289.873 103.449V100.258H288.751V99.0558H289.873V97.6002H291.302V99.0558H293.705V100.258H291.302V103.369C291.302 104.183 291.676 104.397 292.504 104.397H293.705V105.692ZM294.941 105.959H293.406L298.213 96.4786H299.749L294.941 105.959ZM303.576 105.826C300.906 105.826 299.544 104.651 299.544 102.768V102.688H300.986V102.902C300.986 103.97 301.613 104.504 303.576 104.504C305.286 104.504 305.887 104.13 305.887 103.289C305.887 102.514 305.433 102.221 304.298 102.007L302.108 101.646C300.599 101.379 299.53 100.685 299.53 99.216C299.53 97.9207 300.599 96.6121 303.376 96.6121C305.993 96.6121 307.182 97.9207 307.182 99.67V99.7501H305.753V99.5765C305.753 98.4816 305.099 97.9341 303.243 97.9341C301.613 97.9341 300.973 98.3347 300.973 99.1359C300.973 99.9104 301.427 100.164 302.481 100.391L304.658 100.765C306.447 101.085 307.329 101.9 307.329 103.209C307.329 104.571 306.22 105.826 303.576 105.826ZM311.477 105.826C309.274 105.826 307.792 104.424 307.792 102.381C307.792 100.311 309.274 98.9222 311.477 98.9222C313.694 98.9222 315.176 100.311 315.176 102.381C315.176 104.424 313.694 105.826 311.477 105.826ZM311.477 104.544C313.093 104.544 313.761 103.783 313.761 102.381C313.761 100.965 313.093 100.191 311.477 100.191C309.875 100.191 309.207 100.965 309.207 102.381C309.207 103.783 309.875 104.544 311.477 104.544ZM317.398 105.692H315.956V99.0558H317.278V101.112H317.371C317.571 99.9905 318.453 98.9222 320.135 98.9222C321.978 98.9222 322.886 100.164 322.886 101.7V105.692H321.444V102.087C321.444 100.845 320.883 100.218 319.508 100.218C318.052 100.218 317.398 100.965 317.398 102.407V105.692ZM326.788 105.091C324.812 105.091 323.637 103.85 323.637 102.007C323.637 100.164 324.865 98.9222 326.882 98.9222C328.271 98.9222 329.312 99.5498 329.552 100.712H329.633V99.0558H330.955V104.918C330.955 107.148 329.566 108.096 327.389 108.096C325.426 108.096 324.064 107.175 324.064 105.572H325.493C325.493 106.534 326.054 106.894 327.469 106.894C328.978 106.894 329.526 106.48 329.526 104.998V103.369H329.432C329.192 104.37 328.297 105.091 326.788 105.091ZM325.092 102.007C325.092 103.369 325.894 103.85 327.256 103.85C328.725 103.85 329.526 103.235 329.526 102.06V101.873C329.526 100.752 328.698 100.177 327.296 100.177C325.907 100.177 325.092 100.645 325.092 102.007ZM338.043 105.692H335.92L333.556 96.7456H335.159L336.614 102.407L337.015 104.304H337.122L337.602 102.407L339.405 96.7456H341.501L343.424 102.407L343.932 104.304H344.039L344.412 102.407L345.748 96.7456H347.323L345.08 105.692H342.957L341.154 100.485L340.5 98.1878H340.38L339.739 100.485L338.043 105.692ZM349.348 105.692H347.906V99.0558H349.228V100.845H349.321C349.521 99.7768 350.242 98.9222 351.604 98.9222C353.113 98.9222 353.768 100.004 353.768 101.259V102.127H352.339V101.539C352.339 100.591 351.938 100.151 350.95 100.151C349.815 100.151 349.348 100.778 349.348 101.967V105.692ZM355.849 98.2813H354.406V96.7456H355.849V98.2813ZM355.849 105.692H354.406V99.0558H355.849V105.692ZM361.27 105.692H359.748C358.319 105.692 357.438 105.065 357.438 103.449V100.258H356.316V99.0558H357.438V97.6002H358.867V99.0558H361.27V100.258H358.867V103.369C358.867 104.183 359.241 104.397 360.068 104.397H361.27V105.692ZM366.258 105.692H364.736C363.307 105.692 362.426 105.065 362.426 103.449V100.258H361.304V99.0558H362.426V97.6002H363.855V99.0558H366.258V100.258H363.855V103.369C363.855 104.183 364.229 104.397 365.057 104.397H366.258V105.692ZM370.232 105.826C368.055 105.826 366.626 104.597 366.626 102.381C366.626 100.311 368.042 98.9222 370.205 98.9222C372.262 98.9222 373.664 100.057 373.664 102.074C373.664 102.314 373.65 102.501 373.61 102.701H367.975C368.029 103.983 368.656 104.664 370.192 104.664C371.58 104.664 372.155 104.21 372.155 103.422V103.315H373.597V103.436C373.597 104.851 372.208 105.826 370.232 105.826ZM370.178 100.057C368.71 100.057 368.069 100.712 367.988 101.9H372.302V101.873C372.302 100.645 371.594 100.057 370.178 100.057ZM375.919 105.692H374.477V99.0558H375.799V100.845H375.892C376.092 99.7768 376.814 98.9222 378.176 98.9222C379.685 98.9222 380.339 100.004 380.339 101.259V102.127H378.91V101.539C378.91 100.591 378.509 100.151 377.521 100.151C376.386 100.151 375.919 100.778 375.919 101.967V105.692Z" fill="#C7C7C7"/>
</g>
<rect x="2.42788" y="2.42788" width="395.144" height="117.144" stroke="url(#paint0_linear_1271_65319)" stroke-opacity="0.24" stroke-width="4.85577"/>
<rect x="2.42788" y="2.42788" width="395.144" height="117.144" stroke="url(#paint1_linear_1271_65319)" stroke-opacity="0.24" stroke-width="4.85577"/>
</g>
<defs>
<filter id="filter0_b_1271_65319" x="-24" y="-24" width="448" height="170" filterUnits="userSpaceOnUse" color-interpolation-filters="sRGB">
<feFlood flood-opacity="0" result="BackgroundImageFix"/>
<feGaussianBlur in="BackgroundImageFix" stdDeviation="12"/>
<feComposite in2="SourceAlpha" operator="in" result="effect1_backgroundBlur_1271_65319"/>
<feBlend mode="normal" in="SourceGraphic" in2="effect1_backgroundBlur_1271_65319" result="shape"/>
</filter>
<linearGradient id="paint0_linear_1271_65319" x1="0" y1="0" x2="31.6426" y2="99.5918" gradientUnits="userSpaceOnUse">
<stop stop-color="white"/>
<stop offset="1" stop-color="white" stop-opacity="0"/>
</linearGradient>
<linearGradient id="paint1_linear_1271_65319" x1="400" y1="122" x2="357.68" y2="35.3733" gradientUnits="userSpaceOnUse">
<stop stop-color="white"/>
<stop offset="1" stop-color="white" stop-opacity="0"/>
</linearGradient>
<clipPath id="clip0_1271_65319">
<rect width="400" height="122" fill="white"/>
</clipPath>
</defs>
</svg>
